SplineFontDB: 3.0
FontName: Carter_BODY_Ad
FullName: Carter_BODY_Ad
FamilyName: Carter_BODY_Ad
Weight: Medium
Copyright: Created with the help of MyScriptFont.com\nCopyright belongs to the Creator.
Version: 001.000
ItalicAngle: 0
UnderlinePosition: -150
UnderlineWidth: 50
Ascent: 800
Descent: 200
InvalidEm: 0
sfntRevision: 0x00010000
LayerCount: 2
Layer: 0 1 "Back" 1
Layer: 1 1 "Fore" 0
XUID: [1021 164 739823016 7417]
StyleMap: 0x0000
FSType: 0
OS2Version: 4
OS2_WeightWidthSlopeOnly: 0
OS2_UseTypoMetrics: 1
CreationTime: 1277802766
ModificationTime: 1472237308
PfmFamily: 17
TTFWeight: 500
TTFWidth: 5
LineGap: 90
VLineGap: 0
Panose: 2 0 6 3 0 0 0 0 0 0
OS2TypoAscent: 800
OS2TypoAOffset: 0
OS2TypoDescent: -200
OS2TypoDOffset: 0
OS2TypoLinegap: 90
OS2WinAscent: 792
OS2WinAOffset: 0
OS2WinDescent: 76
OS2WinDOffset: 0
HheadAscent: 792
HheadAOffset: 0
HheadDescent: -76
HheadDOffset: 0
OS2SubXSize: 650
OS2SubYSize: 700
OS2SubXOff: 0
OS2SubYOff: 140
OS2SupXSize: 650
OS2SupYSize: 700
OS2SupXOff: 0
OS2SupYOff: 480
OS2StrikeYSize: 49
OS2StrikeYPos: 258
OS2CapHeight: 728
OS2XHeight: 614
OS2Vendor: 'PfEd'
OS2CodePages: 00000001.00000000
OS2UnicodeRanges: 80000007.00000002.00000000.00000000
MarkAttachClasses: 1
DEI: 91125
TtTable: prep
PUSHW_1
 511
SCANCTRL
PUSHB_1
 1
SCANTYPE
SVTCA[y-axis]
MPPEM
PUSHB_1
 8
LT
IF
PUSHB_2
 1
 1
INSTCTRL
EIF
PUSHB_2
 70
 6
CALL
IF
POP
PUSHB_1
 16
EIF
MPPEM
PUSHB_1
 20
GT
IF
POP
PUSHB_1
 128
EIF
SCVTCI
PUSHB_1
 6
CALL
NOT
IF
EIF
PUSHB_1
 20
CALL
EndTTInstrs
TtTable: fpgm
PUSHB_1
 0
FDEF
PUSHB_1
 0
SZP0
MPPEM
PUSHB_1
 42
LT
IF
PUSHB_1
 74
SROUND
EIF
PUSHB_1
 0
SWAP
MIAP[rnd]
RTG
PUSHB_1
 6
CALL
IF
RTDG
EIF
MPPEM
PUSHB_1
 42
LT
IF
RDTG
EIF
DUP
MDRP[rp0,rnd,grey]
PUSHB_1
 1
SZP0
MDAP[no-rnd]
RTG
ENDF
PUSHB_1
 1
FDEF
DUP
MDRP[rp0,min,white]
PUSHB_1
 12
CALL
ENDF
PUSHB_1
 2
FDEF
MPPEM
GT
IF
RCVT
SWAP
EIF
POP
ENDF
PUSHB_1
 3
FDEF
ROUND[Black]
RTG
DUP
PUSHB_1
 64
LT
IF
POP
PUSHB_1
 64
EIF
ENDF
PUSHB_1
 4
FDEF
PUSHB_1
 6
CALL
IF
POP
SWAP
POP
ROFF
IF

StartChar: .notdef
Encoding: 65536 -1 0
Width: 364
Flags: W
LayerCount: 2
Fore
SplineSet
33 0 m 1,0,-1
 33 666 l 1,1,-1
 298 666 l 1,2,-1
 298 0 l 1,3,-1
 33 0 l 1,0,-1
66 33 m 1,4,-1
 265 33 l 1,5,-1
 265 633 l 1,6,-1
 66 633 l 1,7,-1
 66 33 l 1,4,-1
EndSplineSet
Validated: 1
EndChar

StartChar: exclam
Encoding: 33 33 4
Width: 313
VWidth: 1058
Flags: W
LayerCount: 2
Fore
SplineSet
155.09375 758.9921875 m 0,0,1
 219.89453125 776.9921875 219.89453125 776.9921875 243.89453125 778.192382812 c 128,-1,2
 267.89453125 779.392578125 267.89453125 779.392578125 284.694335938 764.9921875 c 0,3,4
 303.89453125 749.392578125 303.89453125 749.392578125 302.694335938 710.392578125 c 128,-1,5
 301.494140625 671.392578125 301.494140625 671.392578125 277.494140625 559.791992188 c 0,6,7
 252.293945312 431.392578125 252.293945312 431.392578125 241.494140625 371.392578125 c 0,8,9
 231.89453125 317.392578125 231.89453125 317.392578125 232.494140625 305.9921875 c 128,-1,10
 233.09375 294.592773438 233.09375 294.592773438 246.293945312 281.392578125 c 0,11,12
 258.293945312 268.192382812 258.293945312 268.192382812 260.09375 253.791992188 c 128,-1,13
 261.89453125 239.392578125 261.89453125 239.392578125 259.494140625 188.9921875 c 0,14,15
 258.293945312 162.592773438 258.293945312 162.592773438 257.694335938 151.192382812 c 128,-1,16
 257.09375 139.791992188 257.09375 139.791992188 252.89453125 122.9921875 c 128,-1,17
 248.694335938 106.192382812 248.694335938 106.192382812 246.89453125 101.392578125 c 128,-1,18
 245.09375 96.5927734375 245.09375 96.5927734375 234.293945312 86.392578125 c 128,-1,19
 223.494140625 76.1923828125 223.494140625 76.1923828125 216.89453125 74.392578125 c 128,-1,20
 210.293945312 72.5927734375 210.293945312 72.5927734375 188.694335938 65.392578125 c 128,-1,21
 167.09375 58.1923828125 167.09375 58.1923828125 152.694335938 55.7919921875 c 128,-1,22
 138.293945312 53.392578125 138.293945312 53.392578125 102.293945312 46.1923828125 c 2,23,-1
 33.89453125 31.7919921875 l 1,24,-1
 13.494140625 49.7919921875 l 2,25,26
 0.2939453125 62.9921875 0.2939453125 62.9921875 -2.7060546875 75.5927734375 c 128,-1,27
 -5.7060546875 88.1923828125 -5.7060546875 88.1923828125 -5.7060546875 127.791992188 c 0,28,29
 -5.7060546875 226.192382812 -5.7060546875 226.192382812 26.6943359375 258.592773438 c 0,30,31
 38.6943359375 271.791992188 38.6943359375 271.791992188 41.09375 304.192382812 c 128,-1,32
 43.494140625 336.592773438 43.494140625 336.592773438 43.494140625 488.9921875 c 2,33,-1
 44.6943359375 701.392578125 l 1,34,-1
 65.09375 720.592773438 l 2,35,36
 84.2939453125 738.592773438 84.2939453125 738.592773438 155.09375 758.9921875 c 0,0,1
EndSplineSet
Validated: 524321
EndChar

StartChar: quotedbl
Encoding: 34 34 5
Width: 467
VWidth: 1029
Flags: W
LayerCount: 2
Fore
SplineSet
89.41796875 714.200195312 m 0,0,1
 113.41796875 734.599609375 113.41796875 734.599609375 132.618164062 733.400390625 c 128,-1,2
 151.818359375 732.200195312 151.818359375 732.200195312 199.818359375 707 c 2,3,-1
 255.017578125 678.200195312 l 1,4,-1
 281.41796875 707 l 2,5,6
 307.818359375 734.599609375 307.818359375 734.599609375 329.41796875 734.599609375 c 0,7,8
 343.818359375 734.599609375 343.818359375 734.599609375 367.818359375 724.400390625 c 128,-1,9
 391.818359375 714.200195312 391.818359375 714.200195312 413.41796875 699.200195312 c 128,-1,10
 435.017578125 684.200195312 435.017578125 684.200195312 444.618164062 671 c 0,11,12
 455.41796875 657.799804688 455.41796875 657.799804688 456.017578125 649.400390625 c 128,-1,13
 456.618164062 641 456.618164062 641 451.818359375 624.200195312 c 0,14,15
 443.41796875 599 443.41796875 599 451.818359375 588.200195312 c 256,16,17
 460.217773438 577.400390625 460.217773438 577.400390625 456.017578125 503.599609375 c 128,-1,18
 451.818359375 429.799804688 451.818359375 429.799804688 441.017578125 408.200195312 c 0,19,20
 433.818359375 392.599609375 433.818359375 392.599609375 426.017578125 385.400390625 c 128,-1,21
 418.217773438 378.200195312 418.217773438 378.200195312 391.818359375 373.400390625 c 128,-1,22
 365.41796875 368.599609375 365.41796875 368.599609375 328.818359375 368 c 128,-1,23
 292.217773438 367.400390625 292.217773438 367.400390625 211.818359375 367.400390625 c 0,24,25
 114.618164062 367.400390625 114.618164062 367.400390625 70.818359375 369.799804688 c 128,-1,26
 27.017578125 372.200195312 27.017578125 372.200195312 9.017578125 378.799804688 c 128,-1,27
 -8.982421875 385.400390625 -8.982421875 385.400390625 -14.982421875 401 c 0,28,29
 -20.982421875 417.799804688 -20.982421875 417.799804688 -19.181640625 468.799804688 c 128,-1,30
 -17.3818359375 519.799804688 -17.3818359375 519.799804688 -10.181640625 554.599609375 c 0,31,32
 -0.58203125 590.599609375 -0.58203125 590.599609375 30.017578125 640.400390625 c 128,-1,33
 60.6181640625 690.200195312 60.6181640625 690.200195312 89.41796875 714.200195312 c 0,0,1
EndSplineSet
Validated: 524321
EndChar

StartChar: numbersign
Encoding: 35 35 6
Width: 680
VWidth: 1059
Flags: W
LayerCount: 2
Fore
SplineSet
403.780273438 751.484375 m 0,0,1
 415.780273438 756.284179688 415.780273438 756.284179688 424.1796875 752.68359375 c 0,2,3
 428.98046875 751.484375 428.98046875 751.484375 503.379882812 729.883789062 c 0,4,5
 547.780273438 716.68359375 547.780273438 716.68359375 567.580078125 705.284179688 c 128,-1,6
 587.379882812 693.883789062 587.379882812 693.883789062 593.379882812 679.484375 c 128,-1,7
 599.379882812 665.083984375 599.379882812 665.083984375 595.780273438 638.68359375 c 2,8,-1
 590.98046875 602.68359375 l 1,9,-1
 623.379882812 593.083984375 l 2,10,11
 704.98046875 569.083984375 704.98046875 569.083984375 642.580078125 451.484375 c 0,12,13
 614.98046875 401.083984375 614.98046875 401.083984375 614.98046875 379.484375 c 0,14,15
 614.98046875 362.68359375 614.98046875 362.68359375 598.780273438 316.484375 c 128,-1,16
 582.580078125 270.284179688 582.580078125 270.284179688 569.379882812 249.883789062 c 0,17,18
 559.780273438 233.083984375 559.780273438 233.083984375 526.1796875 221.083984375 c 0,19,20
 502.1796875 213.883789062 502.1796875 213.883789062 495.580078125 204.284179688 c 128,-1,21
 488.98046875 194.68359375 488.98046875 194.68359375 475.780273438 146.68359375 c 0,22,23
 468.580078125 116.68359375 468.580078125 116.68359375 463.1796875 101.083984375 c 128,-1,24
 457.780273438 85.484375 457.780273438 85.484375 449.379882812 71.68359375 c 128,-1,25
 440.98046875 57.8837890625 440.98046875 57.8837890625 433.1796875 53.68359375 c 128,-1,26
 425.379882812 49.484375 425.379882812 49.484375 409.1796875 48.8837890625 c 128,-1,27
 392.98046875 48.2841796875 392.98046875 48.2841796875 376.780273438 51.8837890625 c 128,-1,28
 360.580078125 55.484375 360.580078125 55.484375 330.580078125 63.8837890625 c 0,29,30
 251.379882812 85.484375 251.379882812 85.484375 247.780273438 75.8837890625 c 0,31,32
 245.379882812 67.484375 245.379882812 67.484375 222.580078125 54.2841796875 c 0,33,34
 205.780273438 45.8837890625 205.780273438 45.8837890625 193.1796875 47.083984375 c 128,-1,35
 180.580078125 48.2841796875 180.580078125 48.2841796875 139.780273438 59.083984375 c 0,36,37
 56.98046875 81.8837890625 56.98046875 81.8837890625 36.580078125 102.284179688 c 128,-1,38
 16.1796875 122.68359375 16.1796875 122.68359375 22.1796875 177.883789062 c 0,39,40
 25.7802734375 209.083984375 25.7802734375 209.083984375 23.98046875 216.883789062 c 128,-1,41
 22.1796875 224.68359375 22.1796875 224.68359375 8.98046875 228.284179688 c 0,42,43
 -30.6201171875 240.284179688 -30.6201171875 240.284179688 -37.8203125 268.484375 c 128,-1,44
 -45.01953125 296.68359375 -45.01953125 296.68359375 -19.8203125 345.883789062 c 0,45,46
 4.1796875 396.284179688 4.1796875 396.284179688 -4.2197265625 410.68359375 c 0,47,48
 -15.01953125 431.083984375 -15.01953125 431.083984375 -10.8203125 453.284179688 c 128,-1,49
 -6.6201171875 475.484375 -6.6201171875 475.484375 12.580078125 515.083984375 c 0,50,51
 31.7802734375 551.083984375 31.7802734375 551.083984375 44.98046875 563.68359375 c 128,-1,52
 58.1796875 576.284179688 58.1796875 576.284179688 100.1796875 594.284179688 c 0,53,54
 122.98046875 603.883789062 122.98046875 603.883789062 131.379882812 631.484375 c 0,55,56
 144.580078125 687.883789062 144.580078125 687.883789062 151.1796875 705.284179688 c 128,-1,57
 157.780273438 722.68359375 157.780273438 722.68359375 168.580078125 734.68359375 c 0,58,59
 182.98046875 749.083984375 182.98046875 749.083984375 211.1796875 748.484375 c 128,-1,60
 239.379882812 747.883789062 239.379882812 747.883789062 293.379882812 729.883789062 c 2,61,-1
 352.1796875 711.883789062 l 1,62,-1
 371.379882812 729.883789062 l 2,63,64
 392.98046875 747.883789062 392.98046875 747.883789062 403.780273438 751.484375 c 0,0,1
EndSplineSet
Validated: 524321
EndChar

StartChar: dollar
Encoding: 36 36 7
Width: 432
VWidth: 1061
Flags: W
LayerCount: 2
Fore
SplineSet
207.883789062 767.405273438 m 0,0,1
 348.284179688 786.60546875 348.284179688 786.60546875 348.284179688 715.805664062 c 0,2,3
 348.284179688 699.005859375 348.284179688 699.005859375 378.284179688 679.805664062 c 0,4,5
 403.484375 663.005859375 403.484375 663.005859375 411.284179688 640.206054688 c 128,-1,6
 419.083984375 617.405273438 419.083984375 617.405273438 421.484375 556.206054688 c 0,7,8
 422.68359375 519.005859375 422.68359375 519.005859375 419.68359375 506.405273438 c 128,-1,9
 416.68359375 493.805664062 416.68359375 493.805664062 405.883789062 483.005859375 c 0,10,11
 387.883789062 465.005859375 387.883789062 465.005859375 356.68359375 466.206054688 c 256,12,13
 325.484375 467.405273438 325.484375 467.405273438 325.484375 465.005859375 c 0,14,15
 325.484375 463.805664062 325.484375 463.805664062 360.284179688 426.60546875 c 0,16,17
 432.284179688 351.005859375 432.284179688 351.005859375 408.284179688 270.60546875 c 0,18,19
 387.883789062 198.60546875 387.883789062 198.60546875 330.284179688 163.805664062 c 0,20,21
 312.284179688 151.805664062 312.284179688 151.805664062 307.484375 141.60546875 c 128,-1,22
 302.68359375 131.405273438 302.68359375 131.405273438 299.083984375 99.005859375 c 0,23,24
 294.284179688 45.005859375 294.284179688 45.005859375 276.284179688 31.2060546875 c 128,-1,25
 258.284179688 17.4052734375 258.284179688 17.4052734375 188.68359375 15.005859375 c 0,26,27
 125.083984375 12.60546875 125.083984375 12.60546875 104.083984375 20.4052734375 c 128,-1,28
 83.083984375 28.2060546875 83.083984375 28.2060546875 69.8837890625 57.005859375 c 0,29,30
 59.083984375 84.60546875 59.083984375 84.60546875 43.484375 84.60546875 c 0,31,32
 8.68359375 84.60546875 8.68359375 84.60546875 -9.31640625 117.005859375 c 0,33,34
 -17.7158203125 132.60546875 -17.7158203125 132.60546875 -16.515625 147.60546875 c 128,-1,35
 -15.31640625 162.60546875 -15.31640625 162.60546875 -4.515625 209.405273438 c 0,36,37
 13.484375 279.005859375 13.484375 279.005859375 25.484375 291.005859375 c 0,38,39
 41.083984375 301.805664062 41.083984375 301.805664062 73.484375 309.005859375 c 0,40,41
 110.68359375 315.005859375 110.68359375 315.005859375 110.68359375 325.206054688 c 128,-1,42
 110.68359375 335.405273438 110.68359375 335.405273438 81.8837890625 354.60546875 c 0,43,44
 45.8837890625 378.60546875 45.8837890625 378.60546875 27.8837890625 399.60546875 c 128,-1,45
 9.8837890625 420.60546875 9.8837890625 420.60546875 -0.916015625 454.206054688 c 0,46,47
 -16.515625 499.805664062 -16.515625 499.805664062 -3.31640625 534.60546875 c 128,-1,48
 9.8837890625 569.405273438 9.8837890625 569.405273438 60.2841796875 618.60546875 c 0,49,50
 113.083984375 671.405273438 113.083984375 671.405273438 113.083984375 677.405273438 c 0,51,52
 113.083984375 696.60546875 113.083984375 696.60546875 124.484375 721.206054688 c 128,-1,53
 135.883789062 745.805664062 135.883789062 745.805664062 147.883789062 751.805664062 c 0,54,55
 164.68359375 761.405273438 164.68359375 761.405273438 207.883789062 767.405273438 c 0,0,1
EndSplineSet
Validated: 524321
EndChar

StartChar: percent
Encoding: 37 37 8
Width: 839
VWidth: 1058
Flags: W
LayerCount: 2
Fore
SplineSet
83.2998046875 762.1875 m 0,0,1
 145.700195312 784.98828125 145.700195312 784.98828125 202.700195312 773.587890625 c 128,-1,2
 259.700195312 762.1875 259.700195312 762.1875 304.099609375 716.587890625 c 0,3,4
 330.5 690.1875 330.5 690.1875 347.900390625 651.1875 c 128,-1,5
 365.299804688 612.1875 365.299804688 612.1875 365.299804688 582.1875 c 0,6,7
 365.299804688 567.788085938 365.299804688 567.788085938 371.299804688 567.788085938 c 0,8,9
 374.900390625 567.788085938 374.900390625 567.788085938 420.5 615.788085938 c 0,10,11
 451.700195312 648.1875 451.700195312 648.1875 462.5 655.387695312 c 128,-1,12
 473.299804688 662.587890625 473.299804688 662.587890625 490.099609375 658.98828125 c 0,13,14
 499.700195312 656.587890625 499.700195312 656.587890625 512.299804688 651.1875 c 128,-1,15
 524.900390625 645.788085938 524.900390625 645.788085938 539.299804688 636.1875 c 128,-1,16
 553.700195312 626.587890625 553.700195312 626.587890625 563.299804688 619.387695312 c 128,-1,17
 572.900390625 612.1875 572.900390625 612.1875 587.900390625 601.387695312 c 128,-1,18
 602.900390625 590.587890625 602.900390625 590.587890625 605.299804688 588.1875 c 0,19,20
 618.5 579.788085938 618.5 579.788085938 621.5 571.387695312 c 128,-1,21
 624.5 562.98828125 624.5 562.98828125 622.099609375 544.98828125 c 0,22,23
 618.5 514.98828125 618.5 514.98828125 613.700195312 504.1875 c 0,24,25
 612.5 500.587890625 612.5 500.587890625 613.099609375 497.587890625 c 128,-1,26
 613.700195312 494.587890625 613.700195312 494.587890625 619.099609375 492.1875 c 128,-1,27
 624.5 489.788085938 624.5 489.788085938 634.099609375 487.387695312 c 128,-1,28
 643.700195312 484.98828125 643.700195312 484.98828125 659.299804688 482.587890625 c 0,29,30
 740.900390625 465.788085938 740.900390625 465.788085938 784.700195312 408.1875 c 128,-1,31
 828.5 350.587890625 828.5 350.587890625 828.5 260.587890625 c 0,32,33
 828.5 216.1875 828.5 216.1875 811.700195312 172.98828125 c 128,-1,34
 794.900390625 129.788085938 794.900390625 129.788085938 768.5 102.1875 c 0,35,36
 743.299804688 76.98828125 743.299804688 76.98828125 721.099609375 64.3876953125 c 128,-1,37
 698.900390625 51.7880859375 698.900390625 51.7880859375 656.900390625 42.1875 c 0,38,39
 629.299804688 36.1875 629.299804688 36.1875 613.099609375 36.7880859375 c 128,-1,40
 596.900390625 37.3876953125 596.900390625 37.3876953125 565.700195312 45.7880859375 c 0,41,42
 504.5 62.587890625 504.5 62.587890625 464.900390625 104.587890625 c 128,-1,43
 425.299804688 146.587890625 425.299804688 146.587890625 415.700195312 206.587890625 c 0,44,45
 409.700195312 237.788085938 409.700195312 237.788085938 400.700195312 237.788085938 c 128,-1,46
 391.700195312 237.788085938 391.700195312 237.788085938 346.099609375 182.587890625 c 0,47,48
 310.099609375 139.387695312 310.099609375 139.387695312 289.700195312 126.1875 c 128,-1,49
 269.299804688 112.98828125 269.299804688 112.98828125 246.5 119.587890625 c 128,-1,50
 223.700195312 126.1875 223.700195312 126.1875 182.900390625 158.587890625 c 0,51,52
 131.299804688 196.98828125 131.299804688 196.98828125 125.900390625 224.587890625 c 128,-1,53
 120.5 252.1875 120.5 252.1875 154.099609375 294.1875 c 0,54,55
 176.900390625 322.98828125 176.900390625 322.98828125 176.900390625 326.587890625 c 128,-1,56
 176.900390625 330.1875 176.900390625 330.1875 131.299804688 334.98828125 c 0,57,58
 76.099609375 339.788085938 76.099609375 339.788085938 34.099609375 366.788085938 c 128,-1,59
 -7.900390625 393.788085938 -7.900390625 393.788085938 -30.7001953125 439.98828125 c 128,-1,60
 -53.5 486.1875 -53.5 486.1875 -53.5 543.788085938 c 0,61,62
 -53.5 621.788085938 -53.5 621.788085938 -17.5 679.387695312 c 128,-1,63
 18.5 736.98828125 18.5 736.98828125 83.2998046875 762.1875 c 0,0,1
EndSplineSet
Validated: 524321
EndChar

StartChar: ampersand
Encoding: 38 38 9
Width: 1019
Flags: W
LayerCount: 2
Fore
SplineSet
10 -69.5 m 128,-1,1
 10 -63 10 -63 510 -63 c 128,-1,2
 1010 -63 1010 -63 1010 -69.5 c 128,-1,3
 1010 -76 1010 -76 510 -76 c 128,-1,0
 10 -76 10 -76 10 -69.5 c 128,-1,1
EndSplineSet
Validated: 1
EndChar

StartChar: parenleft
Encoding: 40 40 10
Width: 410
VWidth: 1066
Flags: W
LayerCount: 2
Fore
SplineSet
262.713867188 732.625976562 m 0,0,1
 340.713867188 760.225585938 340.713867188 760.225585938 371.314453125 732.026367188 c 128,-1,2
 401.9140625 703.826171875 401.9140625 703.826171875 399.514648438 607.826171875 c 2,3,-1
 397.114257812 540.625976562 l 1,4,-1
 369.514648438 523.826171875 l 2,5,6
 305.9140625 483.026367188 305.9140625 483.026367188 282.514648438 443.42578125 c 128,-1,7
 259.114257812 403.826171875 259.114257812 403.826171875 257.9140625 336.625976562 c 0,8,9
 256.713867188 287.42578125 256.713867188 287.42578125 266.314453125 267.026367188 c 128,-1,10
 275.9140625 246.625976562 275.9140625 246.625976562 308.314453125 225.026367188 c 0,11,12
 340.713867188 204.625976562 340.713867188 204.625976562 347.314453125 181.225585938 c 128,-1,13
 353.9140625 157.826171875 353.9140625 157.826171875 341.9140625 100.225585938 c 0,14,15
 326.314453125 25.826171875 326.314453125 25.826171875 303.514648438 4.826171875 c 128,-1,16
 280.713867188 -16.173828125 280.713867188 -16.173828125 230.314453125 -4.173828125 c 0,17,18
 87.5146484375 31.826171875 87.5146484375 31.826171875 23.9140625 154.225585938 c 128,-1,19
 -39.685546875 276.625976562 -39.685546875 276.625976562 1.1142578125 437.42578125 c 0,20,21
 19.1142578125 507.026367188 19.1142578125 507.026367188 56.314453125 566.42578125 c 128,-1,22
 93.5146484375 625.826171875 93.5146484375 625.826171875 146.314453125 669.026367188 c 128,-1,23
 199.114257812 712.225585938 199.114257812 712.225585938 262.713867188 732.625976562 c 0,0,1
EndSplineSet
Validated: 524321
EndChar

StartChar: parenright
Encoding: 41 41 11
Width: 398
VWidth: 1066
Flags: W
LayerCount: 2
Fore
SplineSet
59.818359375 727.869140625 m 0,0,1
 75.41796875 742.26953125 75.41796875 742.26953125 85.0185546875 745.26953125 c 128,-1,2
 94.6181640625 748.26953125 94.6181640625 748.26953125 118.618164062 744.668945312 c 0,3,4
 175.018554688 737.46875 175.018554688 737.46875 234.41796875 696.668945312 c 128,-1,5
 293.818359375 655.869140625 293.818359375 655.869140625 331.018554688 600.668945312 c 0,6,7
 394.618164062 504.668945312 394.618164062 504.668945312 386.21875 365.46875 c 128,-1,8
 377.818359375 226.26953125 377.818359375 226.26953125 302.21875 126.668945312 c 0,9,10
 256.618164062 66.6689453125 256.618164062 66.6689453125 165.41796875 22.26953125 c 128,-1,11
 74.21875 -22.130859375 74.21875 -22.130859375 32.21875 -4.130859375 c 0,12,13
 -13.3818359375 15.0693359375 -13.3818359375 15.0693359375 -13.3818359375 112.26953125 c 0,14,15
 -13.3818359375 162.668945312 -13.3818359375 162.668945312 -1.9814453125 189.069335938 c 128,-1,16
 9.41796875 215.46875 9.41796875 215.46875 37.0185546875 226.26953125 c 0,17,18
 97.0185546875 251.46875 97.0185546875 251.46875 112.618164062 329.46875 c 0,19,20
 124.618164062 387.069335938 124.618164062 387.069335938 109.018554688 439.26953125 c 128,-1,21
 93.41796875 491.46875 93.41796875 491.46875 58.6181640625 509.46875 c 0,22,23
 20.21875 528.668945312 20.21875 528.668945312 13.0185546875 556.26953125 c 128,-1,24
 5.818359375 583.869140625 5.818359375 583.869140625 22.6181640625 652.26953125 c 0,25,26
 35.818359375 706.26953125 35.818359375 706.26953125 59.818359375 727.869140625 c 0,0,1
EndSplineSet
Validated: 524321
EndChar

StartChar: asterisk
Encoding: 42 42 12
Width: 517
VWidth: 1074
Flags: W
LayerCount: 2
Fore
SplineSet
173.859375 597.966796875 m 0,0,1
 185.859375 609.966796875 185.859375 609.966796875 199.059570312 612.366210938 c 128,-1,2
 212.258789062 614.766601562 212.258789062 614.766601562 265.059570312 613.56640625 c 0,3,4
 289.059570312 612.366210938 289.059570312 612.366210938 300.458984375 611.766601562 c 128,-1,5
 311.859375 611.166992188 311.859375 611.166992188 322.659179688 609.966796875 c 128,-1,6
 333.458984375 608.766601562 333.458984375 608.766601562 338.258789062 605.166992188 c 128,-1,7
 343.059570312 601.56640625 343.059570312 601.56640625 347.258789062 597.966796875 c 128,-1,8
 351.458984375 594.366210938 351.458984375 594.366210938 358.659179688 585.966796875 c 0,9,10
 380.258789062 559.56640625 380.258789062 559.56640625 394.659179688 559.56640625 c 0,11,12
 412.659179688 559.56640625 412.659179688 559.56640625 428.859375 545.766601562 c 128,-1,13
 445.059570312 531.966796875 445.059570312 531.966796875 471.458984375 494.766601562 c 0,14,15
 509.859375 437.166992188 509.859375 437.166992188 505.059570312 406.56640625 c 128,-1,16
 500.258789062 375.966796875 500.258789062 375.966796875 446.258789062 338.766601562 c 2,17,-1
 425.859375 325.56640625 l 1,18,-1
 464.258789062 290.766601562 l 2,19,20
 502.659179688 254.766601562 502.659179688 254.766601562 502.059570312 228.366210938 c 128,-1,21
 501.458984375 201.966796875 501.458984375 201.966796875 461.859375 149.166992188 c 0,22,23
 429.458984375 107.166992188 429.458984375 107.166992188 407.859375 95.7666015625 c 128,-1,24
 386.258789062 84.3662109375 386.258789062 84.3662109375 358.659179688 95.1669921875 c 0,25,26
 343.059570312 101.166992188 343.059570312 101.166992188 338.258789062 99.3662109375 c 128,-1,27
 333.458984375 97.56640625 333.458984375 97.56640625 326.258789062 83.1669921875 c 0,28,29
 316.659179688 61.56640625 316.659179688 61.56640625 293.859375 51.966796875 c 128,-1,30
 271.059570312 42.3662109375 271.059570312 42.3662109375 229.059570312 42.3662109375 c 0,31,32
 140.258789062 42.3662109375 140.258789062 42.3662109375 119.859375 81.966796875 c 0,33,34
 107.859375 104.766601562 107.859375 104.766601562 89.859375 104.766601562 c 0,35,36
 59.859375 104.766601562 59.859375 104.766601562 21.458984375 149.766601562 c 128,-1,37
 -16.9404296875 194.766601562 -16.9404296875 194.766601562 -16.9404296875 230.766601562 c 0,38,39
 -16.9404296875 249.966796875 -16.9404296875 249.966796875 -10.9404296875 260.166992188 c 128,-1,40
 -4.9404296875 270.366210938 -4.9404296875 270.366210938 14.2587890625 285.966796875 c 0,41,42
 45.458984375 312.366210938 45.458984375 312.366210938 45.458984375 318.366210938 c 0,43,44
 45.458984375 325.56640625 45.458984375 325.56640625 10.6591796875 357.966796875 c 0,45,46
 -22.9404296875 391.56640625 -22.9404296875 391.56640625 -24.140625 415.56640625 c 128,-1,47
 -25.3408203125 439.56640625 -25.3408203125 439.56640625 7.0595703125 486.366210938 c 256,48,49
 39.458984375 533.166992188 39.458984375 533.166992188 52.6591796875 542.766601562 c 0,50,51
 63.458984375 551.166992188 63.458984375 551.166992188 93.458984375 551.766601562 c 128,-1,52
 123.458984375 552.366210938 123.458984375 552.366210938 128.258789062 543.966796875 c 0,53,54
 134.258789062 533.166992188 134.258789062 533.166992188 140.859375 537.366210938 c 128,-1,55
 147.458984375 541.56640625 147.458984375 541.56640625 152.258789062 558.366210938 c 0,56,57
 155.859375 579.966796875 155.859375 579.966796875 173.859375 597.966796875 c 0,0,1
EndSplineSet
Validated: 524321
EndChar

StartChar: plus
Encoding: 43 43 13
Width: 426
VWidth: 1063
Flags: W
LayerCount: 2
Fore
SplineSet
101.575195312 525.200195312 m 0,0,1
 108.774414062 550.400390625 108.774414062 550.400390625 115.974609375 563.599609375 c 128,-1,2
 123.174804688 576.799804688 123.174804688 576.799804688 137.575195312 584.599609375 c 128,-1,3
 151.974609375 592.400390625 151.974609375 592.400390625 168.774414062 594.200195312 c 128,-1,4
 185.575195312 596 185.575195312 596 219.174804688 596 c 0,5,6
 270.774414062 596 270.774414062 596 294.174804688 581.599609375 c 128,-1,7
 317.575195312 567.200195312 317.575195312 567.200195312 323.575195312 530 c 0,8,9
 325.974609375 509.599609375 325.974609375 509.599609375 331.375 503 c 128,-1,10
 336.774414062 496.400390625 336.774414062 496.400390625 354.774414062 492.799804688 c 0,11,12
 396.774414062 482 396.774414062 482 409.375 452 c 128,-1,13
 421.974609375 422 421.974609375 422 411.174804688 359.599609375 c 0,14,15
 402.774414062 316.400390625 402.774414062 316.400390625 386.575195312 296 c 128,-1,16
 370.375 275.599609375 370.375 275.599609375 336.774414062 269.599609375 c 0,17,18
 321.174804688 266 321.174804688 266 314.575195312 262.400390625 c 128,-1,19
 307.974609375 258.799804688 307.974609375 258.799804688 304.375 251.599609375 c 128,-1,20
 300.774414062 244.400390625 300.774414062 244.400390625 294.774414062 226.400390625 c 0,21,22
 285.174804688 190.400390625 285.174804688 190.400390625 267.174804688 177.200195312 c 256,23,24
 249.174804688 164 249.174804688 164 186.774414062 164 c 128,-1,25
 124.375 164 124.375 164 106.375 177.200195312 c 0,26,27
 97.974609375 183.200195312 97.974609375 183.200195312 89.5751953125 197.599609375 c 128,-1,28
 81.1748046875 212 81.1748046875 212 76.974609375 227.599609375 c 128,-1,29
 72.7744140625 243.200195312 72.7744140625 243.200195312 73.974609375 251.599609375 c 0,30,31
 75.1748046875 256.400390625 75.1748046875 256.400390625 67.375 261.200195312 c 128,-1,32
 59.5751953125 266 59.5751953125 266 46.375 268.400390625 c 0,33,34
 0.7744140625 279.200195312 0.7744140625 279.200195312 -10.625 303.200195312 c 128,-1,35
 -22.025390625 327.200195312 -22.025390625 327.200195312 -8.8251953125 387.200195312 c 0,36,37
 0.7744140625 435.200195312 0.7744140625 435.200195312 17.5751953125 457.400390625 c 128,-1,38
 34.375 479.599609375 34.375 479.599609375 65.5751953125 485.599609375 c 0,39,40
 77.5751953125 488 77.5751953125 488 83.5751953125 491.599609375 c 128,-1,41
 89.5751953125 495.200195312 89.5751953125 495.200195312 93.1748046875 502.400390625 c 128,-1,42
 96.7744140625 509.599609375 96.7744140625 509.599609375 101.575195312 525.200195312 c 0,0,1
EndSplineSet
Validated: 524321
EndChar

StartChar: comma
Encoding: 44 44 14
Width: 286
VWidth: 1107
Flags: W
LayerCount: 2
Fore
SplineSet
53.27734375 342.631835938 m 0,0,1
 70.0771484375 349.83203125 70.0771484375 349.83203125 151.677734375 347.431640625 c 0,2,3
 205.677734375 346.232421875 205.677734375 346.232421875 224.27734375 343.232421875 c 128,-1,4
 242.877929688 340.232421875 242.877929688 340.232421875 252.477539062 330.631835938 c 0,5,6
 284.877929688 300.631835938 284.877929688 300.631835938 269.27734375 197.431640625 c 0,7,8
 263.27734375 145.83203125 263.27734375 145.83203125 241.677734375 103.232421875 c 128,-1,9
 220.077148438 60.6318359375 220.077148438 60.6318359375 178.077148438 15.0322265625 c 0,10,11
 149.27734375 -14.9677734375 149.27734375 -14.9677734375 128.27734375 -17.9677734375 c 128,-1,12
 107.27734375 -20.9677734375 107.27734375 -20.9677734375 66.4775390625 -0.568359375 c 128,-1,13
 25.677734375 19.83203125 25.677734375 19.83203125 13.0771484375 37.232421875 c 128,-1,14
 0.4775390625 54.6318359375 0.4775390625 54.6318359375 4.0771484375 83.431640625 c 0,15,16
 8.8779296875 115.83203125 8.8779296875 115.83203125 0.4775390625 138.631835938 c 0,17,18
 -6.72265625 163.83203125 -6.72265625 163.83203125 0.4775390625 232.232421875 c 0,19,20
 6.4775390625 286.232421875 6.4775390625 286.232421875 17.27734375 308.431640625 c 128,-1,21
 28.0771484375 330.631835938 28.0771484375 330.631835938 53.27734375 342.631835938 c 0,0,1
EndSplineSet
Validated: 524321
EndChar

StartChar: hyphen
Encoding: 45 45 15
Width: 433
VWidth: 1063
Flags: W
LayerCount: 2
Fore
SplineSet
190.986328125 494.545898438 m 0,0,1
 300.186523438 500.545898438 300.186523438 500.545898438 331.385742188 499.9453125 c 128,-1,2
 362.5859375 499.345703125 362.5859375 499.345703125 382.986328125 493.345703125 c 0,3,4
 420.186523438 480.145507812 420.186523438 480.145507812 422.5859375 444.745117188 c 128,-1,5
 424.986328125 409.345703125 424.986328125 409.345703125 392.5859375 344.545898438 c 0,6,7
 363.786132812 285.745117188 363.786132812 285.745117188 344.5859375 276.145507812 c 256,8,9
 325.385742188 266.545898438 325.385742188 266.545898438 181.385742188 266.545898438 c 0,10,11
 88.986328125 266.545898438 88.986328125 266.545898438 50.5859375 271.345703125 c 128,-1,12
 12.1865234375 276.145507812 12.1865234375 276.145507812 -2.2138671875 288.745117188 c 128,-1,13
 -16.6142578125 301.345703125 -16.6142578125 301.345703125 -16.6142578125 332.545898438 c 0,14,15
 -16.6142578125 355.345703125 -16.6142578125 355.345703125 22.3857421875 409.9453125 c 128,-1,16
 61.3857421875 464.545898438 61.3857421875 464.545898438 88.986328125 480.145507812 c 0,17,18
 104.5859375 488.545898438 104.5859375 488.545898438 190.986328125 494.545898438 c 0,0,1
EndSplineSet
Validated: 524321
EndChar

StartChar: period
Encoding: 46 46 16
Width: 278
VWidth: 1098
Flags: W
LayerCount: 2
Fore
SplineSet
44.2998046875 332.666992188 m 0,0,1
 59.900390625 339.866210938 59.900390625 339.866210938 143.900390625 339.866210938 c 0,2,3
 197.900390625 339.866210938 197.900390625 339.866210938 215.900390625 337.466796875 c 128,-1,4
 233.900390625 335.06640625 233.900390625 335.06640625 247.700195312 324.266601562 c 128,-1,5
 261.5 313.466796875 261.5 313.466796875 264.5 302.666992188 c 128,-1,6
 267.5 291.866210938 267.5 291.866210938 267.5 259.466796875 c 0,7,8
 267.5 223.466796875 267.5 223.466796875 263.900390625 190.466796875 c 128,-1,9
 260.299804688 157.466796875 260.299804688 157.466796875 253.099609375 134.06640625 c 128,-1,10
 245.900390625 110.666992188 245.900390625 110.666992188 236.299804688 102.266601562 c 0,11,12
 226.700195312 92.6669921875 226.700195312 92.6669921875 208.099609375 88.466796875 c 128,-1,13
 189.5 84.2666015625 189.5 84.2666015625 141.5 80.6669921875 c 0,14,15
 111.5 75.8662109375 111.5 75.8662109375 89.900390625 78.2666015625 c 128,-1,16
 68.2998046875 80.6669921875 68.2998046875 80.6669921875 52.099609375 81.2666015625 c 128,-1,17
 35.900390625 81.8662109375 35.900390625 81.8662109375 25.099609375 90.2666015625 c 128,-1,18
 14.2998046875 98.6669921875 14.2998046875 98.6669921875 8.2998046875 107.666992188 c 128,-1,19
 2.2998046875 116.666992188 2.2998046875 116.666992188 -0.099609375 134.666992188 c 128,-1,20
 -2.5 152.666992188 -2.5 152.666992188 -2.5 173.06640625 c 128,-1,21
 -2.5 193.466796875 -2.5 193.466796875 1.099609375 224.666992188 c 0,22,23
 4.7001953125 282.266601562 4.7001953125 282.266601562 13.099609375 303.266601562 c 128,-1,24
 21.5 324.266601562 21.5 324.266601562 44.2998046875 332.666992188 c 0,0,1
EndSplineSet
Validated: 524321
EndChar

StartChar: slash
Encoding: 47 47 17
Width: 441
VWidth: 1059
Flags: W
LayerCount: 2
Fore
SplineSet
269.5 749.647460938 m 0,0,1
 271.900390625 750.84765625 271.900390625 750.84765625 277.900390625 753.247070312 c 0,2,3
 286.299804688 755.647460938 286.299804688 755.647460938 286.299804688 755.647460938 c 2,4,5
 287.5 756.84765625 287.5 756.84765625 348.700195312 731.647460938 c 0,6,7
 399.099609375 712.447265625 399.099609375 712.447265625 414.700195312 699.247070312 c 128,-1,8
 430.299804688 686.047851562 430.299804688 686.047851562 430.299804688 662.047851562 c 0,9,10
 430.299804688 650.047851562 430.299804688 650.047851562 365.5 503.047851562 c 128,-1,11
 300.700195312 356.047851562 300.700195312 356.047851562 233.5 211.447265625 c 128,-1,12
 166.299804688 66.84765625 166.299804688 66.84765625 157.900390625 60.84765625 c 0,13,14
 127.900390625 38.0478515625 127.900390625 38.0478515625 49.900390625 72.84765625 c 0,15,16
 12.7001953125 90.84765625 12.7001953125 90.84765625 -2.2998046875 105.84765625 c 128,-1,17
 -17.2998046875 120.84765625 -17.2998046875 120.84765625 -17.2998046875 143.647460938 c 0,18,19
 -17.2998046875 159.247070312 -17.2998046875 159.247070312 61.900390625 333.247070312 c 0,20,21
 153.099609375 538.447265625 153.099609375 538.447265625 184.299804688 611.647460938 c 0,22,23
 208.299804688 666.84765625 208.299804688 666.84765625 221.5 692.647460938 c 128,-1,24
 234.700195312 718.447265625 234.700195312 718.447265625 244.900390625 731.047851562 c 128,-1,25
 255.099609375 743.647460938 255.099609375 743.647460938 269.5 749.647460938 c 0,0,1
EndSplineSet
Validated: 524321
EndChar

StartChar: zero
Encoding: 48 48 18
Width: 647
VWidth: 1061
Flags: W
LayerCount: 2
Fore
SplineSet
217.018554688 731.640625 m 0,0,1
 309.41796875 755.640625 309.41796875 755.640625 407.818359375 728.640625 c 128,-1,2
 506.217773438 701.640625 506.217773438 701.640625 557.818359375 636.840820312 c 0,3,4
 611.818359375 567.240234375 611.818359375 567.240234375 629.818359375 480.240234375 c 128,-1,5
 647.818359375 393.240234375 647.818359375 393.240234375 626.217773438 304.440429688 c 0,6,7
 574.618164062 93.240234375 574.618164062 93.240234375 361.018554688 47.640625 c 0,8,9
 267.41796875 28.4404296875 267.41796875 28.4404296875 175.018554688 62.041015625 c 128,-1,10
 82.6181640625 95.640625 82.6181640625 95.640625 26.2177734375 168.840820312 c 0,11,12
 -36.181640625 252.840820312 -36.181640625 252.840820312 -36.181640625 377.640625 c 0,13,14
 -36.181640625 513.240234375 -36.181640625 513.240234375 30.41796875 606.240234375 c 128,-1,15
 97.0185546875 699.240234375 97.0185546875 699.240234375 217.018554688 731.640625 c 0,0,1
345.41796875 495.240234375 m 0,16,17
 331.018554688 516.840820312 331.018554688 516.840820312 305.217773438 516.840820312 c 128,-1,18
 279.41796875 516.840820312 279.41796875 516.840820312 262.618164062 495.240234375 c 0,19,20
 241.018554688 467.640625 241.018554688 467.640625 239.217773438 395.640625 c 128,-1,21
 237.41796875 323.640625 237.41796875 323.640625 256.618164062 292.440429688 c 0,22,23
 268.618164062 274.440429688 268.618164062 274.440429688 294.41796875 272.640625 c 128,-1,24
 320.217773438 270.840820312 320.217773438 270.840820312 333.41796875 286.440429688 c 0,25,26
 358.618164062 314.041015625 358.618164062 314.041015625 362.818359375 388.440429688 c 128,-1,27
 367.018554688 462.840820312 367.018554688 462.840820312 345.41796875 495.240234375 c 0,16,17
EndSplineSet
Validated: 524321
EndChar

StartChar: one
Encoding: 49 49 19
Width: 298
VWidth: 1061
Flags: W
LayerCount: 2
Fore
SplineSet
169.6484375 714.768554688 m 0,0,1
 205.6484375 723.16796875 205.6484375 723.16796875 221.248046875 726.768554688 c 0,2,3
 233.248046875 727.967773438 233.248046875 727.967773438 252.448242188 714.768554688 c 128,-1,4
 271.6484375 701.568359375 271.6484375 701.568359375 280.047851562 687.16796875 c 0,5,6
 287.248046875 672.768554688 287.248046875 672.768554688 287.248046875 626.568359375 c 128,-1,7
 287.248046875 580.368164062 287.248046875 580.368164062 278.84765625 419.568359375 c 0,8,9
 268.047851562 178.368164062 268.047851562 178.368164062 262.047851562 154.368164062 c 0,10,11
 257.248046875 127.967773438 257.248046875 127.967773438 230.84765625 111.16796875 c 128,-1,12
 204.448242188 94.3681640625 204.448242188 94.3681640625 142.047851562 75.16796875 c 0,13,14
 88.0478515625 59.568359375 88.0478515625 59.568359375 71.84765625 57.7685546875 c 128,-1,15
 55.6484375 55.9677734375 55.6484375 55.9677734375 37.6484375 64.3681640625 c 0,16,17
 1.6484375 77.568359375 1.6484375 77.568359375 -2.5517578125 120.16796875 c 128,-1,18
 -6.751953125 162.768554688 -6.751953125 162.768554688 4.0478515625 375.16796875 c 0,19,20
 17.248046875 629.568359375 17.248046875 629.568359375 28.0478515625 653.568359375 c 0,21,22
 36.4482421875 673.967773438 36.4482421875 673.967773438 58.6484375 683.568359375 c 128,-1,23
 80.84765625 693.16796875 80.84765625 693.16796875 169.6484375 714.768554688 c 0,0,1
EndSplineSet
Validated: 524321
EndChar

StartChar: two
Encoding: 50 50 20
Width: 482
VWidth: 1059
Flags: W
LayerCount: 2
Fore
SplineSet
146.805664062 728.547851562 m 0,0,1
 245.206054688 752.547851562 245.206054688 752.547851562 318.40625 726.147460938 c 0,2,3
 355.606445312 711.748046875 355.606445312 711.748046875 385.606445312 685.34765625 c 128,-1,4
 415.606445312 658.947265625 415.606445312 658.947265625 433.606445312 624.748046875 c 128,-1,5
 451.606445312 590.547851562 451.606445312 590.547851562 455.206054688 552.147460938 c 0,6,7
 458.805664062 517.34765625 458.805664062 517.34765625 447.40625 484.34765625 c 128,-1,8
 436.005859375 451.34765625 436.005859375 451.34765625 400.005859375 390.147460938 c 0,9,10
 362.805664062 325.34765625 362.805664062 325.34765625 362.805664062 319.34765625 c 0,11,12
 362.805664062 310.947265625 362.805664062 310.947265625 402.40625 308.547851562 c 0,13,14
 462.40625 302.547851562 462.40625 302.547851562 470.805664062 268.34765625 c 128,-1,15
 479.206054688 234.147460938 479.206054688 234.147460938 439.606445312 159.748046875 c 0,16,17
 437.206054688 154.947265625 437.206054688 154.947265625 432.40625 145.34765625 c 0,18,19
 419.206054688 120.147460938 419.206054688 120.147460938 413.805664062 109.947265625 c 128,-1,20
 408.40625 99.748046875 408.40625 99.748046875 394.606445312 87.748046875 c 128,-1,21
 380.805664062 75.748046875 380.805664062 75.748046875 374.206054688 72.748046875 c 128,-1,22
 367.606445312 69.748046875 367.606445312 69.748046875 341.206054688 66.1474609375 c 128,-1,23
 314.805664062 62.5478515625 314.805664062 62.5478515625 295.005859375 62.5478515625 c 128,-1,24
 275.206054688 62.5478515625 275.206054688 62.5478515625 226.005859375 62.5478515625 c 0,25,26
 206.805664062 62.5478515625 206.805664062 62.5478515625 196.005859375 62.5478515625 c 2,27,-1
 24.40625 62.5478515625 l 1,28,-1
 1.6064453125 88.947265625 l 2,29,30
 -27.1943359375 121.34765625 -27.1943359375 121.34765625 -18.1943359375 152.547851562 c 128,-1,31
 -9.1943359375 183.748046875 -9.1943359375 183.748046875 52.005859375 270.147460938 c 0,32,33
 185.206054688 456.147460938 185.206054688 456.147460938 179.206054688 471.748046875 c 0,34,35
 175.606445312 482.547851562 175.606445312 482.547851562 149.206054688 481.947265625 c 128,-1,36
 122.805664062 481.34765625 122.805664062 481.34765625 103.606445312 470.547851562 c 0,37,38
 58.005859375 444.147460938 58.005859375 444.147460938 23.8056640625 469.34765625 c 128,-1,39
 -10.3935546875 494.547851562 -10.3935546875 494.547851562 -1.994140625 547.34765625 c 0,40,41
 4.005859375 582.147460938 4.005859375 582.147460938 19.6064453125 628.947265625 c 0,42,43
 29.2060546875 661.34765625 29.2060546875 661.34765625 37.005859375 673.34765625 c 128,-1,44
 44.8056640625 685.34765625 44.8056640625 685.34765625 67.6064453125 698.547851562 c 0,45,46
 103.606445312 717.748046875 103.606445312 717.748046875 146.805664062 728.547851562 c 0,0,1
EndSplineSet
Validated: 524321
EndChar

StartChar: three
Encoding: 51 51 21
Width: 474
VWidth: 1061
Flags: W
LayerCount: 2
Fore
SplineSet
111.736328125 730.596679688 m 0,0,1
 189.736328125 748.596679688 189.736328125 748.596679688 258.13671875 738.397460938 c 128,-1,2
 326.536132812 728.197265625 326.536132812 728.197265625 377.536132812 689.197265625 c 128,-1,3
 428.536132812 650.197265625 428.536132812 650.197265625 445.3359375 591.397460938 c 0,4,5
 456.13671875 555.397460938 456.13671875 555.397460938 453.736328125 529.596679688 c 128,-1,6
 451.3359375 503.796875 451.3359375 503.796875 430.936523438 458.197265625 c 2,7,-1
 415.3359375 420.997070312 l 1,8,-1
 430.936523438 392.197265625 l 2,9,10
 446.536132812 366.997070312 446.536132812 366.997070312 457.3359375 318.997070312 c 0,11,12
 463.3359375 288.997070312 463.3359375 288.997070312 462.736328125 272.796875 c 128,-1,13
 462.13671875 256.596679688 462.13671875 256.596679688 451.3359375 220.596679688 c 0,14,15
 429.736328125 149.796875 429.736328125 149.796875 378.736328125 104.197265625 c 128,-1,16
 327.736328125 58.5966796875 327.736328125 58.5966796875 255.736328125 45.3974609375 c 0,17,18
 225.736328125 39.3974609375 225.736328125 39.3974609375 205.936523438 39.9970703125 c 128,-1,19
 186.13671875 40.5966796875 186.13671875 40.5966796875 150.13671875 48.9970703125 c 0,20,21
 90.13671875 62.197265625 90.13671875 62.197265625 50.5361328125 80.197265625 c 0,22,23
 25.3359375 93.3974609375 25.3359375 93.3974609375 12.736328125 107.197265625 c 128,-1,24
 0.13671875 120.997070312 0.13671875 120.997070312 -6.4638671875 144.397460938 c 128,-1,25
 -13.0634765625 167.796875 -13.0634765625 167.796875 -16.6640625 215.796875 c 0,26,27
 -21.4638671875 261.397460938 -21.4638671875 261.397460938 -19.6640625 273.397460938 c 128,-1,28
 -17.86328125 285.397460938 -17.86328125 285.397460938 -3.4638671875 299.796875 c 0,29,30
 16.9365234375 320.197265625 16.9365234375 320.197265625 36.13671875 320.197265625 c 0,31,32
 49.3359375 320.197265625 49.3359375 320.197265625 53.5361328125 330.997070312 c 128,-1,33
 57.736328125 341.796875 57.736328125 341.796875 64.9365234375 392.197265625 c 0,34,35
 75.736328125 470.197265625 75.736328125 470.197265625 75.13671875 483.397460938 c 128,-1,36
 74.5361328125 496.596679688 74.5361328125 496.596679688 60.13671875 498.997070312 c 0,37,38
 28.9365234375 503.796875 28.9365234375 503.796875 16.9365234375 544.596679688 c 128,-1,39
 4.9365234375 585.397460938 4.9365234375 585.397460938 18.13671875 639.397460938 c 0,40,41
 24.13671875 664.596679688 24.13671875 664.596679688 35.5361328125 681.997070312 c 128,-1,42
 46.9365234375 699.397460938 46.9365234375 699.397460938 65.5361328125 710.796875 c 128,-1,43
 84.13671875 722.197265625 84.13671875 722.197265625 111.736328125 730.596679688 c 0,0,1
EndSplineSet
Validated: 524321
EndChar

StartChar: four
Encoding: 52 52 22
Width: 588
VWidth: 1060
Flags: W
LayerCount: 2
Fore
SplineSet
382.033203125 741.362304688 m 0,0,1
 452.833007812 761.762695312 452.833007812 761.762695312 487.033203125 747.962890625 c 128,-1,2
 521.233398438 734.162109375 521.233398438 734.162109375 522.43359375 686.162109375 c 0,3,4
 522.43359375 647.762695312 522.43359375 647.762695312 517.633789062 533.762695312 c 2,5,-1
 510.43359375 414.962890625 l 1,6,-1
 538.033203125 398.162109375 l 2,7,8
 569.233398438 380.162109375 569.233398438 380.162109375 575.233398438 356.762695312 c 128,-1,9
 581.233398438 333.362304688 581.233398438 333.362304688 569.233398438 275.762695312 c 0,10,11
 558.43359375 216.962890625 558.43359375 216.962890625 549.43359375 200.162109375 c 128,-1,12
 540.43359375 183.362304688 540.43359375 183.362304688 515.233398438 172.5625 c 256,13,14
 490.033203125 161.762695312 490.033203125 161.762695312 484.033203125 137.762695312 c 0,15,16
 479.233398438 113.762695312 479.233398438 113.762695312 454.633789062 97.5625 c 128,-1,17
 430.033203125 81.3623046875 430.033203125 81.3623046875 366.43359375 59.7626953125 c 0,18,19
 314.833007812 42.962890625 314.833007812 42.962890625 300.43359375 41.162109375 c 128,-1,20
 286.033203125 39.3623046875 286.033203125 39.3623046875 265.633789062 47.7626953125 c 256,21,22
 245.233398438 56.162109375 245.233398438 56.162109375 234.43359375 76.5625 c 128,-1,23
 223.633789062 96.962890625 223.633789062 96.962890625 220.033203125 137.762695312 c 0,24,25
 217.633789062 153.362304688 217.633789062 153.362304688 204.43359375 156.362304688 c 128,-1,26
 191.233398438 159.362304688 191.233398438 159.362304688 114.43359375 161.762695312 c 0,27,28
 38.8330078125 164.162109375 38.8330078125 164.162109375 21.43359375 167.762695312 c 128,-1,29
 4.033203125 171.362304688 4.033203125 171.362304688 -10.3662109375 186.962890625 c 0,30,31
 -29.56640625 206.162109375 -29.56640625 206.162109375 -29.56640625 225.962890625 c 128,-1,32
 -29.56640625 245.762695312 -29.56640625 245.762695312 -10.3662109375 284.162109375 c 128,-1,33
 8.8330078125 322.5625 8.8330078125 322.5625 66.43359375 418.5625 c 0,34,35
 157.633789062 569.762695312 157.633789062 569.762695312 184.033203125 617.762695312 c 0,36,37
 204.43359375 652.5625 204.43359375 652.5625 237.43359375 681.362304688 c 128,-1,38
 270.43359375 710.162109375 270.43359375 710.162109375 298.033203125 717.362304688 c 0,39,40
 317.233398438 722.162109375 317.233398438 722.162109375 382.033203125 741.362304688 c 0,0,1
EndSplineSet
Validated: 524321
EndChar

StartChar: five
Encoding: 53 53 23
Width: 475
VWidth: 1060
Flags: W
LayerCount: 2
Fore
SplineSet
233.950195312 741.205078125 m 0,0,1
 353.950195312 756.8046875 353.950195312 756.8046875 390.549804688 756.8046875 c 128,-1,2
 427.150390625 756.8046875 427.150390625 756.8046875 443.950195312 740.004882812 c 0,3,4
 461.950195312 723.205078125 461.950195312 723.205078125 461.349609375 697.405273438 c 128,-1,5
 460.75 671.60546875 460.75 671.60546875 442.75 609.205078125 c 0,6,7
 424.75 545.60546875 424.75 545.60546875 403.150390625 522.8046875 c 2,8,-1
 382.75 500.004882812 l 1,9,-1
 403.150390625 478.405273438 l 2,10,11
 455.950195312 422.004882812 455.950195312 422.004882812 463.75 343.405273438 c 128,-1,12
 471.549804688 264.8046875 471.549804688 264.8046875 434.950195312 194.004882812 c 128,-1,13
 398.349609375 123.205078125 398.349609375 123.205078125 328.75 87.205078125 c 0,14,15
 266.349609375 54.8046875 266.349609375 54.8046875 191.349609375 44.0048828125 c 128,-1,16
 116.349609375 33.205078125 116.349609375 33.205078125 58.75 46.4052734375 c 128,-1,17
 1.150390625 59.60546875 1.150390625 59.60546875 -14.4501953125 92.0048828125 c 0,18,19
 -21.650390625 106.405273438 -21.650390625 106.405273438 -20.4501953125 122.004882812 c 128,-1,20
 -19.25 137.60546875 -19.25 137.60546875 -7.25 178.405273438 c 0,21,22
 11.9501953125 246.8046875 11.9501953125 246.8046875 27.5498046875 261.205078125 c 128,-1,23
 43.150390625 275.60546875 43.150390625 275.60546875 106.75 279.205078125 c 0,24,25
 147.549804688 281.60546875 147.549804688 281.60546875 161.349609375 284.60546875 c 128,-1,26
 175.150390625 287.60546875 175.150390625 287.60546875 175.150390625 294.8046875 c 0,27,28
 175.150390625 305.60546875 175.150390625 305.60546875 124.75 311.60546875 c 0,29,30
 74.349609375 315.205078125 74.349609375 315.205078125 57.5498046875 324.8046875 c 0,31,32
 17.9501953125 345.205078125 17.9501953125 345.205078125 26.349609375 430.405273438 c 0,33,34
 33.5498046875 506.004882812 33.5498046875 506.004882812 50.349609375 593.004882812 c 128,-1,35
 67.150390625 680.004882812 67.150390625 680.004882812 75.5498046875 693.205078125 c 0,36,37
 87.5498046875 713.60546875 87.5498046875 713.60546875 114.549804688 721.405273438 c 128,-1,38
 141.549804688 729.205078125 141.549804688 729.205078125 233.950195312 741.205078125 c 0,0,1
EndSplineSet
Validated: 524321
EndChar

StartChar: six
Encoding: 54 54 24
Width: 540
VWidth: 1060
Flags: W
LayerCount: 2
Fore
SplineSet
228.06640625 747.211914062 m 0,0,1
 250.8671875 758.01171875 250.8671875 758.01171875 321.666992188 755.611328125 c 0,2,3
 348.06640625 754.411132812 348.06640625 754.411132812 360.666992188 753.811523438 c 128,-1,4
 373.266601562 753.211914062 373.266601562 753.211914062 383.466796875 750.211914062 c 128,-1,5
 393.666992188 747.211914062 393.666992188 747.211914062 398.466796875 743.01171875 c 128,-1,6
 403.266601562 738.811523438 403.266601562 738.811523438 409.266601562 730.411132812 c 0,7,8
 430.8671875 707.611328125 430.8671875 707.611328125 427.266601562 684.211914062 c 128,-1,9
 423.666992188 660.811523438 423.666992188 660.811523438 393.666992188 620.01171875 c 0,10,11
 357.666992188 574.411132812 357.666992188 574.411132812 357.666992188 567.211914062 c 0,12,13
 357.666992188 561.211914062 357.666992188 561.211914062 386.466796875 549.211914062 c 0,14,15
 453.666992188 520.411132812 453.666992188 520.411132812 492.06640625 457.411132812 c 128,-1,16
 530.466796875 394.411132812 530.466796875 394.411132812 529.8671875 315.811523438 c 128,-1,17
 529.266601562 237.211914062 529.266601562 237.211914062 488.466796875 166.411132812 c 0,18,19
 448.8671875 99.2119140625 448.8671875 99.2119140625 371.466796875 65.611328125 c 128,-1,20
 294.06640625 32.01171875 294.06640625 32.01171875 207.666992188 42.2119140625 c 128,-1,21
 121.266601562 52.4111328125 121.266601562 52.4111328125 60.06640625 104.01171875 c 0,22,23
 -17.93359375 168.811523438 -17.93359375 168.811523438 -25.7333984375 288.211914062 c 128,-1,24
 -33.533203125 407.611328125 -33.533203125 407.611328125 33.6669921875 513.211914062 c 0,25,26
 48.06640625 536.01171875 48.06640625 536.01171875 70.2666015625 566.01171875 c 128,-1,27
 92.466796875 596.01171875 92.466796875 596.01171875 116.466796875 625.411132812 c 128,-1,28
 140.466796875 654.811523438 140.466796875 654.811523438 163.266601562 681.811523438 c 128,-1,29
 186.06640625 708.811523438 186.06640625 708.811523438 204.06640625 726.211914062 c 128,-1,30
 222.06640625 743.611328125 222.06640625 743.611328125 228.06640625 747.211914062 c 0,0,1
EndSplineSet
Validated: 524321
EndChar

StartChar: seven
Encoding: 55 55 25
Width: 501
VWidth: 1064
Flags: W
LayerCount: 2
Fore
SplineSet
87.5712890625 723 m 0,0,1
 103.171875 730.200195312 103.171875 730.200195312 274.771484375 730.200195312 c 2,2,-1
 446.372070312 731.400390625 l 1,3,-1
 470.372070312 707.400390625 l 2,4,5
 484.771484375 691.799804688 484.771484375 691.799804688 488.372070312 682.200195312 c 128,-1,6
 491.971679688 672.599609375 491.971679688 672.599609375 489.571289062 658.200195312 c 0,7,8
 484.771484375 625.799804688 484.771484375 625.799804688 374.971679688 350.400390625 c 128,-1,9
 265.171875 75 265.171875 75 251.971679688 60.599609375 c 0,10,11
 224.372070312 30.599609375 224.372070312 30.599609375 107.971679688 19.7998046875 c 0,12,13
 80.3720703125 17.400390625 80.3720703125 17.400390625 68.3720703125 19.7998046875 c 128,-1,14
 56.3720703125 22.2001953125 56.3720703125 22.2001953125 43.171875 33 c 0,15,16
 28.771484375 43.7998046875 28.771484375 43.7998046875 23.9716796875 55.2001953125 c 128,-1,17
 19.171875 66.599609375 19.171875 66.599609375 24.5712890625 94.2001953125 c 128,-1,18
 29.9716796875 121.799804688 29.9716796875 121.799804688 43.771484375 159 c 128,-1,19
 57.5712890625 196.200195312 57.5712890625 196.200195312 87.5712890625 267 c 0,20,21
 154.771484375 429 154.771484375 429 155.971679688 438.599609375 c 0,22,23
 158.372070312 448.200195312 158.372070312 448.200195312 145.771484375 451.200195312 c 128,-1,24
 133.171875 454.200195312 133.171875 454.200195312 86.3720703125 456.599609375 c 0,25,26
 26.3720703125 460.200195312 26.3720703125 460.200195312 5.3720703125 471 c 128,-1,27
 -15.6279296875 481.799804688 -15.6279296875 481.799804688 -21.6279296875 511.799804688 c 0,28,29
 -26.4287109375 534.599609375 -26.4287109375 534.599609375 5.9716796875 606.599609375 c 0,30,31
 31.171875 663 31.171875 663 49.171875 688.799804688 c 128,-1,32
 67.171875 714.599609375 67.171875 714.599609375 87.5712890625 723 c 0,0,1
EndSplineSet
Validated: 524321
EndChar

StartChar: eight
Encoding: 56 56 26
Width: 531
VWidth: 1061
Flags: W
LayerCount: 2
Fore
SplineSet
195.284179688 731.548828125 m 0,0,1
 345.284179688 771.1484375 345.284179688 771.1484375 441.284179688 675.1484375 c 0,2,3
 526.484375 591.1484375 526.484375 591.1484375 483.284179688 475.948242188 c 2,4,-1
 467.684570312 435.1484375 l 1,5,-1
 486.884765625 406.348632812 l 2,6,7
 518.084960938 358.348632812 518.084960938 358.348632812 520.484375 294.748046875 c 128,-1,8
 522.884765625 231.1484375 522.884765625 231.1484375 494.084960938 177.1484375 c 0,9,10
 458.084960938 113.548828125 458.084960938 113.548828125 381.884765625 76.3486328125 c 128,-1,11
 305.684570312 39.1484375 305.684570312 39.1484375 218.684570312 41.548828125 c 128,-1,12
 131.684570312 43.9482421875 131.684570312 43.9482421875 69.2841796875 87.1484375 c 0,13,14
 34.484375 111.1484375 34.484375 111.1484375 15.2841796875 138.748046875 c 128,-1,15
 -3.9150390625 166.348632812 -3.9150390625 166.348632812 -17.115234375 209.548828125 c 0,16,17
 -25.515625 239.548828125 -25.515625 239.548828125 -25.515625 253.948242188 c 128,-1,18
 -25.515625 268.348632812 -25.515625 268.348632812 -15.9150390625 304.348632812 c 0,19,20
 -2.7158203125 355.948242188 -2.7158203125 355.948242188 17.6845703125 384.748046875 c 0,21,22
 33.2841796875 406.348632812 33.2841796875 406.348632812 33.884765625 414.748046875 c 128,-1,23
 34.484375 423.1484375 34.484375 423.1484375 24.884765625 453.1484375 c 0,24,25
 -12.3154296875 569.548828125 -12.3154296875 569.548828125 62.0849609375 653.548828125 c 0,26,27
 108.884765625 707.548828125 108.884765625 707.548828125 195.284179688 731.548828125 c 0,0,1
EndSplineSet
Validated: 524321
EndChar

StartChar: nine
Encoding: 57 57 27
Width: 559
VWidth: 1063
Flags: W
LayerCount: 2
Fore
SplineSet
209.502929688 729.442382812 m 0,0,1
 352.302734375 771.442382812 352.302734375 771.442382812 449.502929688 683.841796875 c 0,2,3
 541.903320312 601.041992188 541.903320312 601.041992188 548.502929688 481.041992188 c 128,-1,4
 555.102539062 361.041992188 555.102539062 361.041992188 474.703125 229.041992188 c 0,5,6
 436.302734375 164.2421875 436.302734375 164.2421875 382.302734375 98.2421875 c 128,-1,7
 328.302734375 32.2421875 328.302734375 32.2421875 311.502929688 27.4423828125 c 0,8,9
 291.102539062 22.6416015625 291.102539062 22.6416015625 243.102539062 43.0419921875 c 0,10,11
 177.102539062 70.6416015625 177.102539062 70.6416015625 163.903320312 96.4423828125 c 128,-1,12
 150.703125 122.2421875 150.703125 122.2421875 178.302734375 169.041992188 c 0,13,14
 193.903320312 196.641601562 193.903320312 196.641601562 191.502929688 202.641601562 c 128,-1,15
 189.102539062 208.641601562 189.102539062 208.641601562 157.903320312 214.641601562 c 0,16,17
 113.502929688 224.2421875 113.502929688 224.2421875 67.302734375 260.841796875 c 128,-1,18
 21.1025390625 297.442382812 21.1025390625 297.442382812 -0.4970703125 341.841796875 c 0,19,20
 -14.8974609375 369.442382812 -14.8974609375 369.442382812 -22.697265625 412.041992188 c 128,-1,21
 -30.4970703125 454.641601562 -30.4970703125 454.641601562 -26.8974609375 478.641601562 c 0,22,23
 -12.4970703125 572.2421875 -12.4970703125 572.2421875 48.703125 637.041992188 c 128,-1,24
 109.903320312 701.841796875 109.903320312 701.841796875 209.502929688 729.442382812 c 0,0,1
268.302734375 485.841796875 m 128,-1,26
 268.302734375 517.041992188 268.302734375 517.041992188 260.502929688 517.041992188 c 128,-1,27
 252.703125 517.041992188 252.703125 517.041992188 252.703125 485.841796875 c 128,-1,28
 252.703125 454.641601562 252.703125 454.641601562 260.502929688 454.641601562 c 128,-1,25
 268.302734375 454.641601562 268.302734375 454.641601562 268.302734375 485.841796875 c 128,-1,26
EndSplineSet
Validated: 524321
EndChar

StartChar: colon
Encoding: 58 58 28
Width: 286
VWidth: 1073
Flags: W
LayerCount: 2
Fore
SplineSet
52.0673828125 602.799804688 m 0,0,1
 72.466796875 613.599609375 72.466796875 613.599609375 138.466796875 613.599609375 c 0,2,3
 234.466796875 613.599609375 234.466796875 613.599609375 257.8671875 589 c 128,-1,4
 281.267578125 564.400390625 281.267578125 564.400390625 271.666992188 475.599609375 c 0,5,6
 269.267578125 448 269.267578125 448 266.267578125 430.599609375 c 128,-1,7
 263.267578125 413.200195312 263.267578125 413.200195312 258.466796875 397.599609375 c 128,-1,8
 253.666992188 382 253.666992188 382 246.466796875 374.799804688 c 128,-1,9
 239.267578125 367.599609375 239.267578125 367.599609375 227.8671875 359.799804688 c 128,-1,10
 216.466796875 352 216.466796875 352 201.466796875 351.400390625 c 128,-1,11
 186.466796875 350.799804688 186.466796875 350.799804688 164.8671875 348.400390625 c 128,-1,12
 143.267578125 346 143.267578125 346 115.666992188 348.400390625 c 0,13,14
 92.8671875 349.599609375 92.8671875 349.599609375 80.267578125 350.200195312 c 128,-1,15
 67.6669921875 350.799804688 67.6669921875 350.799804688 53.8671875 353.200195312 c 128,-1,16
 40.0673828125 355.599609375 40.0673828125 355.599609375 34.0673828125 358 c 128,-1,17
 28.0673828125 360.400390625 28.0673828125 360.400390625 20.8671875 367.599609375 c 128,-1,18
 13.6669921875 374.799804688 13.6669921875 374.799804688 11.8671875 380.799804688 c 128,-1,19
 10.0673828125 386.799804688 10.0673828125 386.799804688 7.6669921875 401.200195312 c 128,-1,20
 5.267578125 415.599609375 5.267578125 415.599609375 5.267578125 428.200195312 c 128,-1,21
 5.267578125 440.799804688 5.267578125 440.799804688 5.267578125 463.599609375 c 0,22,23
 5.267578125 527.200195312 5.267578125 527.200195312 16.0673828125 559 c 128,-1,24
 26.8671875 590.799804688 26.8671875 590.799804688 52.0673828125 602.799804688 c 0,0,1
37.6669921875 307.599609375 m 0,25,26
 55.6669921875 314.799804688 55.6669921875 314.799804688 143.267578125 314.799804688 c 0,27,28
 204.466796875 314.799804688 204.466796875 314.799804688 219.466796875 312.400390625 c 128,-1,29
 234.466796875 310 234.466796875 310 248.8671875 295.599609375 c 0,30,31
 262.067382812 281.200195312 262.067382812 281.200195312 264.466796875 268.599609375 c 128,-1,32
 266.8671875 256 266.8671875 256 265.666992188 215.200195312 c 0,33,34
 260.8671875 89.2001953125 260.8671875 89.2001953125 228.466796875 68.7998046875 c 0,35,36
 211.666992188 58 211.666992188 58 125.267578125 55.599609375 c 0,37,38
 62.8671875 53.2001953125 62.8671875 53.2001953125 47.267578125 55.599609375 c 128,-1,39
 31.6669921875 58 31.6669921875 58 17.267578125 71.2001953125 c 0,40,41
 2.8671875 85.599609375 2.8671875 85.599609375 -0.1328125 99.400390625 c 128,-1,42
 -3.1328125 113.200195312 -3.1328125 113.200195312 -3.1328125 168.400390625 c 0,43,44
 -3.1328125 290.799804688 -3.1328125 290.799804688 37.6669921875 307.599609375 c 0,25,26
EndSplineSet
Validated: 524321
EndChar

StartChar: semicolon
Encoding: 59 59 29
Width: 286
VWidth: 1082
Flags: W
LayerCount: 2
Fore
SplineSet
98.912109375 615.415039062 m 0,0,1
 170.912109375 621.415039062 170.912109375 621.415039062 190.711914062 620.815429688 c 128,-1,2
 210.51171875 620.215820312 210.51171875 620.215820312 229.711914062 614.215820312 c 0,3,4
 258.51171875 603.415039062 258.51171875 603.415039062 268.112304688 578.215820312 c 128,-1,5
 277.711914062 553.015625 277.711914062 553.015625 272.912109375 499.015625 c 0,6,7
 270.51171875 470.215820312 270.51171875 470.215820312 268.711914062 453.415039062 c 128,-1,8
 266.912109375 436.615234375 266.912109375 436.615234375 263.3125 419.815429688 c 128,-1,9
 259.711914062 403.015625 259.711914062 403.015625 256.112304688 394.615234375 c 128,-1,10
 252.51171875 386.215820312 252.51171875 386.215820312 243.51171875 377.215820312 c 128,-1,11
 234.51171875 368.215820312 234.51171875 368.215820312 226.112304688 365.215820312 c 128,-1,12
 217.711914062 362.215820312 217.711914062 362.215820312 201.51171875 359.215820312 c 128,-1,13
 185.3125 356.215820312 185.3125 356.215820312 169.112304688 356.215820312 c 128,-1,14
 152.912109375 356.215820312 152.912109375 356.215820312 126.51171875 356.215820312 c 0,15,16
 46.1123046875 356.215820312 46.1123046875 356.215820312 27.51171875 368.815429688 c 128,-1,17
 8.912109375 381.415039062 8.912109375 381.415039062 5.3125 437.815429688 c 0,18,19
 2.912109375 473.815429688 2.912109375 473.815429688 4.7119140625 504.415039062 c 128,-1,20
 6.51171875 535.015625 6.51171875 535.015625 12.51171875 558.415039062 c 128,-1,21
 18.51171875 581.815429688 18.51171875 581.815429688 26.912109375 592.615234375 c 256,22,23
 35.3125 603.415039062 35.3125 603.415039062 49.1123046875 608.215820312 c 128,-1,24
 62.912109375 613.015625 62.912109375 613.015625 98.912109375 615.415039062 c 0,0,1
46.1123046875 313.015625 m 0,25,26
 68.912109375 323.815429688 68.912109375 323.815429688 154.112304688 322.615234375 c 0,27,28
 211.711914062 321.415039062 211.711914062 321.415039062 227.912109375 318.415039062 c 128,-1,29
 244.112304688 315.415039062 244.112304688 315.415039062 256.112304688 302.215820312 c 0,30,31
 268.112304688 291.415039062 268.112304688 291.415039062 270.51171875 277.615234375 c 128,-1,32
 272.912109375 263.815429688 272.912109375 263.815429688 271.711914062 220.615234375 c 0,33,34
 270.51171875 155.815429688 270.51171875 155.815429688 259.112304688 121.015625 c 128,-1,35
 247.711914062 86.2158203125 247.711914062 86.2158203125 212.912109375 35.8154296875 c 0,36,37
 168.51171875 -28.984375 168.51171875 -28.984375 143.3125 -39.7841796875 c 128,-1,38
 118.112304688 -50.5849609375 118.112304688 -50.5849609375 67.7119140625 -25.384765625 c 0,39,40
 25.7119140625 -3.7841796875 25.7119140625 -3.7841796875 13.7119140625 13.015625 c 128,-1,41
 1.7119140625 29.8154296875 1.7119140625 29.8154296875 5.3125 61.015625 c 0,42,43
 11.3125 97.015625 11.3125 97.015625 1.7119140625 101.815429688 c 0,44,45
 -6.6875 106.615234375 -6.6875 106.615234375 -1.8876953125 183.415039062 c 128,-1,46
 2.912109375 260.215820312 2.912109375 260.215820312 12.51171875 281.815429688 c 0,47,48
 23.3125 303.415039062 23.3125 303.415039062 46.1123046875 313.015625 c 0,25,26
EndSplineSet
Validated: 524321
EndChar

StartChar: less
Encoding: 60 60 30
Width: 446
VWidth: 1073
Flags: W
LayerCount: 2
Fore
SplineSet
241.373046875 556.5 m 0,0,1
 355.373046875 597.299804688 355.373046875 597.299804688 356.573242188 598.5 c 0,2,3
 358.973632812 598.5 358.973632812 598.5 376.973632812 590.099609375 c 0,4,5
 399.7734375 582.900390625 399.7734375 582.900390625 410.573242188 558.900390625 c 128,-1,6
 421.373046875 534.900390625 421.373046875 534.900390625 428.573242188 474.900390625 c 0,7,8
 436.973632812 408.900390625 436.973632812 408.900390625 429.7734375 385.5 c 128,-1,9
 422.573242188 362.099609375 422.573242188 362.099609375 390.172851562 350.099609375 c 0,10,11
 357.7734375 336.900390625 357.7734375 336.900390625 358.973632812 332.099609375 c 0,12,13
 358.973632812 328.5 358.973632812 328.5 396.172851562 304.5 c 0,14,15
 420.172851562 288.900390625 420.172851562 288.900390625 426.7734375 279.900390625 c 128,-1,16
 433.373046875 270.900390625 433.373046875 270.900390625 435.7734375 251.700195312 c 0,17,18
 438.172851562 224.099609375 438.172851562 224.099609375 422.573242188 192.900390625 c 0,19,20
 408.172851562 165.299804688 408.172851562 165.299804688 397.373046875 131.700195312 c 0,21,22
 376.973632812 64.5 376.973632812 64.5 328.973632812 64.5 c 0,23,24
 304.973632812 64.5 304.973632812 64.5 159.7734375 147.299804688 c 128,-1,25
 14.5732421875 230.099609375 14.5732421875 230.099609375 -1.0263671875 252.900390625 c 0,26,27
 -14.2265625 273.299804688 -14.2265625 273.299804688 -16.626953125 354.900390625 c 0,28,29
 -19.0263671875 413.700195312 -19.0263671875 413.700195312 -16.626953125 428.099609375 c 128,-1,30
 -14.2265625 442.5 -14.2265625 442.5 -1.0263671875 454.5 c 0,31,32
 13.373046875 467.700195312 13.373046875 467.700195312 59.5732421875 486.900390625 c 128,-1,33
 105.7734375 506.099609375 105.7734375 506.099609375 241.373046875 556.5 c 0,0,1
EndSplineSet
Validated: 524321
EndChar

StartChar: equal
Encoding: 61 61 31
Width: 417
VWidth: 1073
Flags: W
LayerCount: 2
Fore
SplineSet
146.748046875 520.676757812 m 0,0,1
 279.948242188 527.876953125 279.948242188 527.876953125 325.547851562 524.876953125 c 128,-1,2
 371.1484375 521.876953125 371.1484375 521.876953125 387.948242188 505.076171875 c 0,3,4
 407.1484375 487.076171875 407.1484375 487.076171875 407.748046875 464.876953125 c 128,-1,5
 408.348632812 442.676757812 408.348632812 442.676757812 391.547851562 391.076171875 c 2,6,-1
 375.948242188 338.276367188 l 1,7,-1
 391.547851562 321.4765625 l 2,8,9
 405.948242188 304.676757812 405.948242188 304.676757812 407.1484375 285.4765625 c 128,-1,10
 408.348632812 266.276367188 408.348632812 266.276367188 395.1484375 221.876953125 c 0,11,12
 390.348632812 203.876953125 390.348632812 203.876953125 387.948242188 194.876953125 c 128,-1,13
 385.547851562 185.876953125 385.547851562 185.876953125 378.948242188 175.076171875 c 128,-1,14
 372.348632812 164.276367188 372.348632812 164.276367188 368.748046875 160.076171875 c 128,-1,15
 365.1484375 155.876953125 365.1484375 155.876953125 351.348632812 150.4765625 c 128,-1,16
 337.547851562 145.076171875 337.547851562 145.076171875 328.547851562 143.876953125 c 128,-1,17
 319.547851562 142.676757812 319.547851562 142.676757812 293.748046875 140.876953125 c 128,-1,18
 267.948242188 139.076171875 267.948242188 139.076171875 248.748046875 138.4765625 c 128,-1,19
 229.547851562 137.876953125 229.547851562 137.876953125 187.547851562 137.876953125 c 2,20,-1
 31.5478515625 135.4765625 l 1,21,-1
 8.748046875 158.276367188 l 2,22,23
 -15.251953125 181.076171875 -15.251953125 181.076171875 -15.251953125 196.676757812 c 0,24,25
 -15.251953125 208.676757812 -15.251953125 208.676757812 -3.8515625 246.4765625 c 128,-1,26
 7.5478515625 284.276367188 7.5478515625 284.276367188 15.9482421875 301.076171875 c 0,27,28
 21.9482421875 310.676757812 21.9482421875 310.676757812 19.5478515625 318.4765625 c 128,-1,29
 17.1484375 326.276367188 17.1484375 326.276367188 5.1484375 340.676757812 c 0,30,31
 -15.251953125 365.876953125 -15.251953125 365.876953125 -15.251953125 376.676757812 c 0,32,33
 -15.251953125 397.076171875 -15.251953125 397.076171875 -0.251953125 438.4765625 c 128,-1,34
 14.748046875 479.876953125 14.748046875 479.876953125 27.9482421875 495.4765625 c 0,35,36
 41.1484375 509.876953125 41.1484375 509.876953125 57.3486328125 513.4765625 c 128,-1,37
 73.5478515625 517.076171875 73.5478515625 517.076171875 146.748046875 520.676757812 c 0,0,1
EndSplineSet
Validated: 524321
EndChar

StartChar: greater
Encoding: 62 62 32
Width: 447
VWidth: 1073
Flags: W
LayerCount: 2
Fore
SplineSet
36.072265625 587.556640625 m 0,0,1
 56.4716796875 598.356445312 56.4716796875 598.356445312 58.8720703125 598.356445312 c 0,2,3
 69.671875 598.356445312 69.671875 598.356445312 330.072265625 498.755859375 c 0,4,5
 361.272460938 486.755859375 361.272460938 486.755859375 375.072265625 480.755859375 c 128,-1,6
 388.872070312 474.755859375 388.872070312 474.755859375 403.872070312 465.15625 c 128,-1,7
 418.872070312 455.556640625 418.872070312 455.556640625 423.072265625 450.15625 c 128,-1,8
 427.272460938 444.755859375 427.272460938 444.755859375 431.471679688 429.755859375 c 128,-1,9
 435.671875 414.755859375 435.671875 414.755859375 436.272460938 402.755859375 c 128,-1,10
 436.872070312 390.755859375 436.872070312 390.755859375 436.872070312 363.755859375 c 128,-1,11
 436.872070312 336.755859375 436.872070312 336.755859375 436.872070312 325.956054688 c 128,-1,12
 436.872070312 315.15625 436.872070312 315.15625 433.272460938 296.556640625 c 128,-1,13
 429.671875 277.956054688 429.671875 277.956054688 428.471679688 273.15625 c 128,-1,14
 427.272460938 268.356445312 427.272460938 268.356445312 414.671875 252.755859375 c 128,-1,15
 402.072265625 237.15625 402.072265625 237.15625 394.872070312 232.356445312 c 128,-1,16
 387.671875 227.556640625 387.671875 227.556640625 363.072265625 210.755859375 c 128,-1,17
 338.471679688 193.956054688 338.471679688 193.956054688 321.671875 184.356445312 c 128,-1,18
 304.872070312 174.755859375 304.872070312 174.755859375 264.072265625 150.755859375 c 0,19,20
 220.872070312 125.556640625 220.872070312 125.556640625 198.072265625 112.356445312 c 128,-1,21
 175.272460938 99.15625 175.272460938 99.15625 148.272460938 86.556640625 c 128,-1,22
 121.272460938 73.9560546875 121.272460938 73.9560546875 109.272460938 69.755859375 c 128,-1,23
 97.2724609375 65.556640625 97.2724609375 65.556640625 81.072265625 66.15625 c 128,-1,24
 64.8720703125 66.755859375 64.8720703125 66.755859375 58.8720703125 71.556640625 c 128,-1,25
 52.8720703125 76.3564453125 52.8720703125 76.3564453125 42.072265625 90.755859375 c 128,-1,26
 31.2724609375 105.15625 31.2724609375 105.15625 25.2724609375 118.956054688 c 128,-1,27
 19.2724609375 132.755859375 19.2724609375 132.755859375 8.4716796875 160.356445312 c 0,28,29
 -13.1279296875 211.956054688 -13.1279296875 211.956054688 -16.7275390625 237.755859375 c 128,-1,30
 -20.328125 263.556640625 -20.328125 263.556640625 -8.927734375 279.15625 c 128,-1,31
 2.4716796875 294.755859375 2.4716796875 294.755859375 34.8720703125 311.556640625 c 0,32,33
 51.671875 319.956054688 51.671875 319.956054688 56.4716796875 325.956054688 c 128,-1,34
 61.2724609375 331.956054688 61.2724609375 331.956054688 55.2724609375 336.755859375 c 128,-1,35
 49.2724609375 341.556640625 49.2724609375 341.556640625 32.4716796875 347.556640625 c 0,36,37
 -1.1279296875 358.356445312 -1.1279296875 358.356445312 -9.5283203125 383.556640625 c 128,-1,38
 -17.927734375 408.755859375 -17.927734375 408.755859375 -10.7275390625 469.956054688 c 0,39,40
 -3.5283203125 529.956054688 -3.5283203125 529.956054688 6.072265625 553.956054688 c 128,-1,41
 15.671875 577.956054688 15.671875 577.956054688 36.072265625 587.556640625 c 0,0,1
EndSplineSet
Validated: 524321
EndChar

StartChar: question
Encoding: 63 63 33
Width: 492
VWidth: 1063
Flags: W
LayerCount: 2
Fore
SplineSet
159.20703125 717.434570312 m 0,0,1
 226.407226562 735.434570312 226.407226562 735.434570312 299.006835938 716.234375 c 128,-1,2
 371.606445312 697.034179688 371.606445312 697.034179688 422.006835938 646.633789062 c 0,3,4
 555.20703125 511.034179688 555.20703125 511.034179688 390.806640625 339.434570312 c 0,5,6
 358.407226562 305.833984375 358.407226562 305.833984375 353.006835938 295.633789062 c 128,-1,7
 347.606445312 285.434570312 347.606445312 285.434570312 354.806640625 273.434570312 c 0,8,9
 363.20703125 254.234375 363.20703125 254.234375 358.407226562 183.434570312 c 0,10,11
 357.20703125 157.034179688 357.20703125 157.034179688 356.006835938 141.434570312 c 128,-1,12
 354.806640625 125.833984375 354.806640625 125.833984375 350.606445312 109.633789062 c 128,-1,13
 346.407226562 93.4345703125 346.407226562 93.4345703125 342.806640625 85.0341796875 c 128,-1,14
 339.20703125 76.6337890625 339.20703125 76.6337890625 330.806640625 68.234375 c 128,-1,15
 322.407226562 59.833984375 322.407226562 59.833984375 314.006835938 56.833984375 c 128,-1,16
 305.606445312 53.833984375 305.606445312 53.833984375 289.407226562 50.833984375 c 128,-1,17
 273.20703125 47.833984375 273.20703125 47.833984375 257.006835938 46.6337890625 c 128,-1,18
 240.806640625 45.4345703125 240.806640625 45.4345703125 214.407226562 45.4345703125 c 0,19,20
 183.20703125 44.234375 183.20703125 44.234375 165.806640625 43.6337890625 c 128,-1,21
 148.407226562 43.0341796875 148.407226562 43.0341796875 137.006835938 45.4345703125 c 128,-1,22
 125.606445312 47.833984375 125.606445312 47.833984375 120.806640625 50.833984375 c 128,-1,23
 116.006835938 53.833984375 116.006835938 53.833984375 108.806640625 61.0341796875 c 0,24,25
 96.806640625 73.0341796875 96.806640625 73.0341796875 93.806640625 88.6337890625 c 128,-1,26
 90.806640625 104.234375 90.806640625 104.234375 92.0068359375 160.633789062 c 0,27,28
 95.6064453125 244.633789062 95.6064453125 244.633789062 102.806640625 262.633789062 c 0,29,30
 110.006835938 283.034179688 110.006835938 283.034179688 98.0068359375 299.833984375 c 0,31,32
 59.6064453125 355.034179688 59.6064453125 355.034179688 148.407226562 417.434570312 c 0,33,34
 179.606445312 439.034179688 179.606445312 439.034179688 147.20703125 436.633789062 c 2,35,-1
 102.806640625 428.234375 l 2,36,37
 56.0068359375 417.434570312 56.0068359375 417.434570312 33.806640625 421.633789062 c 128,-1,38
 11.6064453125 425.833984375 11.6064453125 425.833984375 -2.79296875 449.833984375 c 0,39,40
 -27.9931640625 488.234375 -27.9931640625 488.234375 -19.5927734375 542.234375 c 128,-1,41
 -11.193359375 596.234375 -11.193359375 596.234375 26.0068359375 639.434570312 c 0,42,43
 52.4072265625 669.434570312 52.4072265625 669.434570312 82.4072265625 686.833984375 c 128,-1,44
 112.407226562 704.234375 112.407226562 704.234375 159.20703125 717.434570312 c 0,0,1
EndSplineSet
Validated: 524321
EndChar

StartChar: at
Encoding: 64 64 34
Width: 712
VWidth: 1066
Flags: W
LayerCount: 2
Fore
SplineSet
274.779296875 725.47265625 m 0,0,1
 327.579101562 742.272460938 327.579101562 742.272460938 398.978515625 738.672851562 c 128,-1,2
 470.37890625 735.072265625 470.37890625 735.072265625 515.978515625 714.672851562 c 0,3,4
 638.37890625 658.272460938 638.37890625 658.272460938 682.779296875 528.672851562 c 0,5,6
 717.579101562 425.47265625 717.579101562 425.47265625 689.978515625 321.672851562 c 128,-1,7
 662.37890625 217.873046875 662.37890625 217.873046875 586.779296875 168.672851562 c 0,8,9
 560.37890625 150.672851562 560.37890625 150.672851562 524.37890625 141.672851562 c 128,-1,10
 488.37890625 132.672851562 488.37890625 132.672851562 466.779296875 138.672851562 c 0,11,12
 452.37890625 142.272460938 452.37890625 142.272460938 446.978515625 133.873046875 c 128,-1,13
 441.579101562 125.47265625 441.579101562 125.47265625 430.779296875 83.47265625 c 0,14,15
 413.978515625 23.47265625 413.978515625 23.47265625 383.37890625 7.2724609375 c 128,-1,16
 352.779296875 -8.927734375 352.779296875 -8.927734375 272.37890625 3.072265625 c 0,17,18
 21.5791015625 36.6728515625 21.5791015625 36.6728515625 -31.220703125 225.072265625 c 0,19,20
 -44.4208984375 269.47265625 -44.4208984375 269.47265625 -41.4208984375 332.47265625 c 128,-1,21
 -38.4208984375 395.47265625 -38.4208984375 395.47265625 -21.62109375 449.47265625 c 0,22,23
 10.779296875 547.873046875 10.779296875 547.873046875 87.5791015625 619.873046875 c 128,-1,24
 164.37890625 691.873046875 164.37890625 691.873046875 274.779296875 725.47265625 c 0,0,1
EndSplineSet
Validated: 524321
EndChar

StartChar: A
Encoding: 65 65 35
Width: 609
VWidth: 1062
Flags: W
LayerCount: 2
Fore
SplineSet
265.021484375 721.872070312 m 0,0,1
 333.420898438 744.671875 333.420898438 744.671875 375.420898438 729.072265625 c 0,2,3
 394.62109375 720.671875 394.62109375 720.671875 416.821289062 672.671875 c 128,-1,4
 439.021484375 624.671875 439.021484375 624.671875 477.420898438 509.471679688 c 0,5,6
 580.62109375 187.872070312 580.62109375 187.872070312 592.62109375 175.872070312 c 0,7,8
 601.021484375 166.271484375 601.021484375 166.271484375 598.021484375 141.072265625 c 128,-1,9
 595.021484375 115.872070312 595.021484375 115.872070312 584.221679688 106.271484375 c 0,10,11
 572.221679688 95.4716796875 572.221679688 95.4716796875 491.821289062 66.671875 c 128,-1,12
 411.420898438 37.8720703125 411.420898438 37.8720703125 393.420898438 37.8720703125 c 0,13,14
 376.62109375 37.8720703125 376.62109375 37.8720703125 355.62109375 59.4716796875 c 128,-1,15
 334.62109375 81.072265625 334.62109375 81.072265625 325.021484375 109.872070312 c 2,16,-1
 311.821289062 144.671875 l 1,17,-1
 226.62109375 144.671875 l 1,18,-1
 202.62109375 97.8720703125 l 2,19,20
 179.821289062 52.271484375 179.821289062 52.271484375 158.221679688 43.8720703125 c 128,-1,21
 136.62109375 35.4716796875 136.62109375 35.4716796875 87.4208984375 53.4716796875 c 0,22,23
 39.4208984375 72.671875 39.4208984375 72.671875 10.62109375 94.271484375 c 0,24,25
 -15.7783203125 113.471679688 -15.7783203125 113.471679688 -20.5791015625 132.072265625 c 128,-1,26
 -25.37890625 150.671875 -25.37890625 150.671875 -12.1787109375 185.471679688 c 0,27,28
 -7.37890625 201.072265625 -7.37890625 201.072265625 -9.1787109375 214.271484375 c 128,-1,29
 -10.978515625 227.471679688 -10.978515625 227.471679688 -20.5791015625 255.072265625 c 0,30,31
 -60.1787109375 359.471679688 -60.1787109375 359.471679688 26.2216796875 372.671875 c 0,32,33
 57.4208984375 378.671875 57.4208984375 378.671875 64.62109375 387.072265625 c 256,34,35
 71.8212890625 395.471679688 71.8212890625 395.471679688 118.62109375 517.872070312 c 0,36,37
 119.821289062 521.471679688 119.821289062 521.471679688 122.221679688 527.471679688 c 0,38,39
 142.62109375 579.072265625 142.62109375 579.072265625 149.821289062 599.471679688 c 128,-1,40
 157.021484375 619.872070312 157.021484375 619.872070312 170.221679688 646.271484375 c 128,-1,41
 183.420898438 672.671875 183.420898438 672.671875 187.62109375 678.671875 c 128,-1,42
 191.821289062 684.671875 191.821289062 684.671875 206.221679688 696.072265625 c 128,-1,43
 220.62109375 707.471679688 220.62109375 707.471679688 229.62109375 710.471679688 c 128,-1,44
 238.62109375 713.471679688 238.62109375 713.471679688 261.420898438 720.671875 c 0,45,46
 263.821289062 721.872070312 263.821289062 721.872070312 265.021484375 721.872070312 c 0,0,1
EndSplineSet
Validated: 524321
EndChar

StartChar: B
Encoding: 66 66 36
Width: 588
VWidth: 1062
Flags: W
LayerCount: 2
Fore
SplineSet
187.600585938 720.506835938 m 0,0,1
 246.401367188 736.107421875 246.401367188 736.107421875 310.600585938 736.107421875 c 128,-1,2
 374.80078125 736.107421875 374.80078125 736.107421875 425.201171875 719.307617188 c 0,3,4
 475.600585938 704.907226562 475.600585938 704.907226562 514.000976562 669.506835938 c 128,-1,5
 552.401367188 634.107421875 552.401367188 634.107421875 563.201171875 594.506835938 c 0,6,7
 572.80078125 558.506835938 572.80078125 558.506835938 568.000976562 520.107421875 c 128,-1,8
 563.201171875 481.70703125 563.201171875 481.70703125 547.600585938 461.307617188 c 2,9,-1
 529.600585938 437.307617188 l 1,10,-1
 550.000976562 407.307617188 l 2,11,12
 574.000976562 373.70703125 574.000976562 373.70703125 577.600585938 332.907226562 c 128,-1,13
 581.201171875 292.107421875 581.201171875 292.107421875 565.600585938 251.307617188 c 128,-1,14
 550.000976562 210.506835938 550.000976562 210.506835938 520.600585938 172.70703125 c 128,-1,15
 491.201171875 134.907226562 491.201171875 134.907226562 446.80078125 104.907226562 c 128,-1,16
 402.401367188 74.9072265625 402.401367188 74.9072265625 350.80078125 58.107421875 c 0,17,18
 293.201171875 40.107421875 293.201171875 40.107421875 242.80078125 38.9072265625 c 128,-1,19
 192.401367188 37.70703125 192.401367188 37.70703125 115.600585938 53.3076171875 c 0,20,21
 46.0009765625 67.70703125 46.0009765625 67.70703125 26.201171875 85.70703125 c 128,-1,22
 6.4013671875 103.70703125 6.4013671875 103.70703125 6.4013671875 150.506835938 c 0,23,24
 6.4013671875 180.506835938 6.4013671875 180.506835938 13.0009765625 269.907226562 c 128,-1,25
 19.6005859375 359.307617188 19.6005859375 359.307617188 25.6005859375 400.107421875 c 0,26,27
 28.0009765625 419.307617188 28.0009765625 419.307617188 25.0009765625 426.506835938 c 128,-1,28
 22.0009765625 433.70703125 22.0009765625 433.70703125 6.4013671875 440.907226562 c 0,29,30
 -15.19921875 452.907226562 -15.19921875 452.907226562 -25.9990234375 476.907226562 c 0,31,32
 -31.9990234375 493.70703125 -31.9990234375 493.70703125 -29.5986328125 508.70703125 c 128,-1,33
 -27.19921875 523.70703125 -27.19921875 523.70703125 -9.19921875 570.506835938 c 0,34,35
 16.0009765625 637.70703125 16.0009765625 637.70703125 26.80078125 650.907226562 c 0,36,37
 38.80078125 664.107421875 38.80078125 664.107421875 87.4013671875 685.70703125 c 128,-1,38
 136.000976562 707.307617188 136.000976562 707.307617188 187.600585938 720.506835938 c 0,0,1
304.000976562 282.506835938 m 128,-1,40
 304.000976562 289.70703125 304.000976562 289.70703125 296.80078125 289.70703125 c 128,-1,41
 289.600585938 289.70703125 289.600585938 289.70703125 284.201171875 280.70703125 c 128,-1,42
 278.80078125 271.70703125 278.80078125 271.70703125 283.000976562 267.506835938 c 128,-1,43
 287.201171875 263.307617188 287.201171875 263.307617188 295.600585938 269.307617188 c 128,-1,39
 304.000976562 275.307617188 304.000976562 275.307617188 304.000976562 282.506835938 c 128,-1,40
EndSplineSet
Validated: 524321
EndChar

StartChar: C
Encoding: 67 67 37
Width: 548
VWidth: 1062
Flags: W
LayerCount: 2
Fore
SplineSet
210.51171875 717.079101562 m 0,0,1
 283.711914062 742.279296875 283.711914062 742.279296875 368.912109375 732.6796875 c 128,-1,2
 454.112304688 723.079101562 454.112304688 723.079101562 502.112304688 683.479492188 c 0,3,4
 520.112304688 667.87890625 520.112304688 667.87890625 524.912109375 654.079101562 c 128,-1,5
 529.711914062 640.279296875 529.711914062 640.279296875 534.51171875 588.6796875 c 0,6,7
 541.711914062 519.079101562 541.711914062 519.079101562 533.912109375 489.6796875 c 128,-1,8
 526.112304688 460.279296875 526.112304688 460.279296875 497.311523438 448.279296875 c 0,9,10
 476.912109375 439.87890625 476.912109375 439.87890625 465.51171875 442.279296875 c 128,-1,11
 454.112304688 444.6796875 454.112304688 444.6796875 413.311523438 465.079101562 c 0,12,13
 353.311523438 495.079101562 353.311523438 495.079101562 320.912109375 492.079101562 c 128,-1,14
 288.51171875 489.079101562 288.51171875 489.079101562 270.51171875 453.079101562 c 0,15,16
 254.912109375 423.079101562 254.912109375 423.079101562 255.51171875 375.6796875 c 128,-1,17
 256.112304688 328.279296875 256.112304688 328.279296875 272.912109375 306.6796875 c 0,18,19
 280.112304688 297.079101562 280.112304688 297.079101562 286.112304688 292.87890625 c 128,-1,20
 292.112304688 288.6796875 292.112304688 288.6796875 301.711914062 287.479492188 c 128,-1,21
 311.311523438 286.279296875 311.311523438 286.279296875 331.711914062 286.279296875 c 0,22,23
 377.311523438 287.479492188 377.311523438 287.479492188 410.912109375 300.6796875 c 0,24,25
 436.112304688 310.279296875 436.112304688 310.279296875 444.51171875 310.279296875 c 128,-1,26
 452.912109375 310.279296875 452.912109375 310.279296875 466.112304688 301.87890625 c 256,27,28
 479.311523438 293.479492188 479.311523438 293.479492188 485.912109375 285.6796875 c 128,-1,29
 492.51171875 277.87890625 492.51171875 277.87890625 496.711914062 264.079101562 c 128,-1,30
 500.912109375 250.279296875 500.912109375 250.279296875 500.912109375 231.079101562 c 128,-1,31
 500.912109375 211.87890625 500.912109375 211.87890625 500.912109375 181.87890625 c 0,32,33
 498.51171875 130.279296875 498.51171875 130.279296875 494.912109375 116.479492188 c 128,-1,34
 491.311523438 102.6796875 491.311523438 102.6796875 476.912109375 88.279296875 c 0,35,36
 452.912109375 69.0791015625 452.912109375 69.0791015625 398.912109375 53.4794921875 c 128,-1,37
 344.912109375 37.87890625 344.912109375 37.87890625 296.912109375 37.87890625 c 0,38,39
 154.112304688 37.87890625 154.112304688 37.87890625 63.51171875 132.6796875 c 128,-1,40
 -27.087890625 227.479492188 -27.087890625 227.479492188 -27.087890625 375.079101562 c 0,41,42
 -27.087890625 493.87890625 -27.087890625 493.87890625 37.7119140625 586.87890625 c 128,-1,43
 102.51171875 679.87890625 102.51171875 679.87890625 210.51171875 717.079101562 c 0,0,1
EndSplineSet
Validated: 524321
EndChar

StartChar: D
Encoding: 68 68 38
Width: 634
VWidth: 1062
Flags: W
LayerCount: 2
Fore
SplineSet
143.877929688 723.884765625 m 0,0,1
 203.877929688 741.884765625 203.877929688 741.884765625 303.478515625 733.484375 c 128,-1,2
 403.078125 725.083984375 403.078125 725.083984375 459.478515625 696.284179688 c 0,3,4
 487.078125 683.083984375 487.078125 683.083984375 527.877929688 645.884765625 c 128,-1,5
 568.677734375 608.684570312 568.677734375 608.684570312 584.278320312 583.484375 c 0,6,7
 640.677734375 493.484375 640.677734375 493.484375 617.278320312 371.083984375 c 128,-1,8
 593.877929688 248.684570312 593.877929688 248.684570312 505.078125 168.284179688 c 0,9,10
 425.877929688 96.2841796875 425.877929688 96.2841796875 292.677734375 60.2841796875 c 0,11,12
 226.677734375 42.2841796875 226.677734375 42.2841796875 121.677734375 41.083984375 c 128,-1,13
 16.677734375 39.884765625 16.677734375 39.884765625 -2.521484375 55.484375 c 0,14,15
 -22.921875 74.6845703125 -22.921875 74.6845703125 -22.322265625 98.6845703125 c 128,-1,16
 -21.7216796875 122.684570312 -21.7216796875 122.684570312 -0.1220703125 167.083984375 c 0,17,18
 17.8779296875 206.684570312 17.8779296875 206.684570312 23.2783203125 233.684570312 c 128,-1,19
 28.677734375 260.684570312 28.677734375 260.684570312 34.677734375 345.884765625 c 0,20,21
 43.078125 470.684570312 43.078125 470.684570312 39.478515625 476.684570312 c 256,22,23
 35.8779296875 482.684570312 35.8779296875 482.684570312 11.8779296875 488.684570312 c 0,24,25
 -20.521484375 495.884765625 -20.521484375 495.884765625 -31.322265625 530.684570312 c 128,-1,26
 -42.1220703125 565.484375 -42.1220703125 565.484375 -20.521484375 591.884765625 c 0,27,28
 8.2783203125 627.884765625 8.2783203125 627.884765625 63.478515625 671.684570312 c 128,-1,29
 118.677734375 715.484375 118.677734375 715.484375 143.877929688 723.884765625 c 0,0,1
332.278320312 465.884765625 m 0,30,31
 319.078125 494.684570312 319.078125 494.684570312 313.078125 476.684570312 c 0,32,33
 307.078125 456.284179688 307.078125 456.284179688 297.478515625 348.284179688 c 0,34,35
 296.278320312 329.083984375 296.278320312 329.083984375 295.677734375 317.684570312 c 128,-1,36
 295.078125 306.284179688 295.078125 306.284179688 295.677734375 299.684570312 c 128,-1,37
 296.278320312 293.083984375 296.278320312 293.083984375 298.078125 291.284179688 c 128,-1,38
 299.877929688 289.484375 299.877929688 289.484375 303.478515625 290.684570312 c 0,39,40
 327.478515625 297.884765625 327.478515625 297.884765625 338.278320312 363.284179688 c 128,-1,41
 349.078125 428.684570312 349.078125 428.684570312 332.278320312 465.884765625 c 0,30,31
EndSplineSet
Validated: 524321
EndChar

StartChar: E
Encoding: 69 69 39
Width: 518
VWidth: 1062
Flags: W
LayerCount: 2
Fore
SplineSet
311.713867188 729.090820312 m 0,0,1
 461.713867188 744.690429688 461.713867188 744.690429688 491.713867188 717.090820312 c 0,2,3
 526.513671875 685.890625 526.513671875 685.890625 485.713867188 583.890625 c 0,4,5
 462.9140625 528.690429688 462.9140625 528.690429688 436.513671875 510.690429688 c 0,6,7
 414.9140625 496.291015625 414.9140625 496.291015625 413.114257812 486.690429688 c 128,-1,8
 411.314453125 477.090820312 411.314453125 477.090820312 418.513671875 453.090820312 c 0,9,10
 422.114257812 442.291015625 422.114257812 442.291015625 411.314453125 406.291015625 c 128,-1,11
 400.513671875 370.291015625 400.513671875 370.291015625 384.9140625 334.890625 c 128,-1,12
 369.314453125 299.490234375 369.314453125 299.490234375 358.513671875 288.690429688 c 0,13,14
 344.114257812 273.090820312 344.114257812 273.090820312 344.114257812 270.690429688 c 256,15,16
 344.114257812 268.291015625 344.114257812 268.291015625 353.114257812 267.690429688 c 128,-1,17
 362.114257812 267.090820312 362.114257812 267.090820312 375.9140625 265.890625 c 128,-1,18
 389.713867188 264.690429688 389.713867188 264.690429688 404.713867188 263.490234375 c 128,-1,19
 419.713867188 262.291015625 419.713867188 262.291015625 433.513671875 256.890625 c 128,-1,20
 447.314453125 251.490234375 447.314453125 251.490234375 454.513671875 243.090820312 c 0,21,22
 472.513671875 221.490234375 472.513671875 221.490234375 467.713867188 193.291015625 c 128,-1,23
 462.9140625 165.090820312 462.9140625 165.090820312 430.513671875 115.890625 c 0,24,25
 416.114257812 93.0908203125 416.114257812 93.0908203125 408.9140625 82.291015625 c 128,-1,26
 401.713867188 71.490234375 401.713867188 71.490234375 387.314453125 60.0908203125 c 128,-1,27
 372.9140625 48.6904296875 372.9140625 48.6904296875 362.713867188 45.6904296875 c 128,-1,28
 352.513671875 42.6904296875 352.513671875 42.6904296875 326.713867188 40.291015625 c 128,-1,29
 300.9140625 37.890625 300.9140625 37.890625 277.513671875 38.490234375 c 128,-1,30
 254.114257812 39.0908203125 254.114257812 39.0908203125 206.114257812 40.291015625 c 0,31,32
 93.314453125 45.0908203125 93.314453125 45.0908203125 46.513671875 53.490234375 c 128,-1,33
 -0.2861328125 61.890625 -0.2861328125 61.890625 -13.486328125 79.890625 c 0,34,35
 -39.8857421875 118.291015625 -39.8857421875 118.291015625 -5.0859375 175.890625 c 0,36,37
 12.9140625 204.690429688 12.9140625 204.690429688 14.1142578125 235.291015625 c 128,-1,38
 15.314453125 265.890625 15.314453125 265.890625 -1.486328125 287.490234375 c 0,39,40
 -35.0859375 330.690429688 -35.0859375 330.690429688 6.9140625 391.890625 c 0,41,42
 53.7138671875 460.291015625 53.7138671875 460.291015625 4.513671875 501.090820312 c 0,43,44
 -21.8857421875 523.890625 -21.8857421875 523.890625 -19.486328125 551.490234375 c 128,-1,45
 -17.0859375 579.090820312 -17.0859375 579.090820312 14.1142578125 633.090820312 c 0,46,47
 30.9140625 661.890625 30.9140625 661.890625 40.513671875 675.090820312 c 128,-1,48
 50.1142578125 688.291015625 50.1142578125 688.291015625 60.9140625 699.690429688 c 128,-1,49
 71.7138671875 711.090820312 71.7138671875 711.090820312 87.314453125 714.690429688 c 128,-1,50
 102.9140625 718.291015625 102.9140625 718.291015625 119.713867188 719.490234375 c 128,-1,51
 136.513671875 720.690429688 136.513671875 720.690429688 170.114257812 721.890625 c 0,52,53
 255.314453125 723.090820312 255.314453125 723.090820312 311.713867188 729.090820312 c 0,0,1
EndSplineSet
Validated: 524321
EndChar

StartChar: F
Encoding: 70 70 40
Width: 547
VWidth: 1062
Flags: W
LayerCount: 2
Fore
SplineSet
349.8046875 728.845703125 m 0,0,1
 443.404296875 737.245117188 443.404296875 737.245117188 469.8046875 734.845703125 c 128,-1,2
 496.204101562 732.4453125 496.204101562 732.4453125 515.404296875 713.245117188 c 0,3,4
 537.004882812 691.645507812 537.004882812 691.645507812 537.004882812 669.4453125 c 128,-1,5
 537.004882812 647.245117188 537.004882812 647.245117188 514.204101562 590.845703125 c 0,6,7
 480.604492188 500.845703125 480.604492188 500.845703125 454.204101562 500.845703125 c 0,8,9
 444.604492188 500.845703125 444.604492188 500.845703125 443.404296875 493.645507812 c 128,-1,10
 442.204101562 486.4453125 442.204101562 486.4453125 450.604492188 481.645507812 c 0,11,12
 478.204101562 464.845703125 478.204101562 464.845703125 442.204101562 372.4453125 c 0,13,14
 417.004882812 308.845703125 417.004882812 308.845703125 399.004882812 290.245117188 c 128,-1,15
 381.004882812 271.645507812 381.004882812 271.645507812 339.004882812 268.045898438 c 0,16,17
 294.604492188 263.245117188 294.604492188 263.245117188 289.8046875 257.245117188 c 0,18,19
 286.204101562 250.045898438 286.204101562 250.045898438 279.004882812 185.245117188 c 0,20,21
 273.004882812 127.645507812 273.004882812 127.645507812 257.404296875 108.4453125 c 128,-1,22
 241.8046875 89.2451171875 241.8046875 89.2451171875 183.004882812 66.4453125 c 0,23,24
 130.204101562 44.845703125 130.204101562 44.845703125 105.604492188 41.2451171875 c 128,-1,25
 81.0048828125 37.6455078125 81.0048828125 37.6455078125 59.404296875 46.0458984375 c 0,26,27
 29.404296875 58.0458984375 29.404296875 58.0458984375 20.404296875 85.6455078125 c 128,-1,28
 11.404296875 113.245117188 11.404296875 113.245117188 16.2041015625 181.645507812 c 2,29,-1
 22.2041015625 259.645507812 l 1,30,-1
 -2.9951171875 282.4453125 l 2,31,32
 -28.1953125 305.245117188 -28.1953125 305.245117188 -26.9951171875 331.645507812 c 128,-1,33
 -25.7958984375 358.045898438 -25.7958984375 358.045898438 4.2041015625 402.4453125 c 0,34,35
 31.8046875 444.4453125 31.8046875 444.4453125 34.8046875 464.245117188 c 128,-1,36
 37.8046875 484.045898438 37.8046875 484.045898438 17.404296875 492.4453125 c 0,37,38
 0.6044921875 498.4453125 0.6044921875 498.4453125 -13.1953125 516.4453125 c 128,-1,39
 -26.9951171875 534.4453125 -26.9951171875 534.4453125 -26.9951171875 551.245117188 c 0,40,41
 -26.9951171875 566.845703125 -26.9951171875 566.845703125 10.2041015625 628.645507812 c 128,-1,42
 47.404296875 690.4453125 47.404296875 690.4453125 65.404296875 704.845703125 c 0,43,44
 78.6044921875 714.4453125 78.6044921875 714.4453125 99.6044921875 717.4453125 c 128,-1,45
 120.604492188 720.4453125 120.604492188 720.4453125 187.8046875 721.645507812 c 0,46,47
 292.204101562 722.845703125 292.204101562 722.845703125 349.8046875 728.845703125 c 0,0,1
EndSplineSet
Validated: 524321
EndChar

StartChar: G
Encoding: 71 71 41
Width: 616
VWidth: 1062
Flags: W
LayerCount: 2
Fore
SplineSet
221.200195312 721.838867188 m 0,0,1
 287.200195312 742.239257812 287.200195312 742.239257812 368.799804688 731.439453125 c 128,-1,2
 450.400390625 720.638671875 450.400390625 720.638671875 494.799804688 683.439453125 c 0,3,4
 514 667.838867188 514 667.838867188 518.200195312 654.638671875 c 128,-1,5
 522.400390625 641.439453125 522.400390625 641.439453125 527.200195312 591.0390625 c 0,6,7
 534.400390625 521.439453125 534.400390625 521.439453125 529.599609375 495.0390625 c 0,8,9
 526 478.239257812 526 478.239257812 528.400390625 474.0390625 c 128,-1,10
 530.799804688 469.838867188 530.799804688 469.838867188 542.799804688 469.838867188 c 0,11,12
 558.400390625 469.838867188 558.400390625 469.838867188 581.799804688 447.0390625 c 128,-1,13
 605.200195312 424.239257812 605.200195312 424.239257812 605.200195312 409.838867188 c 0,14,15
 605.200195312 384.638671875 605.200195312 384.638671875 583.599609375 321.0390625 c 128,-1,16
 562 257.439453125 562 257.439453125 547.599609375 243.0390625 c 0,17,18
 529.599609375 222.638671875 529.599609375 222.638671875 523.599609375 187.838867188 c 0,19,20
 518.799804688 151.838867188 518.799804688 151.838867188 508 136.239257812 c 128,-1,21
 497.200195312 120.638671875 497.200195312 120.638671875 461.200195312 96.638671875 c 0,22,23
 377.200195312 39.0390625 377.200195312 39.0390625 279.400390625 38.439453125 c 128,-1,24
 181.599609375 37.8388671875 181.599609375 37.8388671875 101.799804688 91.8388671875 c 128,-1,25
 22 145.838867188 22 145.838867188 -15.2001953125 239.439453125 c 0,26,27
 -33.2001953125 286.239257812 -33.2001953125 286.239257812 -33.2001953125 364.239257812 c 0,28,29
 -33.2001953125 435.0390625 -33.2001953125 435.0390625 -17.599609375 486.0390625 c 128,-1,30
 -2 537.0390625 -2 537.0390625 36.400390625 592.239257812 c 0,31,32
 73.599609375 642.638671875 73.599609375 642.638671875 114.400390625 671.439453125 c 128,-1,33
 155.200195312 700.239257812 155.200195312 700.239257812 221.200195312 721.838867188 c 0,0,1
360.400390625 489.0390625 m 0,34,35
 340 492.638671875 340 492.638671875 325.599609375 492.638671875 c 0,36,37
 310 492.638671875 310 492.638671875 284.799804688 472.838867188 c 128,-1,38
 259.599609375 453.0390625 259.599609375 453.0390625 259.599609375 439.838867188 c 0,39,40
 259.599609375 427.838867188 259.599609375 427.838867188 277.599609375 443.439453125 c 0,41,42
 278.799804688 444.638671875 278.799804688 444.638671875 280 445.838867188 c 0,43,44
 298 463.838867188 298 463.838867188 338.799804688 468.638671875 c 0,45,46
 378.400390625 472.239257812 378.400390625 472.239257812 377.200195312 479.439453125 c 0,47,48
 374.799804688 484.239257812 374.799804688 484.239257812 360.400390625 489.0390625 c 0,34,35
EndSplineSet
Validated: 524321
EndChar

StartChar: H
Encoding: 72 72 42
Width: 621
VWidth: 1062
Flags: W
LayerCount: 2
Fore
SplineSet
158.216796875 716.969726562 m 0,0,1
 218.216796875 732.5703125 218.216796875 732.5703125 239.81640625 734.370117188 c 128,-1,2
 261.416992188 736.169921875 261.416992188 736.169921875 283.016601562 728.969726562 c 0,3,4
 308.216796875 718.169921875 308.216796875 718.169921875 315.416992188 688.169921875 c 128,-1,5
 322.616210938 658.169921875 322.616210938 658.169921875 316.616210938 584.969726562 c 0,6,7
 308.216796875 499.76953125 308.216796875 499.76953125 311.81640625 494.969726562 c 0,8,9
 323.81640625 485.370117188 323.81640625 485.370117188 329.81640625 511.76953125 c 2,10,-1
 337.016601562 570.5703125 l 2,11,12
 339.416992188 594.5703125 339.416992188 594.5703125 340.616210938 608.370117188 c 128,-1,13
 341.81640625 622.169921875 341.81640625 622.169921875 345.416992188 637.76953125 c 128,-1,14
 349.016601562 653.370117188 349.016601562 653.370117188 351.416992188 660.5703125 c 128,-1,15
 353.81640625 667.76953125 353.81640625 667.76953125 362.216796875 677.370117188 c 128,-1,16
 370.616210938 686.969726562 370.616210938 686.969726562 377.81640625 690.5703125 c 128,-1,17
 385.016601562 694.169921875 385.016601562 694.169921875 400.616210938 700.76953125 c 128,-1,18
 416.216796875 707.370117188 416.216796875 707.370117188 430.016601562 710.969726562 c 128,-1,19
 443.81640625 714.5703125 443.81640625 714.5703125 469.016601562 720.5703125 c 0,20,21
 525.416992188 733.76953125 525.416992188 733.76953125 553.016601562 731.969726562 c 128,-1,22
 580.616210938 730.169921875 580.616210938 730.169921875 597.416992188 710.969726562 c 0,23,24
 607.016601562 701.370117188 607.016601562 701.370117188 609.416992188 685.169921875 c 128,-1,25
 611.81640625 668.969726562 611.81640625 668.969726562 610.616210938 623.370117188 c 0,26,27
 609.416992188 553.76953125 609.416992188 553.76953125 599.81640625 500.969726562 c 0,28,29
 598.616210938 490.169921875 598.616210938 490.169921875 588.416992188 393.5703125 c 128,-1,30
 578.216796875 296.969726562 578.216796875 296.969726562 567.416992188 209.370117188 c 128,-1,31
 556.616210938 121.76953125 556.616210938 121.76953125 550.616210938 112.169921875 c 0,32,33
 541.016601562 98.9697265625 541.016601562 98.9697265625 480.416992188 73.169921875 c 128,-1,34
 419.81640625 47.3701171875 419.81640625 47.3701171875 380.216796875 41.3701171875 c 0,35,36
 359.81640625 37.76953125 359.81640625 37.76953125 350.81640625 41.3701171875 c 128,-1,37
 341.81640625 44.9697265625 341.81640625 44.9697265625 325.016601562 60.5703125 c 2,38,-1
 301.016601562 85.76953125 l 1,39,-1
 303.416992188 169.76953125 l 2,40,41
 304.616210938 222.5703125 304.616210938 222.5703125 303.416992188 238.169921875 c 128,-1,42
 302.216796875 253.76953125 302.216796875 253.76953125 293.81640625 253.76953125 c 0,43,44
 281.81640625 253.76953125 281.81640625 253.76953125 278.216796875 210.5703125 c 0,45,46
 274.616210938 176.969726562 274.616210938 176.969726562 272.81640625 162.5703125 c 128,-1,47
 271.016601562 148.169921875 271.016601562 148.169921875 264.416992188 130.169921875 c 128,-1,48
 257.81640625 112.169921875 257.81640625 112.169921875 253.616210938 106.76953125 c 128,-1,49
 249.416992188 101.370117188 249.416992188 101.370117188 231.416992188 91.169921875 c 128,-1,50
 213.416992188 80.9697265625 213.416992188 80.9697265625 200.216796875 76.169921875 c 128,-1,51
 187.016601562 71.3701171875 187.016601562 71.3701171875 152.216796875 60.5703125 c 0,52,53
 95.81640625 41.3701171875 95.81640625 41.3701171875 82.0166015625 40.169921875 c 128,-1,54
 68.216796875 38.9697265625 68.216796875 38.9697265625 47.81640625 47.3701171875 c 0,55,56
 20.216796875 61.76953125 20.216796875 61.76953125 12.4169921875 89.3701171875 c 128,-1,57
 4.6162109375 116.969726562 4.6162109375 116.969726562 10.6162109375 182.969726562 c 2,58,-1
 15.4169921875 253.76953125 l 1,59,-1
 -10.9833984375 278.969726562 l 2,60,61
 -27.783203125 295.76953125 -27.783203125 295.76953125 -31.3837890625 304.76953125 c 128,-1,62
 -34.9833984375 313.76953125 -34.9833984375 313.76953125 -31.3837890625 330.5703125 c 0,63,64
 -27.783203125 353.370117188 -27.783203125 353.370117188 4.6162109375 402.5703125 c 0,65,66
 16.6162109375 421.76953125 16.6162109375 421.76953125 21.4169921875 430.76953125 c 128,-1,67
 26.216796875 439.76953125 26.216796875 439.76953125 31.0166015625 457.169921875 c 128,-1,68
 35.81640625 474.5703125 35.81640625 474.5703125 37.6162109375 490.76953125 c 128,-1,69
 39.4169921875 506.969726562 39.4169921875 506.969726562 43.0166015625 545.370117188 c 0,70,71
 45.4169921875 571.76953125 45.4169921875 571.76953125 46.0166015625 584.370117188 c 128,-1,72
 46.6162109375 596.969726562 46.6162109375 596.969726562 49.6162109375 615.5703125 c 128,-1,73
 52.6162109375 634.169921875 52.6162109375 634.169921875 53.81640625 640.76953125 c 128,-1,74
 55.0166015625 647.370117188 55.0166015625 647.370117188 59.81640625 659.370117188 c 128,-1,75
 64.6162109375 671.370117188 64.6162109375 671.370117188 67.0166015625 674.969726562 c 128,-1,76
 69.4169921875 678.5703125 69.4169921875 678.5703125 77.216796875 685.76953125 c 128,-1,77
 85.0166015625 692.969726562 85.0166015625 692.969726562 90.4169921875 694.76953125 c 128,-1,78
 95.81640625 696.5703125 95.81640625 696.5703125 108.416992188 701.969726562 c 128,-1,79
 121.016601562 707.370117188 121.016601562 707.370117188 130.616210938 709.76953125 c 128,-1,80
 140.216796875 712.169921875 140.216796875 712.169921875 158.216796875 716.969726562 c 0,0,1
EndSplineSet
Validated: 524321
EndChar

StartChar: I
Encoding: 73 73 43
Width: 309
VWidth: 1062
Flags: W
LayerCount: 2
Fore
SplineSet
139.860351562 717.203125 m 0,0,1
 231.059570312 741.203125 231.059570312 741.203125 264.66015625 726.803710938 c 128,-1,2
 298.259765625 712.403320312 298.259765625 712.403320312 298.259765625 647.603515625 c 0,3,4
 298.259765625 587.603515625 298.259765625 587.603515625 278.459960938 359.603515625 c 128,-1,5
 258.66015625 131.603515625 258.66015625 131.603515625 251.459960938 114.803710938 c 0,6,7
 244.259765625 95.603515625 244.259765625 95.603515625 220.259765625 84.203125 c 128,-1,8
 196.259765625 72.8037109375 196.259765625 72.8037109375 123.059570312 53.603515625 c 0,9,10
 76.259765625 40.4033203125 76.259765625 40.4033203125 61.8603515625 39.8037109375 c 128,-1,11
 47.4599609375 39.203125 47.4599609375 39.203125 33.0595703125 47.603515625 c 0,12,13
 -0.5400390625 65.603515625 -0.5400390625 65.603515625 -4.1396484375 105.203125 c 128,-1,14
 -7.740234375 144.803710938 -7.740234375 144.803710938 6.66015625 357.203125 c 0,15,16
 24.66015625 614.002929688 24.66015625 614.002929688 31.8603515625 642.803710938 c 0,17,18
 40.259765625 674.002929688 40.259765625 674.002929688 61.259765625 688.403320312 c 128,-1,19
 82.259765625 702.803710938 82.259765625 702.803710938 139.860351562 717.203125 c 0,0,1
EndSplineSet
Validated: 524321
EndChar

StartChar: J
Encoding: 74 74 44
Width: 376
VWidth: 1063
Flags: W
LayerCount: 2
Fore
SplineSet
208.157226562 718.375 m 0,0,1
 276.557617188 736.375 276.557617188 736.375 299.357421875 735.774414062 c 128,-1,2
 322.157226562 735.174804688 322.157226562 735.174804688 342.557617188 714.774414062 c 0,3,4
 365.357421875 690.774414062 365.357421875 690.774414062 365.357421875 661.974609375 c 0,5,6
 364.157226562 617.57421875 364.157226562 617.57421875 344.357421875 427.974609375 c 128,-1,7
 324.557617188 238.375 324.557617188 238.375 317.357421875 215.57421875 c 0,8,9
 293.357421875 135.174804688 293.357421875 135.174804688 240.557617188 84.1748046875 c 128,-1,10
 187.756835938 33.1748046875 187.756835938 33.1748046875 118.157226562 25.974609375 c 0,11,12
 50.95703125 18.7744140625 50.95703125 18.7744140625 23.95703125 45.7744140625 c 128,-1,13
 -3.04296875 72.7744140625 -3.04296875 72.7744140625 -9.04296875 153.174804688 c 0,14,15
 -9.04296875 157.974609375 -9.04296875 157.974609375 -10.2431640625 166.375 c 0,16,17
 -12.642578125 198.774414062 -12.642578125 198.774414062 -6.642578125 208.974609375 c 128,-1,18
 -0.642578125 219.174804688 -0.642578125 219.174804688 37.7568359375 247.974609375 c 0,19,20
 44.95703125 253.974609375 44.95703125 253.974609375 49.7568359375 257.57421875 c 0,21,22
 61.7568359375 267.174804688 61.7568359375 267.174804688 66.5576171875 294.774414062 c 128,-1,23
 71.357421875 322.375 71.357421875 322.375 79.7568359375 447.174804688 c 0,24,25
 91.7568359375 625.974609375 91.7568359375 625.974609375 98.95703125 653.57421875 c 0,26,27
 102.557617188 666.774414062 102.557617188 666.774414062 107.357421875 675.174804688 c 128,-1,28
 112.157226562 683.57421875 112.157226562 683.57421875 124.756835938 690.774414062 c 128,-1,29
 137.357421875 697.974609375 137.357421875 697.974609375 155.95703125 703.974609375 c 128,-1,30
 174.557617188 709.974609375 174.557617188 709.974609375 208.157226562 718.375 c 0,0,1
EndSplineSet
Validated: 524321
EndChar

StartChar: K
Encoding: 75 75 45
Width: 584
VWidth: 1062
Flags: W
LayerCount: 2
Fore
SplineSet
114.908203125 717.078125 m 0,0,1
 188.108398438 735.078125 188.108398438 735.078125 201.307617188 735.078125 c 0,2,3
 215.708007812 736.27734375 215.708007812 736.27734375 229.5078125 732.078125 c 128,-1,4
 243.307617188 727.877929688 243.307617188 727.877929688 253.5078125 718.877929688 c 128,-1,5
 263.708007812 709.877929688 263.708007812 709.877929688 268.5078125 699.078125 c 0,6,7
 269.708007812 695.477539062 269.708007812 695.477539062 272.708007812 688.877929688 c 128,-1,8
 275.708007812 682.27734375 275.708007812 682.27734375 276.307617188 680.477539062 c 128,-1,9
 276.908203125 678.677734375 276.908203125 678.677734375 279.307617188 676.27734375 c 128,-1,10
 281.708007812 673.877929688 281.708007812 673.877929688 282.307617188 673.877929688 c 128,-1,11
 282.908203125 673.877929688 282.908203125 673.877929688 286.5078125 676.27734375 c 128,-1,12
 290.108398438 678.677734375 290.108398438 678.677734375 292.5078125 681.078125 c 128,-1,13
 294.908203125 683.477539062 294.908203125 683.477539062 302.108398438 689.477539062 c 0,14,15
 332.108398438 718.27734375 332.108398438 718.27734375 489.307617188 719.477539062 c 0,16,17
 572.108398438 720.677734375 572.108398438 720.677734375 572.108398438 660.677734375 c 0,18,19
 572.108398438 646.27734375 572.108398438 646.27734375 561.307617188 627.677734375 c 128,-1,20
 550.5078125 609.078125 550.5078125 609.078125 522.307617188 574.877929688 c 128,-1,21
 494.108398438 540.677734375 494.108398438 540.677734375 432.908203125 471.078125 c 2,22,-1
 375.307617188 406.27734375 l 1,23,-1
 443.708007812 325.877929688 l 2,24,25
 516.908203125 240.677734375 516.908203125 240.677734375 542.108398438 216.677734375 c 0,26,27
 585.307617188 175.877929688 585.307617188 175.877929688 568.5078125 141.677734375 c 128,-1,28
 551.708007812 107.477539062 551.708007812 107.477539062 468.908203125 65.4775390625 c 0,29,30
 412.5078125 37.8779296875 412.5078125 37.8779296875 396.908203125 37.8779296875 c 0,31,32
 354.908203125 37.8779296875 354.908203125 37.8779296875 290.108398438 124.27734375 c 0,33,34
 246.908203125 179.477539062 246.908203125 179.477539062 242.108398438 179.477539062 c 256,35,36
 237.307617188 179.477539062 237.307617188 179.477539062 231.307617188 149.477539062 c 0,37,38
 226.5078125 123.078125 226.5078125 123.078125 218.108398438 109.877929688 c 128,-1,39
 209.708007812 96.677734375 209.708007812 96.677734375 190.5078125 86.4775390625 c 128,-1,40
 171.307617188 76.27734375 171.307617188 76.27734375 129.307617188 61.8779296875 c 0,41,42
 64.5078125 40.27734375 64.5078125 40.27734375 33.908203125 41.4775390625 c 128,-1,43
 3.3076171875 42.677734375 3.3076171875 42.677734375 -15.8916015625 67.8779296875 c 0,44,45
 -27.8916015625 83.4775390625 -27.8916015625 83.4775390625 -29.6923828125 97.8779296875 c 128,-1,46
 -31.4921875 112.27734375 -31.4921875 112.27734375 -27.8916015625 163.877929688 c 0,47,48
 -24.2919921875 210.677734375 -24.2919921875 210.677734375 -8.6923828125 449.477539062 c 0,49,50
 -7.4921875 457.877929688 -7.4921875 457.877929688 -6.2919921875 474.677734375 c 0,51,52
 -2.6923828125 540.677734375 -2.6923828125 540.677734375 -0.8916015625 567.078125 c 128,-1,53
 0.908203125 593.477539062 0.908203125 593.477539062 7.5078125 626.477539062 c 128,-1,54
 14.1083984375 659.477539062 14.1083984375 659.477539062 17.7080078125 667.27734375 c 128,-1,55
 21.3076171875 675.078125 21.3076171875 675.078125 36.3076171875 688.27734375 c 128,-1,56
 51.3076171875 701.477539062 51.3076171875 701.477539062 62.7080078125 704.477539062 c 128,-1,57
 74.1083984375 707.477539062 74.1083984375 707.477539062 102.908203125 714.677734375 c 0,58,59
 111.307617188 717.078125 111.307617188 717.078125 114.908203125 717.078125 c 0,0,1
EndSplineSet
Validated: 524321
EndChar

StartChar: L
Encoding: 76 76 46
Width: 468
VWidth: 1062
Flags: W
LayerCount: 2
Fore
SplineSet
149.357421875 716.946289062 m 0,0,1
 221.357421875 734.946289062 221.357421875 734.946289062 244.158203125 734.946289062 c 128,-1,2
 266.958007812 734.946289062 266.958007812 734.946289062 288.557617188 716.946289062 c 0,3,4
 307.7578125 700.146484375 307.7578125 700.146484375 309.557617188 667.74609375 c 128,-1,5
 311.357421875 635.345703125 311.357421875 635.345703125 299.357421875 512.946289062 c 0,6,7
 284.958007812 348.545898438 284.958007812 348.545898438 284.958007812 344.946289062 c 2,8,-1
 280.158203125 280.146484375 l 1,9,-1
 302.958007812 284.946289062 l 2,10,11
 329.357421875 289.74609375 329.357421875 289.74609375 371.357421875 290.946289062 c 0,12,13
 407.357421875 292.146484375 407.357421875 292.146484375 426.557617188 281.345703125 c 128,-1,14
 445.7578125 270.545898438 445.7578125 270.545898438 456.557617188 244.146484375 c 0,15,16
 463.7578125 223.74609375 463.7578125 223.74609375 443.357421875 163.146484375 c 128,-1,17
 422.958007812 102.545898438 422.958007812 102.545898438 402.557617188 83.345703125 c 0,18,19
 379.7578125 61.74609375 379.7578125 61.74609375 338.357421875 54.5458984375 c 128,-1,20
 296.958007812 47.345703125 296.958007812 47.345703125 176.958007812 42.5458984375 c 0,21,22
 102.557617188 37.74609375 102.557617188 37.74609375 62.9580078125 40.74609375 c 128,-1,23
 23.357421875 43.74609375 23.357421875 43.74609375 10.158203125 51.5458984375 c 128,-1,24
 -3.0419921875 59.345703125 -3.0419921875 59.345703125 -13.841796875 80.9462890625 c 0,25,26
 -21.0419921875 95.345703125 -21.0419921875 95.345703125 -19.841796875 106.146484375 c 128,-1,27
 -18.642578125 116.946289062 -18.642578125 116.946289062 -9.0419921875 146.946289062 c 0,28,29
 7.7578125 192.545898438 7.7578125 192.545898438 19.7578125 355.74609375 c 0,30,31
 41.357421875 641.345703125 41.357421875 641.345703125 52.158203125 667.74609375 c 0,32,33
 54.5576171875 676.146484375 54.5576171875 676.146484375 60.5576171875 682.146484375 c 0,34,35
 73.7578125 696.545898438 73.7578125 696.545898438 149.357421875 716.946289062 c 0,0,1
EndSplineSet
Validated: 524321
EndChar

StartChar: M
Encoding: 77 77 47
Width: 694
VWidth: 1062
Flags: W
LayerCount: 2
Fore
SplineSet
152.903320312 715.698242188 m 0,0,1
 226.102539062 739.698242188 226.102539062 739.698242188 255.502929688 726.498046875 c 128,-1,2
 284.903320312 713.297851562 284.903320312 713.297851562 304.102539062 648.498046875 c 0,3,4
 322.102539062 594.498046875 322.102539062 594.498046875 328.102539062 594.498046875 c 128,-1,5
 334.102539062 594.498046875 334.102539062 594.498046875 358.102539062 642.498046875 c 0,6,7
 380.903320312 688.09765625 380.903320312 688.09765625 395.302734375 695.297851562 c 0,8,9
 410.903320312 702.498046875 410.903320312 702.498046875 482.903320312 721.698242188 c 0,10,11
 533.302734375 734.897460938 533.302734375 734.897460938 547.703125 735.498046875 c 128,-1,12
 562.102539062 736.09765625 562.102539062 736.09765625 576.502929688 728.897460938 c 0,13,14
 598.102539062 715.698242188 598.102539062 715.698242188 607.703125 695.297851562 c 0,15,16
 618.502929688 673.698242188 618.502929688 673.698242188 650.302734375 450.498046875 c 128,-1,17
 682.102539062 227.297851562 682.102539062 227.297851562 683.302734375 169.698242188 c 0,18,19
 684.502929688 113.297851562 684.502929688 113.297851562 668.903320312 95.2978515625 c 128,-1,20
 653.302734375 77.2978515625 653.302734375 77.2978515625 586.102539062 56.8974609375 c 0,21,22
 524.903320312 38.8974609375 524.903320312 38.8974609375 508.102539062 39.498046875 c 128,-1,23
 491.302734375 40.09765625 491.302734375 40.09765625 469.703125 58.09765625 c 0,24,25
 455.302734375 70.09765625 455.302734375 70.09765625 446.302734375 91.6982421875 c 128,-1,26
 437.302734375 113.297851562 437.302734375 113.297851562 433.102539062 136.09765625 c 128,-1,27
 428.903320312 158.897460938 428.903320312 158.897460938 426.502929688 179.297851562 c 128,-1,28
 424.102539062 199.698242188 424.102539062 199.698242188 421.703125 212.897460938 c 128,-1,29
 419.302734375 226.09765625 419.302734375 226.09765625 414.502929688 226.09765625 c 0,30,31
 407.302734375 226.09765625 407.302734375 226.09765625 378.502929688 172.09765625 c 0,32,33
 353.302734375 125.297851562 353.302734375 125.297851562 331.703125 107.897460938 c 128,-1,34
 310.102539062 90.498046875 310.102539062 90.498046875 281.302734375 90.498046875 c 0,35,36
 260.903320312 91.6982421875 260.903320312 91.6982421875 239.302734375 107.297851562 c 128,-1,37
 217.703125 122.897460938 217.703125 122.897460938 217.703125 137.297851562 c 0,38,39
 217.703125 157.698242188 217.703125 157.698242188 208.102539062 144.498046875 c 0,40,41
 199.703125 133.698242188 199.703125 133.698242188 193.703125 110.897460938 c 0,42,43
 180.502929688 58.09765625 180.502929688 58.09765625 151.102539062 46.09765625 c 128,-1,44
 121.703125 34.09765625 121.703125 34.09765625 54.5029296875 53.2978515625 c 0,45,46
 -1.8974609375 71.2978515625 -1.8974609375 71.2978515625 -21.0966796875 94.09765625 c 0,47,48
 -39.0966796875 115.698242188 -39.0966796875 115.698242188 -40.296875 126.498046875 c 128,-1,49
 -41.4970703125 137.297851562 -41.4970703125 137.297851562 -30.697265625 175.698242188 c 0,50,51
 -17.4970703125 218.897460938 -17.4970703125 218.897460938 -10.296875 262.09765625 c 0,52,53
 6.5029296875 347.297851562 6.5029296875 347.297851562 42.5029296875 507.498046875 c 128,-1,54
 78.5029296875 667.698242188 78.5029296875 667.698242188 84.5029296875 678.498046875 c 0,55,56
 91.703125 696.498046875 91.703125 696.498046875 152.903320312 715.698242188 c 0,0,1
EndSplineSet
Validated: 524321
EndChar

StartChar: N
Encoding: 78 78 48
Width: 544
VWidth: 1062
Flags: W
LayerCount: 2
Fore
SplineSet
69.33203125 705 m 0,0,1
 128.131835938 736.200195312 128.131835938 736.200195312 149.731445312 736.200195312 c 0,2,3
 194.131835938 736.200195312 194.131835938 736.200195312 245.731445312 639 c 0,4,5
 276.931640625 579 276.931640625 579 281.731445312 579 c 256,6,7
 286.53125 579 286.53125 579 291.33203125 619.799804688 c 0,8,9
 296.131835938 657 296.131835938 657 306.33203125 674.400390625 c 128,-1,10
 316.53125 691.799804688 316.53125 691.799804688 339.931640625 702.599609375 c 128,-1,11
 363.33203125 713.400390625 363.33203125 713.400390625 417.33203125 725.400390625 c 0,12,13
 472.53125 737.400390625 472.53125 737.400390625 495.33203125 729 c 0,14,15
 522.931640625 718.200195312 522.931640625 718.200195312 529.53125 682.799804688 c 128,-1,16
 536.131835938 647.400390625 536.131835938 647.400390625 531.33203125 532.200195312 c 0,17,18
 526.53125 425.400390625 526.53125 425.400390625 525.33203125 282.599609375 c 0,19,20
 525.33203125 240.599609375 525.33203125 240.599609375 524.731445312 220.200195312 c 128,-1,21
 524.131835938 199.799804688 524.131835938 199.799804688 519.931640625 176.400390625 c 128,-1,22
 515.731445312 153 515.731445312 153 511.53125 144.599609375 c 128,-1,23
 507.33203125 136.200195312 507.33203125 136.200195312 494.731445312 122.400390625 c 128,-1,24
 482.131835938 108.599609375 482.131835938 108.599609375 469.53125 100.799804688 c 128,-1,25
 456.931640625 93 456.931640625 93 430.53125 77.400390625 c 0,26,27
 362.131835938 37.7998046875 362.131835938 37.7998046875 346.53125 37.7998046875 c 0,28,29
 320.131835938 37.7998046875 320.131835938 37.7998046875 258.931640625 131.400390625 c 0,30,31
 225.33203125 179.400390625 225.33203125 179.400390625 218.131835938 179.400390625 c 256,32,33
 210.931640625 179.400390625 210.931640625 179.400390625 210.931640625 155.400390625 c 0,34,35
 210.931640625 115.799804688 210.931640625 115.799804688 186.931640625 94.2001953125 c 128,-1,36
 162.931640625 72.599609375 162.931640625 72.599609375 94.53125 49.7998046875 c 0,37,38
 20.1318359375 25.7998046875 20.1318359375 25.7998046875 -13.46875 63 c 0,39,40
 -26.66796875 77.400390625 -26.66796875 77.400390625 -26.66796875 118.799804688 c 128,-1,41
 -26.66796875 160.200195312 -26.66796875 160.200195312 -13.46875 323.400390625 c 0,42,43
 -2.66796875 460.200195312 -2.66796875 460.200195312 -2.068359375 509.400390625 c 128,-1,44
 -1.46875 558.599609375 -1.46875 558.599609375 -13.46875 579 c 0,45,46
 -32.66796875 615 -32.66796875 615 -14.66796875 642.599609375 c 128,-1,47
 3.33203125 670.200195312 3.33203125 670.200195312 69.33203125 705 c 0,0,1
EndSplineSet
Validated: 524321
EndChar

StartChar: O
Encoding: 79 79 49
Width: 655
VWidth: 1060
Flags: W
LayerCount: 2
Fore
SplineSet
234.401367188 749.26171875 m 0,0,1
 254.801757812 763.662109375 254.801757812 763.662109375 281.801757812 763.662109375 c 128,-1,2
 308.801757812 763.662109375 308.801757812 763.662109375 371.201171875 749.26171875 c 0,3,4
 496.001953125 719.26171875 496.001953125 719.26171875 568.001953125 642.461914062 c 0,5,6
 605.201171875 600.461914062 605.201171875 600.461914062 622.6015625 553.662109375 c 128,-1,7
 640.001953125 506.862304688 640.001953125 506.862304688 643.6015625 436.061523438 c 0,8,9
 646.001953125 385.662109375 646.001953125 385.662109375 643.6015625 363.461914062 c 128,-1,10
 641.201171875 341.26171875 641.201171875 341.26171875 626.801757812 299.26171875 c 0,11,12
 560.801757812 100.061523438 560.801757812 100.061523438 354.401367188 47.26171875 c 0,13,14
 248.801757812 19.662109375 248.801757812 19.662109375 152.201171875 58.0615234375 c 128,-1,15
 55.6015625 96.4619140625 55.6015625 96.4619140625 7.6015625 185.26171875 c 0,16,17
 -21.1982421875 239.26171875 -21.1982421875 239.26171875 -31.3984375 299.26171875 c 128,-1,18
 -41.5986328125 359.26171875 -41.5986328125 359.26171875 -32.5986328125 416.862304688 c 128,-1,19
 -23.5986328125 474.461914062 -23.5986328125 474.461914062 1.001953125 526.662109375 c 128,-1,20
 25.6015625 578.862304688 25.6015625 578.862304688 67.6015625 620.862304688 c 128,-1,21
 109.6015625 662.862304688 109.6015625 662.862304688 163.6015625 688.061523438 c 0,22,23
 184.001953125 697.662109375 184.001953125 697.662109375 199.001953125 707.862304688 c 128,-1,24
 214.001953125 718.061523438 214.001953125 718.061523438 214.001953125 721.662109375 c 0,25,26
 214.001953125 732.461914062 214.001953125 732.461914062 234.401367188 749.26171875 c 0,0,1
354.401367188 469.662109375 m 0,27,28
 334.001953125 497.26171875 334.001953125 497.26171875 304.6015625 488.26171875 c 128,-1,29
 275.201171875 479.26171875 275.201171875 479.26171875 254.801757812 438.461914062 c 0,30,31
 246.401367188 420.461914062 246.401367188 420.461914062 246.401367188 366.461914062 c 0,32,33
 246.401367188 270.461914062 246.401367188 270.461914062 298.001953125 270.461914062 c 0,34,35
 371.201171875 270.461914062 371.201171875 270.461914062 371.201171875 395.26171875 c 0,36,37
 371.201171875 427.662109375 371.201171875 427.662109375 368.201171875 442.662109375 c 128,-1,38
 365.201171875 457.662109375 365.201171875 457.662109375 354.401367188 469.662109375 c 0,27,28
EndSplineSet
Validated: 524321
EndChar

StartChar: P
Encoding: 80 80 50
Width: 567
VWidth: 1062
Flags: W
LayerCount: 2
Fore
SplineSet
161.946289062 727.607421875 m 0,0,1
 224.346679688 737.208007812 224.346679688 737.208007812 306.546875 733.0078125 c 128,-1,2
 388.747070312 728.807617188 388.747070312 728.807617188 425.946289062 713.208007812 c 0,3,4
 449.946289062 704.807617188 449.946289062 704.807617188 472.146484375 689.208007812 c 128,-1,5
 494.346679688 673.607421875 494.346679688 673.607421875 512.346679688 655.0078125 c 128,-1,6
 530.346679688 636.407226562 530.346679688 636.407226562 539.946289062 616.0078125 c 0,7,8
 554.346679688 588.407226562 554.346679688 588.407226562 556.747070312 528.407226562 c 128,-1,9
 559.146484375 468.407226562 559.146484375 468.407226562 547.146484375 427.607421875 c 0,10,11
 529.146484375 366.407226562 529.146484375 366.407226562 470.946289062 316.607421875 c 128,-1,12
 412.747070312 266.807617188 412.747070312 266.807617188 331.146484375 245.208007812 c 0,13,14
 279.546875 230.807617188 279.546875 230.807617188 273.546875 224.807617188 c 0,15,16
 265.146484375 218.807617188 265.146484375 218.807617188 260.346679688 170.807617188 c 0,17,18
 254.346679688 124.0078125 254.346679688 124.0078125 233.946289062 104.208007812 c 128,-1,19
 213.546875 84.4072265625 213.546875 84.4072265625 146.346679688 61.607421875 c 0,20,21
 76.7470703125 36.4072265625 76.7470703125 36.4072265625 43.7470703125 43.0078125 c 128,-1,22
 10.7470703125 49.607421875 10.7470703125 49.607421875 -1.2529296875 90.4072265625 c 0,23,24
 -7.2529296875 107.208007812 -7.2529296875 107.208007812 5.9462890625 256.0078125 c 0,25,26
 17.9462890625 413.208007812 17.9462890625 413.208007812 16.146484375 442.607421875 c 128,-1,27
 14.3466796875 472.0078125 14.3466796875 472.0078125 -7.2529296875 491.208007812 c 0,28,29
 -22.853515625 504.407226562 -22.853515625 504.407226562 -26.453125 513.407226562 c 128,-1,30
 -30.0537109375 522.407226562 -30.0537109375 522.407226562 -27.6533203125 542.807617188 c 0,31,32
 -22.853515625 581.208007812 -22.853515625 581.208007812 -8.453125 625.607421875 c 128,-1,33
 5.9462890625 670.0078125 5.9462890625 670.0078125 18.546875 682.0078125 c 128,-1,34
 31.146484375 694.0078125 31.146484375 694.0078125 71.3466796875 707.208007812 c 128,-1,35
 111.546875 720.407226562 111.546875 720.407226562 161.946289062 727.607421875 c 0,0,1
EndSplineSet
Validated: 524321
EndChar

StartChar: Q
Encoding: 81 81 51
Width: 656
VWidth: 1061
Flags: W
LayerCount: 2
Fore
SplineSet
224.700195312 738.918945312 m 0,0,1
 248.700195312 764.119140625 248.700195312 764.119140625 270.299804688 765.918945312 c 128,-1,2
 291.900390625 767.719726562 291.900390625 767.719726562 367.5 750.918945312 c 0,3,4
 480.299804688 725.719726562 480.299804688 725.719726562 544.5 669.918945312 c 128,-1,5
 608.700195312 614.119140625 608.700195312 614.119140625 633.900390625 519.319335938 c 0,6,7
 651.900390625 448.51953125 651.900390625 448.51953125 642.900390625 366.319335938 c 128,-1,8
 633.900390625 284.119140625 633.900390625 284.119140625 601.5 228.918945312 c 2,9,-1
 582.299804688 195.319335938 l 1,10,-1
 600.299804688 164.119140625 l 2,11,12
 612.299804688 141.319335938 612.299804688 141.319335938 613.5 132.918945312 c 128,-1,13
 614.700195312 124.51953125 614.700195312 124.51953125 605.099609375 105.319335938 c 0,14,15
 591.900390625 77.7197265625 591.900390625 77.7197265625 545.099609375 50.119140625 c 0,16,17
 495.900390625 20.119140625 495.900390625 20.119140625 473.700195312 17.119140625 c 128,-1,18
 451.5 14.119140625 451.5 14.119140625 422.700195312 33.3193359375 c 0,19,20
 399.900390625 48.9189453125 399.900390625 48.9189453125 389.700195312 50.7197265625 c 128,-1,21
 379.5 52.51953125 379.5 52.51953125 345.900390625 45.3193359375 c 0,22,23
 297.900390625 34.51953125 297.900390625 34.51953125 242.700195312 39.3193359375 c 0,24,25
 120.299804688 46.51953125 120.299804688 46.51953125 41.7001953125 137.119140625 c 128,-1,26
 -36.900390625 227.719726562 -36.900390625 227.719726562 -36.900390625 363.319335938 c 0,27,28
 -36.900390625 467.719726562 -36.900390625 467.719726562 16.5 557.119140625 c 128,-1,29
 69.900390625 646.51953125 69.900390625 646.51953125 158.700195312 690.918945312 c 0,30,31
 198.299804688 711.319335938 198.299804688 711.319335938 224.700195312 738.918945312 c 0,0,1
354.299804688 471.319335938 m 0,32,33
 331.5 501.319335938 331.5 501.319335938 300.299804688 492.319335938 c 128,-1,34
 269.099609375 483.319335938 269.099609375 483.319335938 253.5 442.51953125 c 0,35,36
 243.900390625 417.319335938 243.900390625 417.319335938 245.099609375 368.119140625 c 128,-1,37
 246.299804688 318.918945312 246.299804688 318.918945312 257.099609375 315.319335938 c 0,38,39
 270.299804688 310.51953125 270.299804688 310.51953125 319.5 339.319335938 c 2,40,-1
 371.099609375 368.119140625 l 1,41,-1
 371.099609375 408.918945312 l 2,42,43
 371.099609375 450.918945312 371.099609375 450.918945312 354.299804688 471.319335938 c 0,32,33
EndSplineSet
Validated: 524321
EndChar

StartChar: R
Encoding: 82 82 52
Width: 612
VWidth: 1062
Flags: W
LayerCount: 2
Fore
SplineSet
143.428710938 724.078125 m 0,0,1
 299.428710938 749.278320312 299.428710938 749.278320312 405.028320312 721.078125 c 128,-1,2
 510.62890625 692.87890625 510.62890625 692.87890625 546.62890625 616.078125 c 0,3,4
 600.62890625 500.87890625 600.62890625 500.87890625 504.62890625 397.678710938 c 2,5,-1
 462.62890625 352.078125 l 1,6,-1
 484.228515625 314.87890625 l 2,7,8
 534.62890625 226.078125 534.62890625 226.078125 557.428710938 226.078125 c 0,9,10
 570.62890625 226.078125 570.62890625 226.078125 583.228515625 212.278320312 c 128,-1,11
 595.828125 198.478515625 595.828125 198.478515625 600.62890625 178.078125 c 0,12,13
 604.228515625 166.078125 604.228515625 166.078125 599.428710938 154.078125 c 128,-1,14
 594.62890625 142.078125 594.62890625 142.078125 580.228515625 129.478515625 c 128,-1,15
 565.828125 116.87890625 565.828125 116.87890625 541.828125 103.078125 c 128,-1,16
 517.828125 89.2783203125 517.828125 89.2783203125 483.028320312 73.6787109375 c 0,17,18
 399.028320312 36.478515625 399.028320312 36.478515625 373.828125 41.2783203125 c 0,19,20
 365.428710938 42.478515625 365.428710938 42.478515625 357.028320312 47.2783203125 c 128,-1,21
 348.62890625 52.078125 348.62890625 52.078125 340.228515625 58.6787109375 c 128,-1,22
 331.828125 65.2783203125 331.828125 65.2783203125 324.028320312 73.6787109375 c 128,-1,23
 316.228515625 82.078125 316.228515625 82.078125 309.028320312 92.87890625 c 128,-1,24
 301.828125 103.678710938 301.828125 103.678710938 295.828125 114.478515625 c 0,25,26
 282.62890625 140.87890625 282.62890625 140.87890625 271.828125 134.87890625 c 0,27,28
 267.028320312 131.278320312 267.028320312 131.278320312 267.028320312 120.478515625 c 0,29,30
 267.028320312 108.478515625 267.028320312 108.478515625 243.62890625 95.2783203125 c 128,-1,31
 220.228515625 82.078125 220.228515625 82.078125 163.828125 61.6787109375 c 0,32,33
 105.028320312 41.2783203125 105.028320312 41.2783203125 87.62890625 39.478515625 c 128,-1,34
 70.228515625 37.6787109375 70.228515625 37.6787109375 47.4287109375 49.6787109375 c 0,35,36
 29.4287109375 59.2783203125 29.4287109375 59.2783203125 22.828125 78.478515625 c 128,-1,37
 16.228515625 97.6787109375 16.228515625 97.6787109375 16.828125 141.478515625 c 128,-1,38
 17.4287109375 185.278320312 17.4287109375 185.278320312 25.828125 289.678710938 c 0,39,40
 39.0283203125 468.478515625 39.0283203125 468.478515625 36.62890625 474.478515625 c 0,41,42
 33.0283203125 484.078125 33.0283203125 484.078125 9.0283203125 488.87890625 c 0,43,44
 -30.5712890625 498.478515625 -30.5712890625 498.478515625 -32.37109375 531.478515625 c 128,-1,45
 -34.171875 564.478515625 -34.171875 564.478515625 1.828125 629.278320312 c 0,46,47
 37.828125 691.678710938 37.828125 691.678710938 57.0283203125 701.278320312 c 0,48,49
 76.228515625 712.078125 76.228515625 712.078125 143.428710938 724.078125 c 0,0,1
EndSplineSet
Validated: 524321
EndChar

StartChar: S
Encoding: 83 83 53
Width: 450
VWidth: 1062
Flags: W
LayerCount: 2
Fore
SplineSet
156.90625 721.845703125 m 0,0,1
 216.90625 742.24609375 216.90625 742.24609375 288.90625 732.645507812 c 128,-1,2
 360.90625 723.045898438 360.90625 723.045898438 399.305664062 689.446289062 c 0,3,4
 410.106445312 679.845703125 410.106445312 679.845703125 413.706054688 676.24609375 c 128,-1,5
 417.305664062 672.645507812 417.305664062 672.645507812 420.90625 658.24609375 c 128,-1,6
 424.505859375 643.845703125 424.505859375 643.845703125 425.106445312 630.045898438 c 128,-1,7
 425.706054688 616.24609375 425.706054688 616.24609375 426.90625 576.645507812 c 0,8,9
 425.706054688 540.645507812 425.706054688 540.645507812 426.90625 520.24609375 c 128,-1,10
 428.106445312 499.845703125 428.106445312 499.845703125 422.706054688 486.645507812 c 128,-1,11
 417.305664062 473.446289062 417.305664062 473.446289062 410.106445312 466.845703125 c 128,-1,12
 402.90625 460.24609375 402.90625 460.24609375 384.90625 450.645507812 c 0,13,14
 374.106445312 444.645507812 374.106445312 444.645507812 376.505859375 436.845703125 c 128,-1,15
 378.90625 429.045898438 378.90625 429.045898438 398.106445312 401.446289062 c 0,16,17
 480.90625 280.24609375 480.90625 280.24609375 404.106445312 161.446289062 c 0,18,19
 357.305664062 87.0458984375 357.305664062 87.0458984375 256.505859375 54.6455078125 c 128,-1,20
 155.706054688 22.24609375 155.706054688 22.24609375 62.1064453125 52.24609375 c 0,21,22
 10.505859375 67.845703125 10.505859375 67.845703125 -2.09375 90.0458984375 c 128,-1,23
 -14.6943359375 112.24609375 -14.6943359375 112.24609375 -17.09375 187.845703125 c 256,24,25
 -19.494140625 263.446289062 -19.494140625 263.446289062 -10.494140625 287.446289062 c 128,-1,26
 -1.494140625 311.446289062 -1.494140625 311.446289062 32.1064453125 317.446289062 c 2,27,-1
 59.7060546875 323.446289062 l 1,28,-1
 36.90625 347.446289062 l 2,29,30
 18.90625 366.645507812 18.90625 366.645507812 7.505859375 385.845703125 c 128,-1,31
 -3.8935546875 405.045898438 -3.8935546875 405.045898438 -9.8935546875 428.446289062 c 128,-1,32
 -15.8935546875 451.845703125 -15.8935546875 451.845703125 -17.09375 483.045898438 c 0,33,34
 -20.6943359375 528.645507812 -20.6943359375 528.645507812 -11.6943359375 565.24609375 c 128,-1,35
 -2.6943359375 601.845703125 -2.6943359375 601.845703125 18.90625 631.24609375 c 128,-1,36
 40.505859375 660.645507812 40.505859375 660.645507812 74.7060546875 682.845703125 c 128,-1,37
 108.90625 705.045898438 108.90625 705.045898438 156.90625 721.845703125 c 0,0,1
EndSplineSet
Validated: 524321
EndChar

StartChar: T
Encoding: 84 84 54
Width: 555
VWidth: 1062
Flags: W
LayerCount: 2
Fore
SplineSet
259.248046875 728.01953125 m 0,0,1
 404.448242188 735.219726562 404.448242188 735.219726562 459.047851562 733.419921875 c 128,-1,2
 513.6484375 731.620117188 513.6484375 731.620117188 528.047851562 717.219726562 c 0,3,4
 559.248046875 688.419921875 559.248046875 688.419921875 525.6484375 593.620117188 c 0,5,6
 496.848632812 515.620117188 496.848632812 515.620117188 479.448242188 496.419921875 c 128,-1,7
 462.047851562 477.219726562 462.047851562 477.219726562 416.448242188 477.219726562 c 0,8,9
 380.448242188 477.219726562 380.448242188 477.219726562 376.848632812 468.8203125 c 0,10,11
 370.848632812 462.8203125 370.848632812 462.8203125 356.448242188 305.620117188 c 0,12,13
 344.448242188 176.01953125 344.448242188 176.01953125 338.448242188 143.620117188 c 128,-1,14
 332.448242188 111.219726562 332.448242188 111.219726562 319.248046875 99.2197265625 c 256,15,16
 306.047851562 87.2197265625 306.047851562 87.2197265625 235.848632812 62.6201171875 c 128,-1,17
 165.6484375 38.01953125 165.6484375 38.01953125 145.248046875 38.01953125 c 0,18,19
 122.448242188 38.01953125 122.448242188 38.01953125 100.848632812 57.2197265625 c 0,20,21
 81.6484375 74.01953125 81.6484375 74.01953125 80.4482421875 104.01953125 c 128,-1,22
 79.248046875 134.01953125 79.248046875 134.01953125 91.248046875 285.219726562 c 0,23,24
 99.6484375 400.419921875 99.6484375 400.419921875 102.047851562 446.01953125 c 2,25,-1
 102.047851562 473.620117188 l 1,26,-1
 57.6484375 476.01953125 l 2,27,28
 27.6484375 478.419921875 27.6484375 478.419921875 16.8486328125 482.620117188 c 128,-1,29
 6.0478515625 486.8203125 6.0478515625 486.8203125 -8.3515625 502.419921875 c 0,30,31
 -27.5517578125 526.419921875 -27.5517578125 526.419921875 -27.5517578125 536.01953125 c 0,32,33
 -27.5517578125 555.219726562 -27.5517578125 555.219726562 -0.5517578125 619.419921875 c 128,-1,34
 26.4482421875 683.620117188 26.4482421875 683.620117188 39.6484375 694.419921875 c 0,35,36
 56.4482421875 710.01953125 56.4482421875 710.01953125 93.0478515625 716.01953125 c 128,-1,37
 129.6484375 722.01953125 129.6484375 722.01953125 259.248046875 728.01953125 c 0,0,1
EndSplineSet
Validated: 524321
EndChar

StartChar: U
Encoding: 85 85 55
Width: 559
VWidth: 1062
Flags: W
LayerCount: 2
Fore
SplineSet
111.063476562 720.643554688 m 0,0,1
 178.263671875 735.043945312 178.263671875 735.043945312 197.463867188 735.043945312 c 0,2,3
 220.263671875 736.244140625 220.263671875 736.244140625 243.063476562 713.444335938 c 128,-1,4
 265.86328125 690.643554688 265.86328125 690.643554688 265.86328125 666.643554688 c 256,5,6
 265.86328125 642.643554688 265.86328125 642.643554688 273.6640625 642.643554688 c 128,-1,7
 281.463867188 642.643554688 281.463867188 642.643554688 281.463867188 653.444335938 c 0,8,9
 281.463867188 691.84375 281.463867188 691.84375 403.86328125 719.444335938 c 0,10,11
 473.463867188 736.244140625 473.463867188 736.244140625 499.86328125 732.043945312 c 128,-1,12
 526.263671875 727.84375 526.263671875 727.84375 540.6640625 696.643554688 c 0,13,14
 551.463867188 673.84375 551.463867188 673.84375 549.063476562 627.043945312 c 128,-1,15
 546.6640625 580.244140625 546.6640625 580.244140625 523.86328125 387.043945312 c 0,16,17
 508.263671875 244.244140625 508.263671875 244.244140625 454.263671875 160.84375 c 128,-1,18
 400.263671875 77.4443359375 400.263671875 77.4443359375 305.463867188 51.0439453125 c 0,19,20
 192.6640625 18.6435546875 192.6640625 18.6435546875 100.263671875 69.6435546875 c 128,-1,21
 7.86328125 120.643554688 7.86328125 120.643554688 -19.736328125 231.043945312 c 0,22,23
 -28.13671875 262.244140625 -28.13671875 262.244140625 -28.13671875 300.643554688 c 128,-1,24
 -28.13671875 339.043945312 -28.13671875 339.043945312 -18.5361328125 466.244140625 c 0,25,26
 -4.13671875 652.244140625 -4.13671875 652.244140625 5.4638671875 671.444335938 c 0,27,28
 15.0634765625 689.444335938 15.0634765625 689.444335938 34.86328125 698.444335938 c 128,-1,29
 54.6640625 707.444335938 54.6640625 707.444335938 111.063476562 720.643554688 c 0,0,1
270.6640625 527.444335938 m 0,30,31
 275.463867188 603.043945312 275.463867188 603.043945312 268.263671875 603.043945312 c 0,32,33
 262.263671875 603.043945312 262.263671875 603.043945312 247.263671875 450.043945312 c 128,-1,34
 232.263671875 297.043945312 232.263671875 297.043945312 237.063476562 291.043945312 c 0,35,36
 241.86328125 286.244140625 241.86328125 286.244140625 245.463867188 291.043945312 c 0,37,38
 249.063476562 293.444335938 249.063476562 293.444335938 256.86328125 367.84375 c 128,-1,39
 264.6640625 442.244140625 264.6640625 442.244140625 270.6640625 527.444335938 c 0,30,31
EndSplineSet
Validated: 524321
EndChar

StartChar: V
Encoding: 86 86 56
Width: 577
VWidth: 1062
Flags: W
LayerCount: 2
Fore
SplineSet
86.7001953125 724.109375 m 0,0,1
 123.900390625 732.508789062 123.900390625 732.508789062 149.099609375 733.109375 c 128,-1,2
 174.299804688 733.708984375 174.299804688 733.708984375 190.5 728.909179688 c 128,-1,3
 206.700195312 724.109375 206.700195312 724.109375 217.5 708.508789062 c 128,-1,4
 228.299804688 692.909179688 228.299804688 692.909179688 234.900390625 676.109375 c 128,-1,5
 241.5 659.30859375 241.5 659.30859375 248.700195312 628.109375 c 0,6,7
 263.099609375 563.30859375 263.099609375 563.30859375 269.099609375 563.30859375 c 256,8,9
 275.099609375 563.30859375 275.099609375 563.30859375 291.900390625 613.708984375 c 0,10,11
 308.700195312 665.30859375 308.700195312 665.30859375 324.299804688 684.508789062 c 256,12,13
 339.900390625 703.708984375 339.900390625 703.708984375 383.099609375 717.508789062 c 128,-1,14
 426.299804688 731.30859375 426.299804688 731.30859375 474.299804688 732.508789062 c 0,15,16
 507.900390625 732.508789062 507.900390625 732.508789062 520.5 728.909179688 c 128,-1,17
 533.099609375 725.30859375 533.099609375 725.30859375 546.299804688 713.30859375 c 0,18,19
 566.700195312 694.109375 566.700195312 694.109375 566.700195312 672.508789062 c 0,20,21
 566.700195312 659.30859375 566.700195312 659.30859375 512.099609375 519.508789062 c 128,-1,22
 457.5 379.708984375 457.5 379.708984375 399.900390625 240.508789062 c 128,-1,23
 342.299804688 101.30859375 342.299804688 101.30859375 333.900390625 91.708984375 c 0,24,25
 319.5 76.109375 319.5 76.109375 254.700195312 56.9091796875 c 0,26,27
 198.299804688 40.109375 198.299804688 40.109375 168.299804688 41.9091796875 c 128,-1,28
 138.299804688 43.708984375 138.299804688 43.708984375 120.299804688 65.30859375 c 0,29,30
 110.700195312 78.5087890625 110.700195312 78.5087890625 40.5 346.109375 c 128,-1,31
 -29.7001953125 613.708984375 -29.7001953125 613.708984375 -29.7001953125 640.109375 c 0,32,33
 -29.7001953125 673.708984375 -29.7001953125 673.708984375 -3.2998046875 692.909179688 c 128,-1,34
 23.099609375 712.109375 23.099609375 712.109375 86.7001953125 724.109375 c 0,0,1
EndSplineSet
Validated: 524321
EndChar

StartChar: W
Encoding: 87 87 57
Width: 756
VWidth: 1062
Flags: W
LayerCount: 2
Fore
SplineSet
79.9931640625 728.9296875 m 0,0,1
 121.993164062 736.129882812 121.993164062 736.129882812 150.79296875 732.529296875 c 128,-1,2
 179.592773438 728.9296875 179.592773438 728.9296875 195.192382812 714.529296875 c 128,-1,3
 210.79296875 700.129882812 210.79296875 700.129882812 217.993164062 672.529296875 c 0,4,5
 226.392578125 643.729492188 226.392578125 643.729492188 235.993164062 641.330078125 c 1,6,7
 239.592773438 647.330078125 239.592773438 647.330078125 240.79296875 650.9296875 c 0,8,9
 240.79296875 661.729492188 240.79296875 661.729492188 283.993164062 676.729492188 c 128,-1,10
 327.192382812 691.729492188 327.192382812 691.729492188 370.392578125 694.129882812 c 0,11,12
 408.79296875 697.729492188 408.79296875 697.729492188 420.79296875 695.330078125 c 128,-1,13
 432.79296875 692.9296875 432.79296875 692.9296875 450.79296875 677.330078125 c 0,14,15
 475.993164062 655.729492188 475.993164062 655.729492188 475.993164062 646.129882812 c 0,16,17
 475.993164062 629.330078125 475.993164062 629.330078125 484.392578125 630.529296875 c 0,18,19
 495.192382812 635.330078125 495.192382812 635.330078125 504.79296875 658.129882812 c 0,20,21
 515.592773438 685.729492188 515.592773438 685.729492188 536.592773438 697.129882812 c 128,-1,22
 557.592773438 708.529296875 557.592773438 708.529296875 621.192382812 724.129882812 c 0,23,24
 679.993164062 738.529296875 679.993164062 738.529296875 708.192382812 728.330078125 c 128,-1,25
 736.392578125 718.129882812 736.392578125 718.129882812 745.993164062 680.9296875 c 0,26,27
 750.79296875 664.129882812 750.79296875 664.129882812 661.993164062 392.330078125 c 128,-1,28
 573.192382812 120.529296875 573.192382812 120.529296875 555.192382812 98.9296875 c 0,29,30
 540.79296875 80.9296875 540.79296875 80.9296875 491.592773438 58.1298828125 c 0,31,32
 430.392578125 30.529296875 430.392578125 30.529296875 399.192382812 47.330078125 c 128,-1,33
 367.993164062 64.1298828125 367.993164062 64.1298828125 351.192382812 133.729492188 c 0,34,35
 340.392578125 172.129882812 340.392578125 172.129882812 335.592773438 172.129882812 c 0,36,37
 329.592773438 172.129882812 329.592773438 172.129882812 309.192382812 139.729492188 c 0,38,39
 288.79296875 109.729492188 288.79296875 109.729492188 244.392578125 76.1298828125 c 0,40,41
 165.192382812 17.330078125 165.192382812 17.330078125 123.192382812 58.1298828125 c 0,42,43
 106.392578125 74.9296875 106.392578125 74.9296875 28.392578125 347.9296875 c 128,-1,44
 -49.607421875 620.9296875 -49.607421875 620.9296875 -46.0068359375 649.729492188 c 0,45,46
 -43.607421875 667.729492188 -43.607421875 667.729492188 -35.8076171875 679.729492188 c 128,-1,47
 -28.0068359375 691.729492188 -28.0068359375 691.729492188 -13.607421875 701.330078125 c 128,-1,48
 0.79296875 710.9296875 0.79296875 710.9296875 22.9931640625 717.529296875 c 128,-1,49
 45.1923828125 724.129882812 45.1923828125 724.129882812 79.9931640625 728.9296875 c 0,0,1
EndSplineSet
Validated: 524321
EndChar

StartChar: X
Encoding: 88 88 58
Width: 552
VWidth: 1063
Flags: W
LayerCount: 2
Fore
SplineSet
139.41015625 717.551757812 m 0,0,1
 162.209960938 727.151367188 162.209960938 727.151367188 173.009765625 729.551757812 c 0,2,3
 188.610351562 729.551757812 188.610351562 729.551757812 210.810546875 713.951171875 c 128,-1,4
 233.009765625 698.3515625 233.009765625 698.3515625 241.41015625 681.551757812 c 0,5,6
 252.209960938 662.3515625 252.209960938 662.3515625 259.41015625 659.951171875 c 128,-1,7
 266.610351562 657.551757812 266.610351562 657.551757812 277.41015625 670.750976562 c 0,8,9
 285.810546875 681.551757812 285.810546875 681.551757812 297.209960938 687.551757812 c 128,-1,10
 308.610351562 693.551757812 308.610351562 693.551757812 329.009765625 699.551757812 c 128,-1,11
 349.41015625 705.551757812 349.41015625 705.551757812 392.610351562 713.951171875 c 0,12,13
 457.41015625 727.151367188 457.41015625 727.151367188 488.009765625 724.750976562 c 128,-1,14
 518.610351562 722.3515625 518.610351562 722.3515625 533.009765625 700.750976562 c 0,15,16
 547.41015625 677.951171875 547.41015625 677.951171875 536.009765625 643.750976562 c 128,-1,17
 524.610351562 609.551757812 524.610351562 609.551757812 469.41015625 512.3515625 c 2,18,-1
 401.009765625 392.3515625 l 1,19,-1
 441.810546875 311.951171875 l 2,20,21
 486.209960938 225.551757812 486.209960938 225.551757812 501.810546875 196.750976562 c 0,22,23
 528.209960938 145.151367188 528.209960938 145.151367188 512.009765625 112.750976562 c 128,-1,24
 495.810546875 80.3515625 495.810546875 80.3515625 429.810546875 55.1513671875 c 0,25,26
 371.009765625 32.3515625 371.009765625 32.3515625 338.610351562 43.7509765625 c 128,-1,27
 306.209960938 55.1513671875 306.209960938 55.1513671875 266.610351562 112.750976562 c 2,28,-1
 252.209960938 133.151367188 l 1,29,-1
 227.009765625 106.750976562 l 2,30,31
 201.810546875 80.3515625 201.810546875 80.3515625 134.610351562 58.7509765625 c 0,32,33
 68.6103515625 38.3515625 68.6103515625 38.3515625 42.2099609375 38.951171875 c 128,-1,34
 15.810546875 39.5517578125 15.810546875 39.5517578125 -6.990234375 62.3515625 c 0,35,36
 -21.3896484375 77.951171875 -21.3896484375 77.951171875 -24.990234375 86.951171875 c 128,-1,37
 -28.58984375 95.951171875 -28.58984375 95.951171875 -26.189453125 111.551757812 c 0,38,39
 -18.990234375 145.151367188 -18.990234375 145.151367188 99.810546875 356.3515625 c 1,40,-1
 114.209960938 380.3515625 l 1,41,-1
 50.6103515625 491.951171875 l 2,42,43
 23.009765625 539.951171875 23.009765625 539.951171875 9.2099609375 568.750976562 c 128,-1,44
 -4.58984375 597.551757812 -4.58984375 597.551757812 -10.58984375 620.3515625 c 128,-1,45
 -16.58984375 643.151367188 -16.58984375 643.151367188 -8.189453125 655.750976562 c 128,-1,46
 0.2099609375 668.3515625 0.2099609375 668.3515625 15.810546875 677.3515625 c 128,-1,47
 31.41015625 686.3515625 31.41015625 686.3515625 62.6103515625 694.750976562 c 0,48,49
 120.209960938 710.3515625 120.209960938 710.3515625 139.41015625 717.551757812 c 0,0,1
EndSplineSet
Validated: 524321
EndChar

StartChar: Y
Encoding: 89 89 59
Width: 534
VWidth: 1062
Flags: W
LayerCount: 2
Fore
SplineSet
66.5517578125 700.55859375 m 0,0,1
 128.951171875 729.358398438 128.951171875 729.358398438 138.551757812 729.358398438 c 0,2,3
 176.951171875 729.358398438 176.951171875 729.358398438 211.750976562 668.159179688 c 0,4,5
 235.750976562 627.358398438 235.750976562 627.358398438 241.750976562 627.358398438 c 0,6,7
 248.951171875 627.358398438 248.951171875 627.358398438 269.3515625 657.358398438 c 0,8,9
 282.551757812 677.758789062 282.551757812 677.758789062 296.3515625 685.55859375 c 128,-1,10
 310.151367188 693.358398438 310.151367188 693.358398438 354.551757812 705.358398438 c 0,11,12
 436.151367188 726.958984375 436.151367188 726.958984375 458.3515625 726.958984375 c 128,-1,13
 480.551757812 726.958984375 480.551757812 726.958984375 502.151367188 706.55859375 c 0,14,15
 512.951171875 694.55859375 512.951171875 694.55859375 517.750976562 687.958984375 c 128,-1,16
 522.551757812 681.358398438 522.551757812 681.358398438 523.750976562 673.55859375 c 128,-1,17
 524.951171875 665.758789062 524.951171875 665.758789062 522.551757812 656.159179688 c 0,18,19
 517.750976562 634.55859375 517.750976562 634.55859375 432.551757812 474.958984375 c 0,20,21
 368.951171875 358.55859375 368.951171875 358.55859375 356.3515625 327.358398438 c 128,-1,22
 343.750976562 296.159179688 343.750976562 296.159179688 334.151367188 231.358398438 c 0,23,24
 322.151367188 146.159179688 322.151367188 146.159179688 305.3515625 129.358398438 c 0,25,26
 292.151367188 113.758789062 292.151367188 113.758789062 217.750976562 74.1591796875 c 0,27,28
 154.151367188 42.958984375 154.151367188 42.958984375 123.551757812 41.1591796875 c 128,-1,29
 92.951171875 39.3583984375 92.951171875 39.3583984375 70.1513671875 68.1591796875 c 0,30,31
 55.7509765625 86.1591796875 55.7509765625 86.1591796875 55.7509765625 115.55859375 c 128,-1,32
 55.7509765625 144.958984375 55.7509765625 144.958984375 71.3515625 242.159179688 c 2,33,-1
 88.1513671875 348.958984375 l 1,34,-1
 31.7509765625 466.55859375 l 2,35,36
 7.7509765625 513.358398438 7.7509765625 513.358398438 -3.6484375 539.159179688 c 128,-1,37
 -15.048828125 564.958984375 -15.048828125 564.958984375 -21.048828125 591.358398438 c 128,-1,38
 -27.048828125 617.758789062 -27.048828125 617.758789062 -25.2490234375 629.159179688 c 128,-1,39
 -23.4482421875 640.55859375 -23.4482421875 640.55859375 -11.4482421875 654.958984375 c 128,-1,40
 0.5517578125 669.358398438 0.5517578125 669.358398438 17.3515625 677.758789062 c 128,-1,41
 34.1513671875 686.159179688 34.1513671875 686.159179688 66.5517578125 700.55859375 c 0,0,1
EndSplineSet
Validated: 524321
EndChar

StartChar: Z
Encoding: 90 90 60
Width: 531
VWidth: 1062
Flags: W
LayerCount: 2
Fore
SplineSet
90.900390625 708.711914062 m 0,0,1
 113.700195312 713.51171875 113.700195312 713.51171875 288.299804688 708.111328125 c 128,-1,2
 462.900390625 702.711914062 462.900390625 702.711914062 480.900390625 695.51171875 c 0,3,4
 520.5 682.311523438 520.5 682.311523438 520.5 635.51171875 c 0,5,6
 520.5 613.912109375 520.5 613.912109375 449.700195312 481.912109375 c 0,7,8
 378.900390625 351.111328125 378.900390625 351.111328125 378.900390625 344.51171875 c 128,-1,9
 378.900390625 337.912109375 378.900390625 337.912109375 434.099609375 334.311523438 c 0,10,11
 468.900390625 333.111328125 468.900390625 333.111328125 482.099609375 328.912109375 c 128,-1,12
 495.299804688 324.711914062 495.299804688 324.711914062 504.900390625 313.912109375 c 0,13,14
 522.900390625 292.311523438 522.900390625 292.311523438 517.5 263.51171875 c 128,-1,15
 512.099609375 234.711914062 512.099609375 234.711914062 480.900390625 171.111328125 c 1,16,17
 480.900390625 171.111328125 480.900390625 171.111328125 480.900390625 169.912109375 c 0,18,19
 467.700195312 144.711914062 467.700195312 144.711914062 462.900390625 134.51171875 c 128,-1,20
 458.099609375 124.311523438 458.099609375 124.311523438 445.5 108.711914062 c 128,-1,21
 432.900390625 93.111328125 432.900390625 93.111328125 428.700195312 88.3115234375 c 128,-1,22
 424.5 83.51171875 424.5 83.51171875 405.900390625 76.3115234375 c 128,-1,23
 387.299804688 69.111328125 387.299804688 69.111328125 378.299804688 67.912109375 c 128,-1,24
 369.299804688 66.7119140625 369.299804688 66.7119140625 338.099609375 64.3115234375 c 128,-1,25
 306.900390625 61.912109375 306.900390625 61.912109375 286.5 61.912109375 c 128,-1,26
 266.099609375 61.912109375 266.099609375 61.912109375 216.900390625 61.912109375 c 0,27,28
 213.299804688 61.912109375 213.299804688 61.912109375 212.099609375 61.912109375 c 0,29,30
 82.5 61.912109375 82.5 61.912109375 45.900390625 68.51171875 c 128,-1,31
 9.2998046875 75.111328125 9.2998046875 75.111328125 -5.099609375 100.311523438 c 0,32,33
 -18.2998046875 124.311523438 -18.2998046875 124.311523438 -5.7001953125 159.711914062 c 128,-1,34
 6.900390625 195.111328125 6.900390625 195.111328125 64.5 297.111328125 c 0,35,36
 142.5 432.711914062 142.5 432.711914062 138.900390625 439.912109375 c 0,37,38
 134.099609375 445.912109375 134.099609375 445.912109375 82.5 445.912109375 c 0,39,40
 36.900390625 445.912109375 36.900390625 445.912109375 14.099609375 455.51171875 c 128,-1,41
 -8.7001953125 465.111328125 -8.7001953125 465.111328125 -20.7001953125 489.111328125 c 0,42,43
 -27.900390625 503.51171875 -27.900390625 503.51171875 -24.2998046875 519.111328125 c 128,-1,44
 -20.7001953125 534.711914062 -20.7001953125 534.711914062 -0.2998046875 586.311523438 c 0,45,46
 42.900390625 696.711914062 42.900390625 696.711914062 90.900390625 708.711914062 c 0,0,1
EndSplineSet
Validated: 524321
EndChar

StartChar: bracketleft
Encoding: 91 91 61
Width: 1019
Flags: W
LayerCount: 2
Fore
SplineSet
10 -69.5 m 128,-1,1
 10 -63 10 -63 510 -63 c 128,-1,2
 1010 -63 1010 -63 1010 -69.5 c 128,-1,3
 1010 -76 1010 -76 510 -76 c 128,-1,0
 10 -76 10 -76 10 -69.5 c 128,-1,1
EndSplineSet
Validated: 1
EndChar

StartChar: bracketright
Encoding: 93 93 62
Width: 1019
Flags: W
LayerCount: 2
Fore
SplineSet
10 -69.5 m 128,-1,1
 10 -63 10 -63 510 -63 c 128,-1,2
 1010 -63 1010 -63 1010 -69.5 c 128,-1,3
 1010 -76 1010 -76 510 -76 c 128,-1,0
 10 -76 10 -76 10 -69.5 c 128,-1,1
EndSplineSet
Validated: 1
EndChar

StartChar: a
Encoding: 97 97 63
Width: 525
VWidth: 1073
Flags: W
LayerCount: 2
Fore
SplineSet
182.713867188 605.463867188 m 0,0,1
 212.713867188 612.6640625 212.713867188 612.6640625 243.9140625 607.864257812 c 0,2,3
 302.713867188 598.264648438 302.713867188 598.264648438 398.713867188 609.064453125 c 0,4,5
 420.314453125 611.463867188 420.314453125 611.463867188 432.9140625 612.6640625 c 128,-1,6
 445.513671875 613.864257812 445.513671875 613.864257812 459.9140625 612.6640625 c 128,-1,7
 474.314453125 611.463867188 474.314453125 611.463867188 481.513671875 610.864257812 c 128,-1,8
 488.713867188 610.264648438 488.713867188 610.264648438 496.513671875 603.064453125 c 128,-1,9
 504.314453125 595.864257812 504.314453125 595.864257812 507.314453125 589.864257812 c 128,-1,10
 510.314453125 583.864257812 510.314453125 583.864257812 512.713867188 567.6640625 c 128,-1,11
 515.114257812 551.463867188 515.114257812 551.463867188 514.513671875 538.264648438 c 128,-1,12
 513.9140625 525.064453125 513.9140625 525.064453125 512.713867188 498.6640625 c 128,-1,13
 511.513671875 472.264648438 511.513671875 472.264648438 508.513671875 449.463867188 c 128,-1,14
 505.513671875 426.6640625 505.513671875 426.6640625 500.713867188 385.864257812 c 0,15,16
 482.713867188 216.6640625 482.713867188 216.6640625 489.9140625 193.864257812 c 0,17,18
 498.314453125 168.6640625 498.314453125 168.6640625 498.314453125 156.6640625 c 0,19,20
 498.314453125 139.864257812 498.314453125 139.864257812 473.713867188 119.463867188 c 128,-1,21
 449.114257812 99.064453125 449.114257812 99.064453125 405.9140625 81.064453125 c 0,22,23
 360.314453125 63.064453125 360.314453125 63.064453125 336.9140625 59.4638671875 c 128,-1,24
 313.513671875 55.8642578125 313.513671875 55.8642578125 295.513671875 64.2646484375 c 0,25,26
 281.114257812 71.4638671875 281.114257812 71.4638671875 242.713867188 60.6640625 c 0,27,28
 206.713867188 48.6640625 206.713867188 48.6640625 176.713867188 53.4638671875 c 0,29,30
 66.314453125 72.6640625 66.314453125 72.6640625 10.513671875 171.6640625 c 128,-1,31
 -45.2861328125 270.6640625 -45.2861328125 270.6640625 -15.2861328125 394.264648438 c 0,32,33
 5.1142578125 477.064453125 5.1142578125 477.064453125 57.314453125 532.264648438 c 128,-1,34
 109.513671875 587.463867188 109.513671875 587.463867188 182.713867188 605.463867188 c 0,0,1
260.713867188 382.264648438 m 0,35,36
 264.314453125 394.264648438 264.314453125 394.264648438 257.114257812 394.264648438 c 0,37,38
 247.513671875 394.264648438 247.513671875 394.264648438 242.713867188 376.864257812 c 128,-1,39
 237.9140625 359.463867188 237.9140625 359.463867188 239.713867188 341.463867188 c 128,-1,40
 241.513671875 323.463867188 241.513671875 323.463867188 247.513671875 323.463867188 c 0,41,42
 255.9140625 323.463867188 255.9140625 323.463867188 255.9140625 346.264648438 c 0,43,44
 255.9140625 367.864257812 255.9140625 367.864257812 260.713867188 382.264648438 c 0,35,36
EndSplineSet
Validated: 524321
EndChar

StartChar: b
Encoding: 98 98 64
Width: 547
VWidth: 1059
Flags: W
LayerCount: 2
Fore
SplineSet
123.0234375 741.884765625 m 0,0,1
 189.0234375 759.884765625 189.0234375 759.884765625 218.423828125 759.884765625 c 128,-1,2
 247.823242188 759.884765625 247.823242188 759.884765625 267.0234375 740.684570312 c 0,3,4
 276.623046875 731.083984375 276.623046875 731.083984375 279.623046875 716.083984375 c 128,-1,5
 282.623046875 701.083984375 282.623046875 701.083984375 282.623046875 660.284179688 c 2,6,-1
 282.623046875 596.684570312 l 1,7,-1
 327.0234375 595.484375 l 2,8,9
 371.423828125 595.484375 371.423828125 595.484375 418.223632812 571.484375 c 0,10,11
 509.423828125 525.884765625 509.423828125 525.884765625 531.0234375 408.284179688 c 128,-1,12
 552.623046875 290.684570312 552.623046875 290.684570312 492.623046875 170.684570312 c 0,13,14
 466.223632812 117.884765625 466.223632812 117.884765625 420.623046875 83.6845703125 c 128,-1,15
 375.0234375 49.484375 375.0234375 49.484375 324.0234375 42.884765625 c 128,-1,16
 273.0234375 36.2841796875 273.0234375 36.2841796875 222.623046875 56.6845703125 c 0,17,18
 196.223632812 68.6845703125 196.223632812 68.6845703125 184.823242188 68.6845703125 c 128,-1,19
 173.423828125 68.6845703125 173.423828125 68.6845703125 132.623046875 57.884765625 c 0,20,21
 79.8232421875 44.6845703125 79.8232421875 44.6845703125 42.623046875 44.6845703125 c 0,22,23
 6.623046875 43.484375 6.623046875 43.484375 -10.1767578125 62.083984375 c 128,-1,24
 -26.9765625 80.6845703125 -26.9765625 80.6845703125 -26.9765625 119.083984375 c 0,25,26
 -26.9765625 150.284179688 -26.9765625 150.284179688 -7.7763671875 395.083984375 c 128,-1,27
 11.423828125 639.884765625 11.423828125 639.884765625 16.2236328125 667.484375 c 0,28,29
 21.0234375 698.684570312 21.0234375 698.684570312 39.623046875 711.884765625 c 128,-1,30
 58.2236328125 725.083984375 58.2236328125 725.083984375 123.0234375 741.884765625 c 0,0,1
281.423828125 323.083984375 m 0,31,32
 286.223632812 359.083984375 286.223632812 359.083984375 271.823242188 377.083984375 c 0,33,34
 265.823242188 383.083984375 265.823242188 383.083984375 262.223632812 375.884765625 c 0,35,36
 259.823242188 372.284179688 259.823242188 372.284179688 258.0234375 364.484375 c 128,-1,37
 256.223632812 356.684570312 256.223632812 356.684570312 254.423828125 346.484375 c 128,-1,38
 252.623046875 336.284179688 252.623046875 336.284179688 251.423828125 324.884765625 c 128,-1,39
 250.223632812 313.484375 250.223632812 313.484375 250.223632812 302.684570312 c 128,-1,40
 250.223632812 291.884765625 250.223632812 291.884765625 250.223632812 282.884765625 c 128,-1,41
 250.223632812 273.884765625 250.223632812 273.884765625 251.423828125 268.484375 c 128,-1,42
 252.623046875 263.083984375 252.623046875 263.083984375 253.823242188 263.083984375 c 0,43,44
 273.0234375 263.083984375 273.0234375 263.083984375 281.423828125 323.083984375 c 0,31,32
EndSplineSet
Validated: 524321
EndChar

StartChar: c
Encoding: 99 99 65
Width: 473
VWidth: 1073
Flags: W
LayerCount: 2
Fore
SplineSet
223.440429688 605.564453125 m 0,0,1
 261.83984375 612.764648438 261.83984375 612.764648438 283.440429688 612.1640625 c 128,-1,2
 305.040039062 611.564453125 305.040039062 611.564453125 347.040039062 601.963867188 c 0,3,4
 379.440429688 593.564453125 379.440429688 593.564453125 404.040039062 582.764648438 c 128,-1,5
 428.640625 571.963867188 428.640625 571.963867188 443.040039062 558.1640625 c 128,-1,6
 457.440429688 544.364257812 457.440429688 544.364257812 461.040039062 528.764648438 c 0,7,8
 463.440429688 515.564453125 463.440429688 515.564453125 460.440429688 484.364257812 c 128,-1,9
 457.440429688 453.1640625 457.440429688 453.1640625 451.440429688 424.364257812 c 128,-1,10
 445.440429688 395.564453125 445.440429688 395.564453125 439.440429688 388.364257812 c 0,11,12
 414.240234375 357.1640625 414.240234375 357.1640625 347.040039062 375.1640625 c 0,13,14
 302.640625 385.963867188 302.640625 385.963867188 285.240234375 385.364257812 c 128,-1,15
 267.83984375 384.764648438 267.83984375 384.764648438 252.240234375 370.364257812 c 0,16,17
 237.83984375 354.764648438 237.83984375 354.764648438 239.040039062 321.1640625 c 0,18,19
 241.440429688 288.764648438 241.440429688 288.764648438 260.640625 281.564453125 c 128,-1,20
 279.83984375 274.364257812 279.83984375 274.364257812 326.640625 288.764648438 c 0,21,22
 389.040039062 307.963867188 389.040039062 307.963867188 412.440429688 283.963867188 c 128,-1,23
 435.83984375 259.963867188 435.83984375 259.963867188 432.240234375 181.963867188 c 0,24,25
 429.83984375 126.764648438 429.83984375 126.764648438 413.640625 104.564453125 c 128,-1,26
 397.440429688 82.3642578125 397.440429688 82.3642578125 347.040039062 66.7646484375 c 0,27,28
 242.640625 35.564453125 242.640625 35.564453125 149.040039062 70.9638671875 c 128,-1,29
 55.4404296875 106.364257812 55.4404296875 106.364257812 9.83984375 193.963867188 c 0,30,31
 -23.759765625 257.564453125 -23.759765625 257.564453125 -20.16015625 324.764648438 c 128,-1,32
 -16.5595703125 391.963867188 -16.5595703125 391.963867188 11.640625 448.963867188 c 128,-1,33
 39.83984375 505.963867188 39.83984375 505.963867188 96.240234375 548.564453125 c 128,-1,34
 152.640625 591.1640625 152.640625 591.1640625 223.440429688 605.564453125 c 0,0,1
EndSplineSet
Validated: 524321
EndChar

StartChar: d
Encoding: 100 100 66
Width: 565
VWidth: 1059
Flags: W
LayerCount: 2
Fore
SplineSet
398.599609375 744.260742188 m 0,0,1
 473 764.661132812 473 764.661132812 495.799804688 759.860351562 c 0,2,3
 521 756.260742188 521 756.260742188 537.799804688 735.860351562 c 128,-1,4
 554.599609375 715.4609375 554.599609375 715.4609375 554.599609375 687.860351562 c 256,5,6
 554.599609375 660.260742188 554.599609375 660.260742188 531.200195312 408.860351562 c 128,-1,7
 507.799804688 157.4609375 507.799804688 157.4609375 503 137.060546875 c 0,8,9
 498.200195312 111.860351562 498.200195312 111.860351562 473.599609375 95.6611328125 c 128,-1,10
 449 79.4609375 449 79.4609375 386.599609375 60.2607421875 c 0,11,12
 339.799804688 45.8603515625 339.799804688 45.8603515625 320 42.8603515625 c 128,-1,13
 300.200195312 39.8603515625 300.200195312 39.8603515625 285.799804688 44.6611328125 c 0,14,15
 261.799804688 54.2607421875 261.799804688 54.2607421875 215 44.6611328125 c 0,16,17
 117.799804688 25.4609375 117.799804688 25.4609375 44.599609375 97.4609375 c 0,18,19
 5 138.260742188 5 138.260742188 -11.7998046875 184.4609375 c 128,-1,20
 -28.599609375 230.661132812 -28.599609375 230.661132812 -28.599609375 302.661132812 c 0,21,22
 -28.599609375 377.060546875 -28.599609375 377.060546875 -11.2001953125 423.260742188 c 128,-1,23
 6.2001953125 469.4609375 6.2001953125 469.4609375 51.7998046875 515.060546875 c 0,24,25
 128.599609375 590.661132812 128.599609375 590.661132812 233 596.661132812 c 2,26,-1
 276.200195312 597.860351562 l 1,27,-1
 282.200195312 644.661132812 l 2,28,29
 287 677.060546875 287 677.060546875 296.599609375 693.260742188 c 128,-1,30
 306.200195312 709.4609375 306.200195312 709.4609375 327.799804688 720.860351562 c 128,-1,31
 349.400390625 732.260742188 349.400390625 732.260742188 398.599609375 744.260742188 c 0,0,1
260.599609375 318.260742188 m 0,32,33
 267.799804688 380.661132812 267.799804688 380.661132812 253.400390625 378.260742188 c 0,34,35
 247.400390625 374.661132812 247.400390625 374.661132812 240.200195312 363.860351562 c 0,36,37
 231.799804688 348.260742188 231.799804688 348.260742188 231.799804688 309.260742188 c 128,-1,38
 231.799804688 270.260742188 231.799804688 270.260742188 240.200195312 261.860351562 c 0,39,40
 249.799804688 251.060546875 249.799804688 251.060546875 254.599609375 275.060546875 c 0,41,42
 257 288.260742188 257 288.260742188 260.599609375 318.260742188 c 0,32,33
EndSplineSet
Validated: 524321
EndChar

StartChar: e
Encoding: 101 101 67
Width: 492
VWidth: 1073
Flags: W
LayerCount: 2
Fore
SplineSet
201.213867188 601.931640625 m 0,0,1
 246.813476562 612.731445312 246.813476562 612.731445312 265.4140625 612.731445312 c 128,-1,2
 284.013671875 612.731445312 284.013671875 612.731445312 323.61328125 601.931640625 c 0,3,4
 378.813476562 585.131835938 378.813476562 585.131835938 420.213867188 543.731445312 c 128,-1,5
 461.61328125 502.33203125 461.61328125 502.33203125 476.013671875 447.131835938 c 0,6,7
 494.013671875 377.53125 494.013671875 377.53125 454.4140625 321.131835938 c 0,8,9
 443.61328125 306.731445312 443.61328125 306.731445312 443.013671875 298.931640625 c 128,-1,10
 442.4140625 291.131835938 442.4140625 291.131835938 450.813476562 273.131835938 c 0,11,12
 464.013671875 247.931640625 464.013671875 247.931640625 464.013671875 196.33203125 c 0,13,14
 464.013671875 136.33203125 464.013671875 136.33203125 436.4140625 111.131835938 c 128,-1,15
 408.813476562 85.931640625 408.813476562 85.931640625 317.61328125 64.33203125 c 0,16,17
 250.4140625 47.53125 250.4140625 47.53125 216.813476562 53.53125 c 0,18,19
 117.213867188 70.33203125 117.213867188 70.33203125 51.8134765625 136.33203125 c 128,-1,20
 -13.5859375 202.33203125 -13.5859375 202.33203125 -20.7861328125 295.931640625 c 0,21,22
 -29.1865234375 402.731445312 -29.1865234375 402.731445312 33.8134765625 489.131835938 c 128,-1,23
 96.8134765625 575.53125 96.8134765625 575.53125 201.213867188 601.931640625 c 0,0,1
EndSplineSet
Validated: 524321
EndChar

StartChar: f
Encoding: 102 102 68
Width: 504
VWidth: 1057
Flags: W
LayerCount: 2
Fore
SplineSet
231.299804688 779.828125 m 0,0,1
 305.700195312 807.428710938 305.700195312 807.428710938 412.5 770.228515625 c 0,2,3
 494.099609375 742.627929688 494.099609375 742.627929688 494.099609375 699.428710938 c 0,4,5
 494.099609375 674.228515625 494.099609375 674.228515625 467.099609375 625.627929688 c 128,-1,6
 440.099609375 577.028320312 440.099609375 577.028320312 422.099609375 567.428710938 c 2,7,-1
 399.299804688 556.627929688 l 1,8,-1
 417.299804688 537.428710938 l 2,9,10
 435.299804688 518.228515625 435.299804688 518.228515625 434.099609375 491.228515625 c 128,-1,11
 432.900390625 464.228515625 432.900390625 464.228515625 411.299804688 421.028320312 c 0,12,13
 389.700195312 374.228515625 389.700195312 374.228515625 365.700195312 363.428710938 c 0,14,15
 358.5 359.828125 358.5 359.828125 345.299804688 353.828125 c 128,-1,16
 332.099609375 347.828125 332.099609375 347.828125 329.700195312 346.627929688 c 0,17,18
 318.900390625 341.828125 318.900390625 341.828125 308.099609375 236.228515625 c 0,19,20
 298.5 131.828125 298.5 131.828125 284.099609375 111.428710938 c 0,21,22
 272.099609375 94.6279296875 272.099609375 94.6279296875 204.299804688 67.0283203125 c 128,-1,23
 136.5 39.4287109375 136.5 39.4287109375 105.299804688 38.228515625 c 0,24,25
 83.7001953125 37.0283203125 83.7001953125 37.0283203125 65.099609375 50.828125 c 128,-1,26
 46.5 64.6279296875 46.5 64.6279296875 39.2998046875 86.228515625 c 0,27,28
 32.099609375 105.428710938 32.099609375 105.428710938 44.099609375 218.228515625 c 0,29,30
 47.7001953125 265.028320312 47.7001953125 265.028320312 49.5 289.627929688 c 128,-1,31
 51.2998046875 314.228515625 51.2998046875 314.228515625 49.5 329.828125 c 128,-1,32
 47.7001953125 345.428710938 47.7001953125 345.428710938 42.900390625 349.627929688 c 128,-1,33
 38.099609375 353.828125 38.099609375 353.828125 27.2998046875 353.828125 c 256,34,35
 16.5 353.828125 16.5 353.828125 4.5 362.828125 c 128,-1,36
 -7.5 371.828125 -7.5 371.828125 -15.2998046875 385.627929688 c 128,-1,37
 -23.099609375 399.428710938 -23.099609375 399.428710938 -23.099609375 412.627929688 c 0,38,39
 -23.099609375 434.228515625 -23.099609375 434.228515625 5.7001953125 481.627929688 c 128,-1,40
 34.5 529.028320312 34.5 529.028320312 58.5 547.028320312 c 0,41,42
 80.099609375 563.828125 80.099609375 563.828125 90.900390625 614.228515625 c 0,43,44
 101.700195312 658.627929688 101.700195312 658.627929688 123.900390625 697.028320312 c 128,-1,45
 146.099609375 735.428710938 146.099609375 735.428710938 170.099609375 751.028320312 c 0,46,47
 188.099609375 764.228515625 188.099609375 764.228515625 231.299804688 779.828125 c 0,0,1
360.900390625 565.627929688 m 128,-1,49
 360.900390625 573.428710938 360.900390625 573.428710938 353.099609375 573.428710938 c 128,-1,50
 345.299804688 573.428710938 345.299804688 573.428710938 345.299804688 565.627929688 c 128,-1,51
 345.299804688 557.828125 345.299804688 557.828125 353.099609375 557.828125 c 128,-1,48
 360.900390625 557.828125 360.900390625 557.828125 360.900390625 565.627929688 c 128,-1,49
EndSplineSet
Validated: 524321
EndChar

StartChar: g
Encoding: 103 103 69
Width: 542
VWidth: 1088
Flags: W
LayerCount: 2
Fore
SplineSet
165.436523438 617.1328125 m 0,0,1
 208.635742188 627.932617188 208.635742188 627.932617188 212.236328125 627.932617188 c 0,2,3
 223.036132812 629.1328125 223.036132812 629.1328125 264.436523438 617.1328125 c 128,-1,4
 305.8359375 605.1328125 305.8359375 605.1328125 311.8359375 599.1328125 c 0,5,6
 321.436523438 590.732421875 321.436523438 590.732421875 380.236328125 606.333007812 c 0,7,8
 435.436523438 619.533203125 435.436523438 619.533203125 461.236328125 620.1328125 c 128,-1,9
 487.036132812 620.732421875 487.036132812 620.732421875 505.036132812 608.732421875 c 0,10,11
 530.236328125 590.732421875 530.236328125 590.732421875 531.436523438 552.932617188 c 128,-1,12
 532.635742188 515.1328125 532.635742188 515.1328125 513.436523438 351.932617188 c 0,13,14
 499.036132812 215.1328125 499.036132812 215.1328125 485.8359375 152.1328125 c 128,-1,15
 472.635742188 89.1328125 472.635742188 89.1328125 451.635742188 51.3330078125 c 128,-1,16
 430.635742188 13.533203125 430.635742188 13.533203125 387.436523438 -26.0673828125 c 0,17,18
 279.436523438 -122.067382812 279.436523438 -122.067382812 139.036132812 -114.8671875 c 0,19,20
 37.0361328125 -108.8671875 37.0361328125 -108.8671875 1.0361328125 -59.6669921875 c 0,21,22
 -10.9638671875 -42.8671875 -10.9638671875 -42.8671875 -10.9638671875 -32.6669921875 c 128,-1,23
 -10.9638671875 -22.466796875 -10.9638671875 -22.466796875 -0.1640625 18.3330078125 c 0,24,25
 14.236328125 75.9326171875 14.236328125 75.9326171875 26.236328125 99.9326171875 c 0,26,27
 33.4365234375 116.732421875 33.4365234375 116.732421875 32.236328125 125.732421875 c 128,-1,28
 31.0361328125 134.732421875 31.0361328125 134.732421875 17.8359375 155.1328125 c 0,29,30
 -19.3642578125 211.533203125 -19.3642578125 211.533203125 -24.763671875 286.533203125 c 128,-1,31
 -30.1640625 361.533203125 -30.1640625 361.533203125 -9.1640625 428.1328125 c 128,-1,32
 11.8359375 494.732421875 11.8359375 494.732421875 58.6357421875 547.533203125 c 128,-1,33
 105.436523438 600.333007812 105.436523438 600.333007812 165.436523438 617.1328125 c 0,0,1
250.635742188 344.732421875 m 0,34,35
 256.635742188 402.333007812 256.635742188 402.333007812 248.236328125 402.333007812 c 0,36,37
 241.036132812 402.333007812 241.036132812 402.333007812 232.635742188 362.732421875 c 0,38,39
 218.236328125 296.732421875 218.236328125 296.732421875 232.635742188 288.333007812 c 0,40,41
 242.236328125 281.1328125 242.236328125 281.1328125 244.635742188 293.1328125 c 0,42,43
 247.036132812 302.732421875 247.036132812 302.732421875 250.635742188 344.732421875 c 0,34,35
EndSplineSet
Validated: 524321
EndChar

StartChar: h
Encoding: 104 104 70
Width: 536
VWidth: 1058
Flags: W
LayerCount: 2
Fore
SplineSet
128.790039062 755.87109375 m 0,0,1
 209.189453125 776.271484375 209.189453125 776.271484375 210.389648438 778.671875 c 0,2,3
 212.790039062 778.671875 212.790039062 778.671875 236.790039062 770.271484375 c 0,4,5
 255.990234375 763.071289062 255.990234375 763.071289062 266.189453125 749.87109375 c 128,-1,6
 276.389648438 736.671875 276.389648438 736.671875 279.990234375 713.271484375 c 128,-1,7
 283.58984375 689.87109375 283.58984375 689.87109375 279.990234375 653.87109375 c 0,8,9
 275.189453125 592.671875 275.189453125 592.671875 282.389648438 587.87109375 c 0,10,11
 287.189453125 584.271484375 287.189453125 584.271484375 323.189453125 591.471679688 c 0,12,13
 389.189453125 603.471679688 389.189453125 603.471679688 445.58984375 571.071289062 c 128,-1,14
 501.990234375 538.671875 501.990234375 538.671875 519.990234375 478.671875 c 0,15,16
 527.189453125 447.471679688 527.189453125 447.471679688 525.990234375 407.271484375 c 128,-1,17
 524.790039062 367.071289062 524.790039062 367.071289062 512.790039062 196.671875 c 0,18,19
 510.389648438 165.471679688 510.389648438 165.471679688 509.189453125 151.671875 c 128,-1,20
 507.990234375 137.87109375 507.990234375 137.87109375 502.58984375 121.671875 c 128,-1,21
 497.189453125 105.471679688 497.189453125 105.471679688 492.389648438 99.4716796875 c 128,-1,22
 487.58984375 93.4716796875 487.58984375 93.4716796875 472.58984375 84.4716796875 c 128,-1,23
 457.58984375 75.4716796875 457.58984375 75.4716796875 443.189453125 71.271484375 c 128,-1,24
 428.790039062 67.0712890625 428.790039062 67.0712890625 399.990234375 58.671875 c 0,25,26
 335.189453125 39.4716796875 335.189453125 39.4716796875 310.58984375 40.671875 c 128,-1,27
 285.990234375 41.87109375 285.990234375 41.87109375 267.990234375 63.4716796875 c 0,28,29
 254.790039062 81.4716796875 254.790039062 81.4716796875 253.58984375 112.671875 c 128,-1,30
 252.389648438 143.87109375 252.389648438 143.87109375 264.389648438 254.271484375 c 0,31,32
 276.389648438 367.071289062 276.389648438 367.071289062 272.790039062 369.471679688 c 0,33,34
 264.389648438 377.87109375 264.389648438 377.87109375 258.389648438 355.071289062 c 0,35,36
 249.990234375 326.271484375 249.990234375 326.271484375 242.790039062 244.671875 c 0,37,38
 231.990234375 129.471679688 231.990234375 129.471679688 218.790039062 109.071289062 c 0,39,40
 206.790039062 91.0712890625 206.790039062 91.0712890625 122.790039062 62.271484375 c 0,41,42
 60.3896484375 40.671875 60.3896484375 40.671875 45.3896484375 38.87109375 c 128,-1,43
 30.3896484375 37.0712890625 30.3896484375 37.0712890625 9.990234375 47.87109375 c 0,44,45
 -17.6103515625 61.0712890625 -17.6103515625 61.0712890625 -24.810546875 88.671875 c 0,46,47
 -30.810546875 117.471679688 -30.810546875 117.471679688 -8.009765625 409.071289062 c 0,48,49
 7.58984375 610.671875 7.58984375 610.671875 13.58984375 658.071289062 c 128,-1,50
 19.58984375 705.471679688 19.58984375 705.471679688 31.58984375 717.471679688 c 0,51,52
 49.58984375 735.471679688 49.58984375 735.471679688 128.790039062 755.87109375 c 0,0,1
EndSplineSet
Validated: 524321
EndChar

StartChar: i
Encoding: 105 105 71
Width: 316
VWidth: 1057
Flags: W
LayerCount: 2
Fore
SplineSet
146.453125 766.87109375 m 0,0,1
 190.853515625 778.87109375 190.853515625 778.87109375 217.25390625 782.471679688 c 128,-1,2
 243.653320312 786.071289062 243.653320312 786.071289062 263.453125 784.87109375 c 128,-1,3
 283.25390625 783.670898438 283.25390625 783.670898438 291.653320312 771.071289062 c 128,-1,4
 300.053710938 758.471679688 300.053710938 758.471679688 303.053710938 739.271484375 c 128,-1,5
 306.053710938 720.071289062 306.053710938 720.071289062 304.853515625 687.670898438 c 0,6,7
 303.653320312 624.071289062 303.653320312 624.071289062 294.053710938 600.071289062 c 0,8,9
 285.653320312 577.271484375 285.653320312 577.271484375 286.853515625 535.271484375 c 0,10,11
 288.053710938 504.071289062 288.053710938 504.071289062 273.053710938 333.670898438 c 128,-1,12
 258.053710938 163.271484375 258.053710938 163.271484375 252.053710938 138.071289062 c 0,13,14
 247.25390625 116.471679688 247.25390625 116.471679688 223.25390625 100.87109375 c 128,-1,15
 199.25390625 85.271484375 199.25390625 85.271484375 144.053710938 66.0712890625 c 0,16,17
 69.6533203125 38.4716796875 69.6533203125 38.4716796875 37.853515625 42.6708984375 c 128,-1,18
 6.0537109375 46.87109375 6.0537109375 46.87109375 -4.74609375 84.0712890625 c 0,19,20
 -9.546875 99.6708984375 -9.546875 99.6708984375 9.0537109375 304.87109375 c 128,-1,21
 27.6533203125 510.071289062 27.6533203125 510.071289062 36.0537109375 523.271484375 c 0,22,23
 43.25390625 537.670898438 43.25390625 537.670898438 38.453125 589.271484375 c 0,24,25
 36.0537109375 634.87109375 36.0537109375 634.87109375 44.453125 682.271484375 c 128,-1,26
 52.853515625 729.670898438 52.853515625 729.670898438 66.0537109375 740.471679688 c 256,27,28
 79.25390625 751.271484375 79.25390625 751.271484375 146.453125 766.87109375 c 0,0,1
EndSplineSet
Validated: 524321
EndChar

StartChar: j
Encoding: 106 106 72
Width: 450
VWidth: 1066
Flags: W
LayerCount: 2
Fore
SplineSet
321.373046875 785.657226562 m 0,0,1
 399.373046875 802.458007812 399.373046875 802.458007812 420.973632812 785.657226562 c 128,-1,2
 442.573242188 768.857421875 442.573242188 768.857421875 440.173828125 695.657226562 c 0,3,4
 438.973632812 630.857421875 438.973632812 630.857421875 426.973632812 602.057617188 c 0,5,6
 416.173828125 575.657226562 416.173828125 575.657226562 422.173828125 557.657226562 c 0,7,8
 428.173828125 540.857421875 428.173828125 540.857421875 422.173828125 470.057617188 c 0,9,10
 404.173828125 273.2578125 404.173828125 273.2578125 393.373046875 195.2578125 c 128,-1,11
 382.573242188 117.2578125 382.573242188 117.2578125 369.373046875 78.2578125 c 128,-1,12
 356.173828125 39.2578125 356.173828125 39.2578125 328.573242188 8.0576171875 c 0,13,14
 238.573242188 -93.9423828125 238.573242188 -93.9423828125 68.173828125 -39.9423828125 c 0,15,16
 -0.2265625 -18.3427734375 -0.2265625 -18.3427734375 -14.0263671875 12.857421875 c 128,-1,17
 -27.826171875 44.0576171875 -27.826171875 44.0576171875 4.5732421875 108.857421875 c 0,18,19
 24.9736328125 150.857421875 24.9736328125 150.857421875 45.9736328125 164.657226562 c 128,-1,20
 66.9736328125 178.458007812 66.9736328125 178.458007812 95.7734375 168.857421875 c 0,21,22
 120.973632812 160.458007812 120.973632812 160.458007812 125.7734375 165.2578125 c 0,23,24
 132.973632812 173.657226562 132.973632812 173.657226562 147.373046875 346.458007812 c 0,25,26
 162.973632812 518.057617188 162.973632812 518.057617188 168.973632812 530.057617188 c 0,27,28
 174.973632812 538.458007812 174.973632812 538.458007812 176.173828125 621.2578125 c 0,29,30
 177.373046875 677.657226562 177.373046875 677.657226562 182.7734375 704.657226562 c 128,-1,31
 188.173828125 731.657226562 188.173828125 731.657226562 201.973632812 745.458007812 c 128,-1,32
 215.7734375 759.2578125 215.7734375 759.2578125 244.573242188 766.458007812 c 0,33,34
 287.7734375 778.458007812 287.7734375 778.458007812 321.373046875 785.657226562 c 0,0,1
EndSplineSet
Validated: 524321
EndChar

StartChar: k
Encoding: 107 107 73
Width: 543
VWidth: 1060
Flags: W
LayerCount: 2
Fore
SplineSet
131.822265625 745.787109375 m 128,-1,1
 196.622070312 763.1875 196.622070312 763.1875 224.822265625 761.387695312 c 128,-1,2
 253.022460938 759.587890625 253.022460938 759.587890625 272.22265625 736.787109375 c 0,3,4
 285.422851562 721.1875 285.422851562 721.1875 287.22265625 707.987304688 c 128,-1,5
 289.022460938 694.787109375 289.022460938 694.787109375 285.422851562 641.987304688 c 0,6,7
 280.622070312 569.987304688 280.622070312 569.987304688 275.822265625 555.587890625 c 0,8,9
 272.22265625 548.387695312 272.22265625 548.387695312 274.622070312 547.1875 c 128,-1,10
 277.022460938 545.987304688 277.022460938 545.987304688 285.422851562 549.587890625 c 0,11,12
 297.422851562 554.387695312 297.422851562 554.387695312 325.022460938 559.1875 c 128,-1,13
 352.622070312 563.987304688 352.622070312 563.987304688 385.622070312 566.987304688 c 128,-1,14
 418.622070312 569.987304688 418.622070312 569.987304688 445.022460938 569.987304688 c 0,15,16
 476.22265625 569.987304688 476.22265625 569.987304688 489.422851562 566.387695312 c 128,-1,17
 502.622070312 562.787109375 502.622070312 562.787109375 513.422851562 551.987304688 c 0,18,19
 539.822265625 527.987304688 539.822265625 527.987304688 529.622070312 500.387695312 c 128,-1,20
 519.422851562 472.787109375 519.422851562 472.787109375 457.022460938 403.1875 c 2,21,-1
 381.422851562 319.1875 l 1,22,-1
 428.22265625 265.1875 l 2,23,24
 473.822265625 214.787109375 473.822265625 214.787109375 500.22265625 190.787109375 c 0,25,26
 524.22265625 166.787109375 524.22265625 166.787109375 524.22265625 140.387695312 c 0,27,28
 524.22265625 116.387695312 524.22265625 116.387695312 506.822265625 98.9873046875 c 128,-1,29
 489.422851562 81.587890625 489.422851562 81.587890625 443.822265625 58.787109375 c 0,30,31
 374.22265625 26.3876953125 374.22265625 26.3876953125 340.022460938 31.1875 c 128,-1,32
 305.822265625 35.9873046875 305.822265625 35.9873046875 268.622070312 83.9873046875 c 2,33,-1
 239.822265625 123.587890625 l 1,34,-1
 221.822265625 106.787109375 l 2,35,36
 202.622070312 88.787109375 202.622070312 88.787109375 120.422851562 62.9873046875 c 128,-1,37
 38.22265625 37.1875 38.22265625 37.1875 20.22265625 43.1875 c 0,38,39
 -28.9775390625 62.3876953125 -28.9775390625 62.3876953125 -26.5771484375 121.1875 c 0,40,41
 -25.3779296875 141.587890625 -25.3779296875 141.587890625 -15.77734375 265.1875 c 128,-1,42
 -6.177734375 388.787109375 -6.177734375 388.787109375 5.22265625 513.587890625 c 128,-1,43
 16.6220703125 638.387695312 16.6220703125 638.387695312 19.0224609375 661.1875 c 0,44,45
 22.6220703125 694.787109375 22.6220703125 694.787109375 44.822265625 711.587890625 c 128,-1,0
 67.0224609375 728.387695312 67.0224609375 728.387695312 131.822265625 745.787109375 c 128,-1,1
EndSplineSet
Validated: 524321
EndChar

StartChar: l
Encoding: 108 108 74
Width: 312
VWidth: 1060
Flags: W
LayerCount: 2
Fore
SplineSet
151.5859375 738.064453125 m 0,0,1
 228.385742188 754.864257812 228.385742188 754.864257812 258.385742188 750.665039062 c 128,-1,2
 288.385742188 746.46484375 288.385742188 746.46484375 300.385742188 715.264648438 c 0,3,4
 305.185546875 703.264648438 305.185546875 703.264648438 293.185546875 557.46484375 c 128,-1,5
 281.185546875 411.665039062 281.185546875 411.665039062 264.985351562 267.064453125 c 128,-1,6
 248.786132812 122.46484375 248.786132812 122.46484375 242.786132812 111.665039062 c 0,7,8
 230.786132812 93.6650390625 230.786132812 93.6650390625 149.786132812 64.2646484375 c 128,-1,9
 68.7861328125 34.8642578125 68.7861328125 34.8642578125 45.9853515625 40.8642578125 c 0,10,11
 31.5859375 44.46484375 31.5859375 44.46484375 19.5859375 55.2646484375 c 128,-1,12
 7.5859375 66.064453125 7.5859375 66.064453125 0.9853515625 82.8642578125 c 128,-1,13
 -5.6142578125 99.6650390625 -5.6142578125 99.6650390625 -5.6142578125 117.665039062 c 0,14,15
 -5.6142578125 141.665039062 -5.6142578125 141.665039062 8.185546875 323.46484375 c 128,-1,16
 21.9853515625 505.264648438 21.9853515625 505.264648438 32.7861328125 615.665039062 c 0,17,18
 38.7861328125 687.665039062 38.7861328125 687.665039062 54.3857421875 704.46484375 c 0,19,20
 68.7861328125 718.864257812 68.7861328125 718.864257812 151.5859375 738.064453125 c 0,0,1
EndSplineSet
Validated: 524321
EndChar

StartChar: m
Encoding: 109 109 75
Width: 764
VWidth: 1073
Flags: W
LayerCount: 2
Fore
SplineSet
104.59765625 601.571289062 m 0,0,1
 168.198242188 614.771484375 168.198242188 614.771484375 190.998046875 614.771484375 c 128,-1,2
 213.797851562 614.771484375 213.797851562 614.771484375 230.59765625 601.571289062 c 0,3,4
 238.998046875 594.37109375 238.998046875 594.37109375 249.797851562 594.37109375 c 128,-1,5
 260.59765625 594.37109375 260.59765625 594.37109375 290.59765625 601.571289062 c 0,6,7
 364.998046875 621.970703125 364.998046875 621.970703125 422.59765625 584.771484375 c 0,8,9
 432.198242188 577.571289062 432.198242188 577.571289062 444.198242188 578.771484375 c 128,-1,10
 456.198242188 579.970703125 456.198242188 579.970703125 484.998046875 590.771484375 c 0,11,12
 553.3984375 614.771484375 553.3984375 614.771484375 614.59765625 603.970703125 c 128,-1,13
 675.797851562 593.170898438 675.797851562 593.170898438 710.59765625 551.170898438 c 0,14,15
 730.998046875 527.170898438 730.998046875 527.170898438 744.198242188 481.571289062 c 0,16,17
 750.198242188 459.970703125 750.198242188 459.970703125 751.998046875 443.771484375 c 128,-1,18
 753.797851562 427.571289062 753.797851562 427.571289062 751.998046875 401.771484375 c 128,-1,19
 750.198242188 375.970703125 750.198242188 375.970703125 744.198242188 315.970703125 c 0,20,21
 732.198242188 197.170898438 732.198242188 197.170898438 732.198242188 164.771484375 c 0,22,23
 732.198242188 129.970703125 732.198242188 129.970703125 709.3984375 111.37109375 c 128,-1,24
 686.59765625 92.771484375 686.59765625 92.771484375 619.3984375 72.37109375 c 0,25,26
 567.797851562 56.771484375 567.797851562 56.771484375 549.797851562 54.970703125 c 128,-1,27
 531.797851562 53.1708984375 531.797851562 53.1708984375 516.198242188 60.37109375 c 0,28,29
 490.998046875 69.970703125 490.998046875 69.970703125 481.3984375 95.1708984375 c 0,30,31
 472.998046875 116.771484375 472.998046875 116.771484375 468.198242188 118.571289062 c 128,-1,32
 463.3984375 120.37109375 463.3984375 120.37109375 448.998046875 107.170898438 c 256,33,34
 434.59765625 93.970703125 434.59765625 93.970703125 358.998046875 71.771484375 c 128,-1,35
 283.3984375 49.5712890625 283.3984375 49.5712890625 270.198242188 54.37109375 c 256,36,37
 256.998046875 59.1708984375 256.998046875 59.1708984375 239.59765625 75.37109375 c 128,-1,38
 222.198242188 91.5712890625 222.198242188 91.5712890625 222.198242188 98.771484375 c 0,39,40
 222.198242188 109.571289062 222.198242188 109.571289062 213.797851562 119.170898438 c 0,41,42
 208.998046875 126.37109375 208.998046875 126.37109375 205.3984375 126.37109375 c 128,-1,43
 201.797851562 126.37109375 201.797851562 126.37109375 192.198242188 116.771484375 c 0,44,45
 176.59765625 102.37109375 176.59765625 102.37109375 97.3984375 75.970703125 c 128,-1,46
 18.1982421875 49.5712890625 18.1982421875 49.5712890625 4.998046875 54.37109375 c 0,47,48
 -10.6015625 59.1708984375 -10.6015625 59.1708984375 -25.001953125 72.970703125 c 128,-1,49
 -39.40234375 86.771484375 -39.40234375 86.771484375 -45.40234375 102.37109375 c 0,50,51
 -50.2021484375 114.37109375 -50.2021484375 114.37109375 -39.40234375 269.170898438 c 128,-1,52
 -28.6015625 423.970703125 -28.6015625 423.970703125 -16.6015625 510.37109375 c 0,53,54
 -10.6015625 551.170898438 -10.6015625 551.170898438 11.59765625 567.970703125 c 128,-1,55
 33.7978515625 584.771484375 33.7978515625 584.771484375 104.59765625 601.571289062 c 0,0,1
EndSplineSet
Validated: 524321
EndChar

StartChar: n
Encoding: 110 110 76
Width: 543
VWidth: 1072
Flags: W
LayerCount: 2
Fore
SplineSet
152.21875 607.108398438 m 0,0,1
 200.21875 619.108398438 200.21875 619.108398438 213.418945312 619.108398438 c 128,-1,2
 226.619140625 619.108398438 226.619140625 619.108398438 245.819335938 608.307617188 c 0,3,4
 260.21875 601.108398438 260.21875 601.108398438 274.619140625 600.5078125 c 128,-1,5
 289.01953125 599.908203125 289.01953125 599.908203125 322.619140625 604.708007812 c 0,6,7
 421.01953125 620.307617188 421.01953125 620.307617188 476.819335938 571.108398438 c 128,-1,8
 532.619140625 521.908203125 532.619140625 521.908203125 532.619140625 422.307617188 c 0,9,10
 531.418945312 357.5078125 531.418945312 357.5078125 516.418945312 236.307617188 c 128,-1,11
 501.418945312 115.108398438 501.418945312 115.108398438 493.01953125 106.708007812 c 0,12,13
 485.819335938 99.5078125 485.819335938 99.5078125 451.01953125 87.5078125 c 128,-1,14
 416.21875 75.5078125 416.21875 75.5078125 377.21875 65.908203125 c 128,-1,15
 338.21875 56.3076171875 338.21875 56.3076171875 321.418945312 56.3076171875 c 0,16,17
 295.01953125 56.3076171875 295.01953125 56.3076171875 275.819335938 73.1083984375 c 0,18,19
 260.21875 88.7080078125 260.21875 88.7080078125 259.01953125 125.307617188 c 128,-1,20
 257.819335938 161.908203125 257.819335938 161.908203125 268.619140625 279.5078125 c 0,21,22
 278.21875 381.5078125 278.21875 381.5078125 272.21875 388.708007812 c 0,23,24
 265.01953125 397.108398438 265.01953125 397.108398438 259.01953125 373.108398438 c 0,25,26
 250.619140625 341.908203125 250.619140625 341.908203125 243.418945312 251.908203125 c 0,27,28
 233.819335938 146.307617188 233.819335938 146.307617188 219.418945312 127.108398438 c 0,29,30
 207.418945312 110.307617188 207.418945312 110.307617188 139.619140625 82.7080078125 c 128,-1,31
 71.8193359375 55.1083984375 71.8193359375 55.1083984375 40.619140625 53.908203125 c 0,32,33
 20.21875 52.7080078125 20.21875 52.7080078125 1.619140625 66.5078125 c 128,-1,34
 -16.98046875 80.3076171875 -16.98046875 80.3076171875 -25.380859375 100.708007812 c 0,35,36
 -31.380859375 119.908203125 -31.380859375 119.908203125 -12.1806640625 328.708007812 c 0,37,38
 -4.98046875 419.908203125 -4.98046875 419.908203125 0.4189453125 463.108398438 c 128,-1,39
 5.8193359375 506.307617188 5.8193359375 506.307617188 10.01953125 527.908203125 c 128,-1,40
 14.21875 549.5078125 14.21875 549.5078125 21.4189453125 557.908203125 c 0,41,42
 32.21875 572.307617188 32.21875 572.307617188 56.8193359375 581.908203125 c 128,-1,43
 81.4189453125 591.5078125 81.4189453125 591.5078125 152.21875 607.108398438 c 0,0,1
EndSplineSet
Validated: 524321
EndChar

StartChar: o
Encoding: 111 111 77
Width: 552
VWidth: 1073
Flags: W
LayerCount: 2
Fore
SplineSet
193.513671875 609.979492188 m 0,0,1
 217.513671875 620.779296875 217.513671875 620.779296875 280.513671875 612.979492188 c 128,-1,2
 343.513671875 605.1796875 343.513671875 605.1796875 390.313476562 584.779296875 c 0,3,4
 450.313476562 560.779296875 450.313476562 560.779296875 488.11328125 510.979492188 c 128,-1,5
 525.9140625 461.1796875 525.9140625 461.1796875 535.513671875 402.37890625 c 128,-1,6
 545.11328125 343.579101562 545.11328125 343.579101562 534.313476562 282.979492188 c 128,-1,7
 523.513671875 222.37890625 523.513671875 222.37890625 483.9140625 170.1796875 c 128,-1,8
 444.313476562 117.979492188 444.313476562 117.979492188 384.313476562 87.9794921875 c 0,9,10
 284.713867188 38.779296875 284.713867188 38.779296875 195.9140625 56.779296875 c 0,11,12
 56.7138671875 83.1796875 56.7138671875 83.1796875 1.513671875 193.579101562 c 0,13,14
 -30.88671875 267.979492188 -30.88671875 267.979492188 -26.6865234375 341.779296875 c 128,-1,15
 -22.486328125 415.579101562 -22.486328125 415.579101562 20.7138671875 478.579101562 c 128,-1,16
 63.9140625 541.579101562 63.9140625 541.579101562 133.513671875 571.579101562 c 0,17,18
 158.713867188 583.579101562 158.713867188 583.579101562 164.713867188 590.779296875 c 0,19,20
 168.313476562 599.1796875 168.313476562 599.1796875 193.513671875 609.979492188 c 0,0,1
284.713867188 373.579101562 m 0,21,22
 278.713867188 391.579101562 278.713867188 391.579101562 262.513671875 393.37890625 c 128,-1,23
 246.313476562 395.1796875 246.313476562 395.1796875 237.9140625 379.579101562 c 0,24,25
 229.513671875 361.579101562 229.513671875 361.579101562 229.513671875 326.779296875 c 0,26,27
 229.513671875 296.779296875 229.513671875 296.779296875 237.313476562 278.779296875 c 128,-1,28
 245.11328125 260.779296875 245.11328125 260.779296875 257.11328125 260.779296875 c 0,29,30
 275.11328125 260.779296875 275.11328125 260.779296875 285.313476562 303.37890625 c 128,-1,31
 295.513671875 345.979492188 295.513671875 345.979492188 284.713867188 373.579101562 c 0,21,22
EndSplineSet
Validated: 524321
EndChar

StartChar: p
Encoding: 112 112 78
Width: 563
VWidth: 1086
Flags: W
LayerCount: 2
Fore
SplineSet
158.752929688 621.251953125 m 0,0,1
 209.15234375 633.251953125 209.15234375 633.251953125 222.352539062 633.251953125 c 128,-1,2
 235.552734375 633.251953125 235.552734375 633.251953125 252.352539062 622.452148438 c 0,3,4
 263.15234375 614.051757812 263.15234375 614.051757812 274.552734375 613.452148438 c 128,-1,5
 285.952148438 612.8515625 285.952148438 612.8515625 315.952148438 618.8515625 c 256,6,7
 345.952148438 624.8515625 345.952148438 624.8515625 363.352539062 624.251953125 c 128,-1,8
 380.752929688 623.651367188 380.752929688 623.651367188 408.352539062 615.251953125 c 0,9,10
 453.952148438 602.051757812 453.952148438 602.051757812 489.952148438 565.452148438 c 128,-1,11
 525.952148438 528.8515625 525.952148438 528.8515625 540.352539062 480.8515625 c 0,12,13
 567.952148438 383.651367188 567.952148438 383.651367188 534.952148438 276.8515625 c 128,-1,14
 501.952148438 170.051757812 501.952148438 170.051757812 426.352539062 112.452148438 c 0,15,16
 365.15234375 65.6513671875 365.15234375 65.6513671875 282.352539062 68.0517578125 c 2,17,-1
 239.15234375 69.251953125 l 1,18,-1
 233.15234375 21.251953125 l 2,19,20
 230.752929688 -1.5478515625 230.752929688 -1.5478515625 229.552734375 -11.1484375 c 128,-1,21
 228.352539062 -20.748046875 228.352539062 -20.748046875 222.352539062 -33.3486328125 c 128,-1,22
 216.352539062 -45.9482421875 216.352539062 -45.9482421875 212.15234375 -50.1484375 c 128,-1,23
 207.952148438 -54.3486328125 207.952148438 -54.3486328125 190.552734375 -62.1484375 c 128,-1,24
 173.15234375 -69.9482421875 173.15234375 -69.9482421875 159.352539062 -73.5478515625 c 128,-1,25
 145.552734375 -77.1484375 145.552734375 -77.1484375 111.952148438 -86.748046875 c 0,26,27
 54.3525390625 -102.348632812 54.3525390625 -102.348632812 30.9521484375 -101.748046875 c 128,-1,28
 7.552734375 -101.1484375 7.552734375 -101.1484375 -10.447265625 -83.1484375 c 256,29,30
 -28.447265625 -65.1484375 -28.447265625 -65.1484375 -28.447265625 -10.5478515625 c 128,-1,31
 -28.447265625 44.0517578125 -28.447265625 44.0517578125 -6.84765625 292.452148438 c 0,32,33
 7.552734375 461.651367188 7.552734375 461.651367188 14.15234375 509.651367188 c 128,-1,34
 20.7529296875 557.651367188 20.7529296875 557.651367188 30.3525390625 570.8515625 c 0,35,36
 42.3525390625 586.452148438 42.3525390625 586.452148438 66.3525390625 596.051757812 c 128,-1,37
 90.3525390625 605.651367188 90.3525390625 605.651367188 158.752929688 621.251953125 c 0,0,1
299.15234375 365.651367188 m 0,38,39
 300.352539062 394.452148438 300.352539062 394.452148438 284.752929688 402.8515625 c 0,40,41
 276.352539062 405.251953125 276.352539062 405.251953125 271.552734375 399.251953125 c 0,42,43
 266.752929688 390.8515625 266.752929688 390.8515625 261.952148438 334.452148438 c 0,44,45
 258.352539062 282.8515625 258.352539062 282.8515625 266.752929688 282.8515625 c 2,46,-1
 269.15234375 284.051757812 l 2,47,48
 278.752929688 286.452148438 278.752929688 286.452148438 288.952148438 313.452148438 c 128,-1,49
 299.15234375 340.452148438 299.15234375 340.452148438 299.15234375 365.651367188 c 0,38,39
EndSplineSet
Validated: 524321
EndChar

StartChar: q
Encoding: 113 113 79
Width: 540
VWidth: 1087
Flags: W
LayerCount: 2
Fore
SplineSet
163.241210938 617.157226562 m 0,0,1
 217.241210938 631.557617188 217.241210938 631.557617188 290.440429688 607.557617188 c 0,2,3
 315.640625 599.157226562 315.640625 599.157226562 331.241210938 599.7578125 c 128,-1,4
 346.840820312 600.357421875 346.840820312 600.357421875 396.041015625 611.157226562 c 0,5,6
 464.440429688 626.7578125 464.440429688 626.7578125 482.440429688 619.557617188 c 0,7,8
 496.840820312 614.7578125 496.840820312 614.7578125 510.640625 599.7578125 c 128,-1,9
 524.440429688 584.7578125 524.440429688 584.7578125 529.241210938 569.157226562 c 0,10,11
 534.041015625 552.357421875 534.041015625 552.357421875 506.440429688 272.7578125 c 128,-1,12
 478.840820312 -6.8427734375 478.840820312 -6.8427734375 470.440429688 -22.4423828125 c 0,13,14
 466.840820312 -29.642578125 466.840820312 -29.642578125 459.041015625 -36.2421875 c 128,-1,15
 451.241210938 -42.8427734375 451.241210938 -42.8427734375 435.640625 -50.0419921875 c 128,-1,16
 420.041015625 -57.2421875 420.041015625 -57.2421875 397.840820312 -65.642578125 c 128,-1,17
 375.640625 -74.0419921875 375.640625 -74.0419921875 343.241210938 -84.8427734375 c 0,18,19
 300.041015625 -99.2421875 300.041015625 -99.2421875 277.241210938 -98.0419921875 c 128,-1,20
 254.440429688 -96.8427734375 254.440429688 -96.8427734375 235.241210938 -77.642578125 c 0,21,22
 224.440429688 -66.8427734375 224.440429688 -66.8427734375 222.041015625 -53.0419921875 c 128,-1,23
 219.640625 -39.2421875 219.640625 -39.2421875 220.840820312 2.7578125 c 2,24,-1
 224.440429688 67.5576171875 l 1,25,-1
 184.840820312 67.5576171875 l 2,26,27
 135.640625 68.7578125 135.640625 68.7578125 103.241210938 81.9580078125 c 128,-1,28
 70.8408203125 95.1572265625 70.8408203125 95.1572265625 40.8408203125 125.157226562 c 0,29,30
 14.4404296875 151.557617188 14.4404296875 151.557617188 0.041015625 178.557617188 c 128,-1,31
 -14.359375 205.557617188 -14.359375 205.557617188 -20.359375 239.7578125 c 128,-1,32
 -26.359375 273.958007812 -26.359375 273.958007812 -26.359375 321.958007812 c 0,33,34
 -26.359375 397.557617188 -26.359375 397.557617188 -8.359375 440.7578125 c 0,35,36
 48.041015625 584.7578125 48.041015625 584.7578125 163.241210938 617.157226562 c 0,0,1
248.440429688 348.357421875 m 0,37,38
 253.241210938 399.958007812 253.241210938 399.958007812 244.840820312 399.958007812 c 0,39,40
 232.840820312 399.958007812 232.840820312 399.958007812 225.041015625 350.7578125 c 128,-1,41
 217.241210938 301.557617188 217.241210938 301.557617188 228.041015625 294.357421875 c 256,42,43
 238.840820312 287.157226562 238.840820312 287.157226562 242.440429688 302.7578125 c 0,44,45
 246.041015625 313.557617188 246.041015625 313.557617188 248.440429688 348.357421875 c 0,37,38
EndSplineSet
Validated: 524321
EndChar

StartChar: r
Encoding: 114 114 80
Width: 436
VWidth: 1073
Flags: W
LayerCount: 2
Fore
SplineSet
310.75390625 601.797851562 m 0,0,1
 376.75390625 620.998046875 376.75390625 620.998046875 406.75390625 596.998046875 c 0,2,3
 423.553710938 582.59765625 423.553710938 582.59765625 425.353515625 559.797851562 c 128,-1,4
 427.153320312 536.998046875 427.153320312 536.998046875 416.353515625 482.998046875 c 0,5,6
 401.953125 419.397460938 401.953125 419.397460938 386.353515625 402.59765625 c 128,-1,7
 370.75390625 385.797851562 370.75390625 385.797851562 322.75390625 385.797851562 c 0,8,9
 278.353515625 385.797851562 278.353515625 385.797851562 269.953125 377.397460938 c 0,10,11
 262.75390625 368.998046875 262.75390625 368.998046875 253.153320312 257.397460938 c 0,12,13
 243.553710938 146.998046875 243.553710938 146.998046875 229.153320312 127.797851562 c 0,14,15
 217.153320312 110.998046875 217.153320312 110.998046875 149.953125 83.998046875 c 128,-1,16
 82.75390625 56.998046875 82.75390625 56.998046875 50.353515625 55.7978515625 c 0,17,18
 29.953125 54.59765625 29.953125 54.59765625 11.353515625 67.197265625 c 128,-1,19
 -7.24609375 79.7978515625 -7.24609375 79.7978515625 -15.646484375 101.397460938 c 0,20,21
 -21.646484375 119.397460938 -21.646484375 119.397460938 -3.646484375 323.397460938 c 0,22,23
 -2.4462890625 332.998046875 -2.4462890625 332.998046875 -1.24609375 352.197265625 c 0,24,25
 13.1533203125 511.797851562 13.1533203125 511.797851562 26.953125 541.197265625 c 128,-1,26
 40.75390625 570.59765625 40.75390625 570.59765625 110.353515625 584.998046875 c 0,27,28
 118.75390625 587.397460938 118.75390625 587.397460938 123.553710938 587.397460938 c 0,29,30
 189.553710938 602.998046875 189.553710938 602.998046875 216.553710938 604.797851562 c 128,-1,31
 243.553710938 606.59765625 243.553710938 606.59765625 257.953125 596.998046875 c 0,32,33
 272.353515625 588.59765625 272.353515625 588.59765625 310.75390625 601.797851562 c 0,0,1
EndSplineSet
Validated: 524321
EndChar

StartChar: s
Encoding: 115 115 81
Width: 380
VWidth: 1073
Flags: W
LayerCount: 2
Fore
SplineSet
30.1708984375 525.293945312 m 0,0,1
 58.9716796875 558.893554688 58.9716796875 558.893554688 97.9716796875 580.494140625 c 128,-1,2
 136.971679688 602.09375 136.971679688 602.09375 187.37109375 608.09375 c 128,-1,3
 237.771484375 614.09375 237.771484375 614.09375 289.37109375 590.09375 c 0,4,5
 330.170898438 573.293945312 330.170898438 573.293945312 343.971679688 550.494140625 c 128,-1,6
 357.771484375 527.694335938 357.771484375 527.694335938 361.37109375 474.893554688 c 0,7,8
 364.971679688 431.694335938 364.971679688 431.694335938 362.571289062 419.09375 c 128,-1,9
 360.170898438 406.494140625 360.170898438 406.494140625 344.571289062 388.494140625 c 2,10,-1
 324.170898438 363.293945312 l 1,11,-1
 343.37109375 334.494140625 l 2,12,13
 391.37109375 261.293945312 391.37109375 261.293945312 354.771484375 180.293945312 c 128,-1,14
 318.170898438 99.2939453125 318.170898438 99.2939453125 224.571289062 68.09375 c 0,15,16
 148.971679688 44.09375 148.971679688 44.09375 80.5712890625 60.2939453125 c 128,-1,17
 12.1708984375 76.494140625 12.1708984375 76.494140625 -3.4287109375 123.293945312 c 0,18,19
 -15.4287109375 159.293945312 -15.4287109375 159.293945312 -11.228515625 210.893554688 c 128,-1,20
 -7.0283203125 262.494140625 -7.0283203125 262.494140625 8.5712890625 278.09375 c 2,21,-1
 25.37109375 294.893554688 l 1,22,-1
 9.771484375 324.893554688 l 2,23,24
 -15.4287109375 376.494140625 -15.4287109375 376.494140625 -10.0283203125 430.494140625 c 128,-1,25
 -4.62890625 484.494140625 -4.62890625 484.494140625 30.1708984375 525.293945312 c 0,0,1
EndSplineSet
Validated: 524321
EndChar

